<?xml version="1.0" encoding="UTF-8" standalone="no"?>
<!-- Created with Inkscape (http://www.inkscape.org/) -->

<svg
        width="81.385872mm"
        height="85.565674mm"
        viewBox="0 0 81.385872 85.565674"
        version="1.1"
        id="svg8515"
        xmlns="http://www.w3.org/2000/svg"
>
  <defs
     id="defs8512" />
  <g
     id="layer1"
     transform="translate(-72.514869,-104.18272)">
    <g
       id="g934"
       transform="matrix(-0.0031281,0,0,-0.0031281,175.45657,209.36565)">
      <path
         d="m 24676.8,10551.8 c 0,0 2042.1,-380.3 3004.8,1523 941.2,1860.9 -980.7,4052.2 -1032.1,5732.9 -69.5,2275.3 1450.7,4326.8 4065.1,3693.7 2652.3,-642.3 2372.8,-3874.3 1082.9,-4711.2 -759.8,-493 -1421.6,-302.1 -1661.1,546.3 -239.5,848.5 836.3,1406.6 445.4,2070.8 -391,664.1 -1825.8,617.6 -2107.6,-783.6 -281.8,-1401.1 952.5,-3785 1058.5,-5331.9 99.1,-1446.1 -743.7,-2888.7 -1998.9,-3597.8 -1496.6,-845.6 -2751.1,-687.3 -2751.1,-687.3 l -105.9,1545.1"
         style="fill:#b74729;fill-opacity:1;fill-rule:nonzero;stroke:none"
         id="path938" />
      <path
         d="m 32469.7,19731.6 c -301.6,613.1 -862.1,1122.9 -1755,1339 -327,79.2 -636.9,116.4 -928.7,116.4 -960.7,0 -1725.2,-403 -2259.1,-1037.2 5.5,60.6 8.8,123.1 9.7,186.9 146,195.9 312.1,370.8 496.3,520.3 491.3,398.9 1087.1,601.5 1753.4,601.5 285,0 582.8,-37.1 890.9,-111.7 1155.3,-279.8 1612.5,-1032.6 1792.5,-1615.2"
         style="fill:#d08774;fill-opacity:1;fill-rule:nonzero;stroke:none"
         id="path940" />
      <path
         d="m 26068.9,9283.9 c 18.7,48.1 36.3,96.8 52.9,145.9 0.1,0.2 0.2,0.5 0.2,0.7 68.6,197.4 125.2,403.9 169.9,618.3 344.1,105.2 718.5,252 1108.2,455.9 897.2,469.8 1604,1253.5 1956.7,2145 -139.2,-1142.9 -852.3,-2224.8 -1901.2,-2817.3 -503.3,-284.4 -980,-451.5 -1386.7,-548.5"
         style="fill:#9e321d;fill-opacity:1;fill-rule:nonzero;stroke:none"
         id="path942" />
      <path
         d="m 28428.8,19026.4 c 3.1,146.6 18.2,286.1 47.7,417.3 191.2,851.2 840.7,1206.6 1416.2,1206.6 373.4,0 715.5,-149.5 881.3,-410 164.3,-257.9 86.1,-501.2 -55.4,-752.1 -182.1,309.1 -548.9,492.9 -954.7,492.9 -74.8,0 -151,-6.3 -227.6,-19.2 -504.8,-84.9 -900.6,-425.5 -1107.5,-935.5"
         style="fill:#9e321d;fill-opacity:1;fill-rule:nonzero;stroke:none"
         id="path944" />
      <path
         d="m 31026.1,16681 c -83.9,0 -163.1,13.7 -236.7,41.4 -230.2,86.7 -403,314 -499.9,657.4 -60,212.5 -21.5,405 58.6,593.4 181.4,-409.4 495.9,-616.1 883.7,-616.1 256.6,-0.1 545.2,90.4 848.7,272.5 118,70.9 228.6,158.6 330.2,260.2 -152.8,-418.4 -395.7,-768.9 -699.7,-966.2 -248.1,-160.9 -480.4,-242.6 -684.9,-242.6"
         style="fill:#9e321d;fill-opacity:1;fill-rule:nonzero;stroke:none"
         id="path946" />
      <path
         d="m 24931.8,9156.3 c 349.5,-11.6 1366.2,22 2523.8,676.1 1240.8,701 2011.8,2086.9 1918.5,3448.6 -43,628.2 -276.9,1396.2 -524.4,2209.2 -345.8,1135.6 -703.3,2309.9 -531.3,3164.8 143.6,714.1 598.9,1202.7 1217.9,1306.9 491.8,82.8 966.8,-107.7 1182.5,-474 245.5,-417 22.8,-801.8 -173.8,-1141.2 -182.7,-315.6 -355.2,-613.7 -255.5,-966.9 96.9,-343.4 269.7,-570.7 499.9,-657.4 253.1,-95.2 571.7,-25.8 921.6,201.2 636.5,413 1005.2,1497.8 839.3,2469.8 -99.6,584.3 -475.5,1615 -1873.1,1953.4 -1028.4,249 -1942.8,79.7 -2644.3,-489.8 -805.1,-653.5 -1262.8,-1791.6 -1224.4,-3044.4 18.6,-608 298.2,-1298 594.4,-2028.6 486.6,-1200.1 1038,-2560.3 420.5,-3781 -525.1,-1038.3 -1361.2,-1420.6 -1970.1,-1558.5 -420.8,-95.3 -789.1,-90 -1004.8,-73.2 l 83.3,-1215 m 116.9,-321.1 c -170.1,0 -271.6,11.9 -285.8,13.7 l -129.8,16.4 -128.9,1880.4 201.5,-37.6 c 78.7,-14.3 1938.4,-332.3 2834,1438.4 552.2,1091.7 52.1,2325.2 -431.5,3518.1 -307.1,757.6 -597.3,1473.3 -617.6,2138.2 -41.3,1351.5 460.3,2585.5 1341.8,3301.1 781.5,634.4 1791,825.3 2919.6,552 1150.1,-278.5 1919.8,-1083.7 2111.8,-2209 188.7,-1105.8 -232.5,-2305.2 -979.8,-2790.1 -437.7,-284.1 -855,-364.4 -1206.6,-232 -328.6,123.7 -568.5,424 -694,868.5 -136.2,482.6 88.3,870.5 286.4,1212.7 202.3,349.4 319,576 175,820.6 -146.9,249.5 -498.9,381.9 -855.7,321.7 -483.9,-81.4 -842.4,-476.2 -959,-1056 -156.2,-776.3 189.5,-1911.6 523.8,-3009.5 252.9,-830.8 491.9,-1615.6 537.5,-2280.1 101.5,-1481.3 -734.1,-2987.2 -2079.3,-3747.2 -1117,-631 -2097.6,-720.3 -2563.4,-720.3"
         style="fill:#650000;fill-opacity:1;fill-rule:nonzero;stroke:none"
         id="path948" />
      <path
         d="M 17709,18204.7 V 11845 l -3070.9,421.3 c -35.8,67.2 -65.2,140.3 -89.1,218.2 -329.1,1072.9 409.8,3093.3 991.8,4423.2 333.9,762 616.1,1297 616.1,1297 H 17709"
         style="fill:#b17e4f;fill-opacity:1;fill-rule:nonzero;stroke:none"
         id="path950" />
      <path
         d="m 17708.9,18204.9 v -6359.8 l -2646,362.9 -424.9,58.4 c -35.8,67.2 -65.2,140.3 -89.1,218.3 -329.1,1072.8 409.8,3093.2 991.8,4423.2 333.8,761.9 616.1,1297 616.1,1297 h 1552.1"
         style="fill:#b74729;fill-opacity:1;fill-rule:nonzero;stroke:none"
         id="path952" />
      <path
         d="m 16034.7,14261.2 c -23,18.6 -51.2,30.8 -81.9,34.4 l -386.6,44.8 c 176.7,506.8 376.4,996.3 560.3,1416.7 16.1,36.7 32.1,72.9 47.9,108.4 -20.4,-122.5 -34.5,-245.3 -45.8,-368.2 -12.3,-143.4 -15.2,-287.4 -23.8,-430.9 -7.6,-143.7 -21.6,-286.7 -33.7,-429.9 -11.4,-125.3 -23.5,-250.4 -36.4,-375.3"
         style="fill:#9e321d;fill-opacity:1;fill-rule:nonzero;stroke:none"
         id="path954" />
      <path
         d="m 14744.1,12412.3 2805.9,-385 v 6018.4 l -1296.1,0.1 c -307.6,-603.7 -2110.7,-4252.4 -1509.8,-5633.5 m 3123.8,-749.7 -3332.2,457.4 -38.2,72 c -837.3,1581.2 1422.1,5903.7 1518.8,6086.9 l 44.7,84.8 h 1806.9 v -6701.1"
         style="fill:#650000;fill-opacity:1;fill-rule:nonzero;stroke:none"
         id="path956" />
      <path
         d="m 25971.6,9481.9 c -171.4,-493.2 -968.3,-2300.6 -3494.3,-2124.1 l -99.4,484.5 c -1970.7,-37.7 -3949.4,463.9 -3949.4,463.9 -2175,378.8 -4064.7,47.7 -4064.7,47.7 l -429.3,3252.6 c 121.3,297.7 313.6,630 614.5,878 156.3,128.8 341.9,235 562.5,301.7 331.1,100.6 618.1,134.8 870.9,123.7 l 256.7,3763.7 104.6,1531.1 h 6891.6 c 446.3,-460.6 839.5,-941.2 1181.3,-1432.1 1798.2,-2580.1 2192.9,-5453.9 1555,-7290.7"
         style="fill:#b74729;fill-opacity:1;fill-rule:nonzero;stroke:none"
         id="path958" />
      <path
         d="m 21894.2,8002.9 c -3,0 -6.3,0.1 -9.4,0.2 v 118.8 c 1.5,-41.5 4.8,-81.1 9.4,-119 m -9.4,240.7 v 82.4 l -2074.2,186.5 c 102.2,77.3 189.7,203.6 261.1,342 56.4,-7.6 115.1,-11.4 173.2,-11.4 39.8,0 79.4,1.8 117.9,5.4 3.3,0.3 6.5,0.5 9.8,0.9 462.1,-58.1 975.5,-104.3 1501.5,-118.3 32.1,-89.1 42.4,-184.8 29.4,-278.7 -10.3,-73.8 -16.4,-143.3 -18.7,-208.8 m -2492.6,306.5 -1430.6,128.6 -209.5,615.3 c 152.2,-17 306.7,-37.1 463.2,-60.8 44.5,-41.8 100.2,-59.2 162.7,-59.2 31.7,0 65.1,4.5 99.7,12.5 2.6,0.3 5.2,0.6 7.7,0.9 77.9,-19.1 369.6,-88.7 797.9,-168.3 8.7,-177.3 37.6,-356.8 108.9,-469"
         style="fill:#9e321d;fill-opacity:1;fill-rule:nonzero;stroke:none"
         id="path960" />
      <path
         d="m 22153.7,7680.3 c -1846.2,0 -3613,433.8 -3758.2,470.3 -2117.8,367.6 -3985.7,49.9 -4004.4,46.6 l -163.3,-28.5 -456.5,3458.8 15.9,39.1 c 269.1,659.7 711,1099.5 1277.9,1271.6 331,100.6 633.3,143.3 924.2,130.5 87.7,-3.9 155.7,-78.2 151.8,-165.9 -3.8,-87.7 -76.8,-154.8 -165.8,-151.8 -254.7,11.2 -521.8,-27.1 -817.8,-117 -577.4,-175.3 -893.6,-659 -1059.8,-1049.1 l 402.4,-3049.3 c 508.7,71.2 2120.8,246.7 3955.8,-72.8 l 11.7,-2.5 c 26.2,-6.6 2583.4,-645.2 4732,-407.9 v 2895.8 c 0,87.7 71.2,158.9 158.9,158.9 87.9,0 159,-71.2 159,-158.9 V 7771.6 l -138.5,-17.9 c -401,-52 -815.2,-73.4 -1225.3,-73.4"
         style="fill:#650000;fill-opacity:1;fill-rule:nonzero;stroke:none"
         id="path962" />
      <path
         d="m 24867,10403.7 c -287.2,721.1 -1136.9,1164.8 -1843.1,1095.9 -620.7,-60.6 -1136.1,-666.2 -1135.3,-1275.2 l 588.6,-2866.6 c 2526.2,-176.7 3323.1,1631.1 3494.4,2124.1 759.4,2186.3 55.7,5841.8 -2736.5,8722.8 h -6891.4 l 8523.3,-7801"
         style="fill:#b17e4f;fill-opacity:1;fill-rule:nonzero;stroke:none"
         id="path964" />
      <path
         d="m 24867,10403.7 c -287.2,721.1 -1136.9,1164.8 -1843.1,1095.9 -620.7,-60.6 -1136.1,-666.2 -1135.3,-1275.2 l 588.6,-2866.6 c 2526.2,-176.7 3323.1,1631.1 3494.4,2124.1 759.4,2186.3 55.7,5841.8 -2736.5,8722.8 h -6891.4 l 8523.3,-7801"
         style="fill:#b74729;fill-opacity:1;fill-rule:nonzero;stroke:none"
         id="path966" />
      <path
         d="m 14210.3,8346.2 c 0,0 1177.5,-63.7 992,1270.9 -13.5,97.3 -1.9,196.6 33,288.5 130.1,342.3 416.1,1197.6 148.6,1486.5 -329.2,355.6 -598.6,-47.1 -662.1,-152.8 -3.9,-6.3 -13.5,-3.7 -13.6,3.7 -3.1,126.6 -40.2,659.5 -445.7,745.1 -410.8,86.7 -457.6,-418.3 -463,-529.1 -0.3,-6.8 -9,-9.4 -13.2,-3.9 -64.7,85.2 -371.2,449.8 -712,211.2 -288.9,-202.2 -148.1,-591.7 -100.5,-701.8 3.1,-7.1 -5.3,-13.5 -11.3,-8.6 -88.2,70.9 -392.6,286.5 -625.1,94.9 -274.8,-226.4 74.4,-1345.9 437.1,-1818.1 362.8,-472.2 715.8,-840.5 1435.8,-886.5"
         style="fill:#f9d6b6;fill-opacity:1;fill-rule:nonzero;stroke:none"
         id="path968" />
      <path
         d="m 13298.9,9641.2 c 133,-398.7 478.8,-642.6 772.3,-544.7 293.5,98 423.6,500.6 290.6,899.3 -133,398.7 -478.8,642.5 -772.3,544.6 -293.5,-97.9 -423.6,-500.5 -290.6,-899.2"
         style="fill:#f28475;fill-opacity:1;fill-rule:nonzero;stroke:none"
         id="path970" />
      <path
         d="m 12930.6,10912.8 c -46.4,42.8 -125,76.5 -197.7,91.4 -73.6,15.8 -146.3,15.1 -198.7,-3.6 -51.3,-18.7 -92,-50 -113.8,-97.4 -24.9,-50.8 -35.9,-128.9 -34.7,-209.6 2.6,-164 43.6,-341.5 98.2,-512.1 55.5,-171.4 127,-340 210.7,-499.9 41.9,-79.9 87.2,-157.7 135.9,-231.2 24.3,-36.7 49.7,-72.1 75.8,-105.8 l 85.9,-108.6 c 116,-143.5 235.8,-277.8 369.2,-386.6 132.4,-110.5 279.9,-191.9 439.4,-245.9 80.7,-24.8 162.7,-47 248.5,-58.2 42.3,-7.8 85.5,-11.4 128.6,-15 l 32.3,-2.9 c 5.6,-0.5 11.6,-1 11.6,-1 l 12.7,-0.2 c 18.6,0 38.7,0.4 58.9,1.9 162.2,11.1 324.5,57.6 448.9,142.5 125.6,84.1 214.1,206.8 259.3,357.7 46.4,150.2 52.7,322.3 35.1,496 l -6.7,65.4 c -3.5,28 -6.4,60.9 -6.7,91.2 -0.9,61.9 5.9,123.7 19.9,183.6 7,30 15.8,59.5 26.3,88.3 l 26,68.2 c 16.3,43.2 32.1,86.6 47.4,130.2 60.5,174.3 113.4,351.3 149.2,527.4 18.1,88 31,175.7 37,260.9 5.6,84.7 3.2,167.9 -12.5,236.4 -8.1,33.7 -19.4,62.9 -32.7,84.6 -3.2,5.5 -6.3,11.1 -10.3,15 -3.6,4.4 -6,8.7 -13.2,15.7 -12,13.4 -24.4,24.3 -36.5,35.2 -24.4,20 -47.6,35 -69.3,42.4 -21.6,8.1 -42.4,11 -68,9.5 -51,-4.5 -118.6,-38.5 -180.3,-89.3 -61.1,-50.1 -121.3,-117.4 -163.1,-182.2 l -6.5,-10.1 c -21.6,-33.4 -66.1,-43 -99.4,-21.4 -23.7,15.2 -35.4,42.2 -32.6,68.4 13.3,118.1 60.4,214.2 125.5,305.6 65.8,89 157.6,175.1 293.7,213.8 67.6,18.3 144.6,18.9 214.7,1.1 70.4,-17.9 131.2,-52 181.4,-90.7 24.3,-19.7 47.9,-40.1 68.6,-61.4 10.2,-9.3 22.3,-23.9 33.8,-37.9 12.1,-13.9 21.7,-28.4 31,-43.2 37.6,-58.9 60.1,-120 75.2,-178.4 28.6,-117.3 30.6,-226.6 26.1,-331.7 -5.7,-105 -19.3,-206.2 -37.8,-305.1 -36.9,-197.9 -90.6,-387.6 -151.9,-574.1 -15.4,-46.6 -31.3,-92.9 -47.9,-139.1 l -23.8,-65.7 c -5.5,-16 -10.1,-32.3 -13.6,-48.8 -7.1,-32.9 -10.1,-66.6 -9,-99.9 0.5,-17.3 2.1,-31.8 4.7,-51.1 l 9.2,-76.6 c 23.3,-203.8 19.5,-420.6 -44.6,-635.9 -32,-107 -81.1,-212.9 -148.9,-307.5 -67.6,-94.9 -153.2,-177.2 -248.1,-242 -94.8,-65.5 -198.6,-112.2 -303.7,-145.7 -105.5,-33.4 -212.5,-52.8 -321.7,-60.8 -27.3,-2.1 -54.9,-3 -83.9,-3.2 l -23,0.3 c -11.8,0.2 -17.7,1.1 -23.9,1.6 l -38.8,3.8 c -51.8,4.7 -103.5,9.8 -154.9,19.4 -103.1,14.7 -205.6,42.5 -306.4,75 -200.7,69.1 -391,177.8 -549.6,313 -160.9,133.9 -293.8,287.5 -415.8,441 -30.8,38.8 -59.6,76.3 -89.9,116.4 -31.4,42.3 -60.6,85 -88,128.3 -54.8,86.4 -103.6,174.5 -148.4,264.2 -89.2,179.4 -163.3,364.4 -221.4,556.6 -56.5,192.7 -101.4,391.2 -101.3,608.9 2.2,108.6 13.1,225.4 72.8,346.5 60.8,125.2 185.5,221 319.2,246.7 133.7,26.6 258.7,-4.3 360.5,-60.2 50.7,-29.4 98,-63.4 137.3,-108.3 39.2,-43.5 74.5,-97.1 84.6,-166.1 4.8,-33.2 -18.2,-64 -51.4,-68.8 -18.7,-2.7 -36.6,3.4 -49.6,15.3 l -15.1,13.8"
         style="fill:#650000;fill-opacity:1;fill-rule:nonzero;stroke:none"
         id="path972" />
      <path
         d="m 13767.8,11230.9 c -35.2,138 -129,257.6 -243.1,319.8 -56.6,31.3 -117.3,47.5 -172.5,46.6 -55.6,-0.7 -104.8,-17.7 -148.3,-47 -11.1,-7.2 -21,-16.3 -32.2,-23.8 -10.5,-5.5 -20.6,-8.9 -30.2,-14.8 -19.1,-11 -36.9,-25.9 -52.9,-46.1 -32.3,-40.1 -55,-101.8 -64.5,-170.4 -9.7,-68.7 -7.9,-143.8 3.4,-217.9 5.6,-37.1 13.6,-74.2 24.3,-109.9 10.7,-35.6 25.5,-69.1 35.1,-101.9 l 2.7,-9.4 c 7.7,-26.2 -7.3,-53.6 -33.4,-61.2 -14.4,-4.3 -29.4,-1.5 -41.1,6.2 -44.1,29.2 -68.3,68.8 -92.3,107 -23.4,38.7 -43.4,78.7 -61,120.1 -34.9,82.7 -60.7,170.5 -71.8,265.6 -10.5,94.4 -6.9,199.1 35.1,305.6 20.9,52.7 52.3,104.7 92.7,149.8 20.2,22.3 42.7,43.7 66,61.3 23.1,14.9 48.4,26.3 74.1,37.2 103.3,43.1 221.7,55.9 328.7,34.7 107.5,-20.4 202.1,-70.1 278.7,-133.5 153.3,-127.3 242.4,-310 255.8,-495.6 3,-42.8 -29.1,-79.9 -71.9,-83 -38.1,-2.7 -71.7,22.5 -80.7,58.2 l -0.7,2.4"
         style="fill:#650000;fill-opacity:1;fill-rule:nonzero;stroke:none"
         id="path974" />
      <path
         d="m 14611.2,11213.4 c 1.8,60.8 -5.3,131.3 -22.8,197.5 -17.6,66.5 -44.8,130.6 -79,185.3 -33.8,54.8 -74.8,99.8 -112.8,127.9 -39.6,27.7 -69.9,37.5 -105.8,40.1 -4.4,0.9 -9.2,0.8 -14.1,0.7 -4.7,0 -9.4,0.3 -16.5,-0.3 -13.2,0 -25.4,-1.8 -37.5,-2.8 -23.9,-3.1 -45.6,-7.6 -66.4,-13.8 -41.4,-12 -81.4,-34.4 -121.4,-74.5 -39.3,-39.9 -72.6,-97.1 -94.5,-160.6 -21.5,-63.2 -30.2,-134.4 -35.4,-197.7 l -0.9,-10.9 c -2.9,-34.9 -33.5,-60.9 -68.5,-58.1 -23,1.9 -42.1,15.9 -51.7,35.2 -43.1,87.1 -47.4,173.9 -46.5,263.1 2.1,89 16.6,182 57.4,274.7 39.4,92.4 115.3,182 214.3,236 49,27 101.9,44.9 154.2,55.2 26.1,5.1 52.1,8.1 77.7,9.6 12.2,1.4 26.8,1.3 41.4,0.9 14.5,-0.1 28.9,-0.6 43.8,-2.6 118.7,-10.9 234.1,-76 303.4,-157.8 72.1,-81.3 110.3,-172.8 134.9,-260.7 24.3,-88.6 33.8,-176.1 35.5,-263 0.4,-86.9 -3.7,-173.8 -39.2,-263.5 -15.8,-39.9 -60.9,-59.4 -100.8,-43.6 -31.2,12.3 -49.9,42.6 -49.1,74.3 l 0.3,9.4"
         style="fill:#650000;fill-opacity:1;fill-rule:nonzero;stroke:none"
         id="path976" />
      <path
         d="m 22821.2,7186.5 c -114.7,0 -232.8,4.1 -355.1,12.7 l -120.4,8.4 -616.1,3000.5 v 16.1 c -0.9,709.4 584.8,1365.8 1278.9,1433.6 86.9,8.2 165.1,-55.3 173.7,-142.8 8.5,-87.4 -55.4,-165.1 -142.8,-173.7 -524,-51.1 -983.7,-563.6 -991.7,-1101.3 l 560.7,-2730.5 c 2291.2,-105.5 3037,1517.8 3213,2024.6 384.8,1107.6 370.7,2530.4 -39.4,4006.1 -455.3,1638.3 -1358.7,3194.8 -2614.5,4505.5 h -6823.8 c -87.8,0 -159,71.2 -159,159 0,87.8 71.2,159 159,159 h 6958.8 l 46.8,-48.4 c 1316.8,-1358.7 2264,-2980.4 2739.1,-4690 427.3,-1537.4 439.1,-3027.4 33.4,-4195.5 -188.5,-542.7 -968.4,-2243.1 -3300.6,-2243.3"
         style="fill:#650000;fill-opacity:1;fill-rule:nonzero;stroke:none"
         id="path978" />
      <path
         d="m 16705.4,12775.2 c 0,-1719.6 1119.9,-3113.6 2501.4,-3113.6 1381.4,0 2501.3,1394 2501.3,3113.6 0,1719.6 -1119.9,3113.6 -2501.3,3113.6 -1381.5,0 -2501.4,-1394 -2501.4,-3113.6"
         style="fill:#ffca9f;fill-opacity:1;fill-rule:nonzero;stroke:none"
         id="path980" />
      <path
         d="m 20132.1,9007.3 c 1455.8,-151.3 3462.5,2344.3 3462.5,3431.7 L 20132.1,9007.3"
         style="fill:#b17e4f;fill-opacity:1;fill-rule:nonzero;stroke:none"
         id="path982" />
      <path
         d="m 16402.9,16347.4 c 71.1,-293.5 77.2,-584.2 63.8,-873.5 -8.3,-144.7 -25.8,-288.6 -40.4,-432.8 l -38.5,-433.1 c -26.3,-288.9 -56.2,-577.8 -92.6,-867.2 l -29.7,-217.2 -34.6,-217.7 c -11,-72.5 -27.9,-146.1 -41.6,-219 -14,-72.9 -36.5,-148.5 -54.6,-222.6 -20.8,-85.1 -106.7,-137.3 -191.9,-116.5 -84.7,20.8 -136.8,105.9 -116.8,190.7 l 4,16.9 c 15.7,66.2 35.2,129.1 48.3,197.9 12.8,69 28.5,136.1 39.2,206.4 l 33.3,209.9 29,211.9 c 35.6,283.5 65.3,568.9 91.3,855 12.1,143.2 26.1,286.2 33.7,429.9 8.6,143.5 11.5,287.5 23.8,430.9 26.3,286.6 67.8,572.2 168.5,855.3 l 0.1,0.3 c 10.2,28.8 41.8,43.8 70.5,33.6 18.2,-6.5 30.9,-21.7 35.2,-39.1"
         style="fill:#650000;fill-opacity:1;fill-rule:nonzero;stroke:none"
         id="path984" />
      <path
         d="m 22082.4,15703.2 c 0,0 310.3,-3550 -3159.9,-4545.2 0,0 -128.1,-2011.7 1209.6,-2150.7 1455.8,-151.3 3462.5,2344.3 3462.5,3431.7 l -1512.2,3264.2"
         style="fill:#b74729;fill-opacity:1;fill-rule:nonzero;stroke:none"
         id="path986" />
      <path
         d="m 19795.8,11124.6 c -70,37.9 -139.3,71.4 -207.4,101.2 272.7,116.6 535.8,257.8 782.2,426.6 429.3,293.7 803.3,671.3 1091.2,1105 288.5,434.2 490.3,918.4 629.9,1415.9 68.7,249.5 113.1,505.5 128.4,763.2 8.5,128.8 8.5,258.2 -4.6,387.2 -4,42.1 -9,84 -15.5,125.8 l 34.4,-74.2 c 18.4,-305.4 112.3,-3075.6 -2438.6,-4250.7"
         style="fill:#d08774;fill-opacity:1;fill-rule:nonzero;stroke:none"
         id="path988" />
      <path
         d="m 20241.4,9161 c -12.2,0 -24.4,0.2 -36.6,0.7 54.2,103.5 156.4,176.2 274.2,188.7 104.8,11.1 219.9,50.4 306.9,132.9 v 0 0 c 41.2,39.2 83.6,121.5 103.6,226.2 242.4,55.9 491.8,166.7 738.3,316.7 -14.9,-72.6 -18.9,-154.7 -15,-242 -49,-38.3 -98.7,-75.6 -148.9,-111.9 -278.9,-200.2 -580.1,-375.7 -894.8,-463.1 -110.3,-30.5 -219.9,-48.2 -327.7,-48.2"
         style="fill:#9e321d;fill-opacity:1;fill-rule:nonzero;stroke:none"
         id="path990" />
      <path
         d="m 22135.3,15707.8 c 46.1,-127.3 68,-254.9 80.2,-384.1 13.1,-129 13.1,-258.4 4.6,-387.2 -15.3,-257.7 -59.7,-513.7 -128.4,-763.2 -139.6,-497.5 -341.4,-981.7 -629.9,-1415.9 -287.9,-433.7 -661.9,-811.3 -1091.2,-1105 -429.7,-294.3 -910,-504.8 -1404.3,-647.2 l 114.8,142.7 c -4,-78.2 -3.6,-167.5 -0.8,-251.8 3,-85.5 8.7,-171 17.5,-255.9 17.6,-169.9 46.5,-338 91,-499.7 87.4,-321.6 243.1,-626.6 492.6,-803.8 123.4,-88.8 268.1,-144 423,-165.6 151.2,-22.8 307.3,-5.5 464.7,38.1 314.7,87.4 615.9,262.9 894.8,463.1 279.7,202 540.3,435.2 783.8,684.8 243.4,249.9 470.2,517.3 676.4,798.6 103.2,140.6 201,284.9 292.1,432.6 92.4,147 173.3,300.5 242.1,457.3 68.2,156.8 133.6,312.8 190.6,468.2 57,157 109.6,305.8 148.9,477.1 l 0.8,3.5 c 6.9,30.2 37,49 67.2,42.1 16,-3.7 28.9,-14.1 36.4,-27.4 49.6,-89.4 69.1,-190.9 75.4,-289.3 5.2,-98.9 -4.4,-196.5 -23.4,-290.5 -37.8,-188.5 -108.9,-363.6 -193.9,-528.4 -173.4,-327.6 -362.8,-640 -579.8,-933.1 -215.3,-293.9 -451,-571.7 -705,-832.6 -254.4,-260.6 -527,-505 -825.5,-720.8 -299,-213.5 -622.7,-406.9 -997.1,-511.9 -93.5,-25.5 -190.1,-45.3 -290.1,-54 -98.8,-9.3 -204.9,-6.6 -303.5,7.8 -198,27.2 -396.7,101.7 -562.8,221.7 -167.5,118.6 -298.5,277.7 -397,446.3 -98.7,169.6 -167.2,350 -217.3,531.9 -50.1,182.2 -81.6,366.7 -100.7,551.4 -9.6,92.4 -15.8,184.9 -19,277.6 -2.9,93.9 -3.8,183 1.3,282.9 l 5.6,111.3 109.2,31.4 c 467,134.6 915,331.8 1312.2,603.9 397,271.8 740.2,618.4 1006.3,1018.9 132.6,200.5 247.8,413 343.6,634.5 94.4,222.2 169.2,453.1 223.6,688.8 54.9,235.7 99.1,473.6 136.7,713.7 18.1,120.1 35.9,240.5 57.4,361.7 20.2,120.8 42.5,244 71.2,366.3 l 0.8,3.1 c 6.9,29.5 36.4,47.8 65.8,40.9 18.6,-4.4 32.9,-18.1 39.1,-34.8"
         style="fill:#650000;fill-opacity:1;fill-rule:nonzero;stroke:none"
         id="path992" />
      <path
         d="m 18456,6433.7 3269.8,1271.6 v 475.4 l -6450.5,579.9 -1869.6,-1742 5050.3,-584.9"
         style="fill:#b5b5b5;fill-opacity:1;fill-rule:nonzero;stroke:none"
         id="path994" />
      <path
         d="m 17877.9,7335.1 1717,580.3 c 46,15.5 37.7,83 -10.8,86.9 l -2396,189.6 -698.5,-888.1 1388.3,31.3"
         style="fill:#ffffff;fill-opacity:1;fill-rule:nonzero;stroke:none"
         id="path996" />
      <path
         d="m 18564.3,6475.9 3110.8,1209.7 c 30.5,11.9 50.7,41.3 50.7,74.1 v 314.1 c 0,53.3 -51.4,91.5 -102.4,76.2 l -3110.7,-933.7 c -33.6,-10 -56.7,-41 -56.7,-76.1 V 6550 c 0,-56 56.2,-94.4 108.3,-74.1"
         style="fill:#b5b5b5;fill-opacity:1;fill-rule:nonzero;stroke:none"
         id="path998" />
      <path
         d="m 18581,6652.9 v 203.8 l 2985.8,996.6 v -39.2 L 18581,6652.9"
         style="fill:#9d7e7e;fill-opacity:1;fill-rule:nonzero;stroke:none"
         id="path1000" />
      <path
         d="m 13766,7136.9 4669.1,-540.7 3131.7,1217.9 v 221.2 l -6235.1,560.6 -1565.7,-1459 m 4710.9,-865.6 -39.2,4.5 -5392.2,624.4 2173.4,2025.1 6665.9,-599.3 V 7596.6 L 18476.9,6271.3"
         style="fill:#650000;fill-opacity:1;fill-rule:nonzero;stroke:none"
         id="path1002" />
      <path
         d="M 18216.9,7225.1 9491.33,8234.7 c -61.2,7.2 -112.48,48.5 -132.36,107 l -176.08,517.5 -395.1,1160.6 -1729.05,5076.3 c -37.77,110.5 52.87,222.6 168.53,209.1 l 7995.83,-924.9 85,-10 644.7,-74.7 c 61.3,-7.2 112.5,-48.5 132.4,-106.9 l 2300.2,-6754.5 c 37.8,-110.5 -52.8,-222.6 -168.5,-209.1"
         style="fill:#b5b5b5;fill-opacity:1;fill-rule:nonzero;stroke:none"
         id="path1004" />
      <path
         d="m 8787.79,10019.8 v 0 l -1729.05,5076.3 c -5.92,17.3 -8.68,34.7 -8.69,51.6 -0.04,85 69.58,158.6 158.26,158.6 6.24,0 12.55,-0.4 18.96,-1.1 l 7995.83,-924.9 c -118.2,-86.6 -478.2,-120.4 -978.2,-120.4 -1723.7,0 -5114.3,402.2 -6023.52,436.3 -4.25,0.2 -8.56,0.3 -12.71,0.3 -940.2,0 806.67,-4029.6 579.12,-4676.7"
         style="fill:#cfcfcf;fill-opacity:1;fill-rule:nonzero;stroke:none"
         id="path1006" />
      <path
         d="M 18242,7224.1 9546.55,8231.6 c -3.13,0.4 -6.22,0.6 -9.29,0.6 -4.6,0 -9.12,-0.4 -13.53,-1.2 l -32.4,3.7 c -61.2,7.2 -112.48,48.5 -132.36,107 l -176.08,517.5 c 730.41,-135.1 2089.51,-384 3388.31,-384 1215.3,0 2377.9,217.9 2923.2,950.9 998.4,1341.9 46.4,4085.9 -186.3,4944.2 l 644.7,-74.7 c 61.3,-7.2 112.5,-48.5 132.4,-106.9 l 2300.2,-6754.5 c 6,-17.3 8.7,-34.7 8.7,-51.6 0.1,-83 -66.4,-155.2 -152.1,-158.5"
         style="fill:#9d7e7e;fill-opacity:1;fill-rule:nonzero;stroke:none"
         id="path1008" />
      <path
         d="m 7209.19,15147.3 2300.19,-6754.5 8726.32,-1009.7 -2301,6754.5 z M 18235.6,7065 c -12.3,0 -24.8,0.8 -37.2,2.2 L 9472.96,8076.8 c -121.44,14.1 -225.25,97.9 -264.6,213.6 l -2300.24,6754.5 c -35.31,104 -15.19,216.9 53.71,302.2 68.94,85.4 174.95,128.4 283.93,116.1 l 8725.44,-1009.6 c 121.4,-14 225.3,-97.9 264.6,-213.7 L 18536,7485.5 c 35.3,-104 15.2,-216.9 -53.7,-302.2 -61,-75.6 -151.2,-118.3 -246.7,-118.3"
         style="fill:#650000;fill-opacity:1;fill-rule:nonzero;stroke:none"
         id="path1010" />
      <path
         d="m 18581,7106.4 v -490 l 3019.8,1174.5 v 221.8 L 18581,7106.4 m -61.8,-514 -0.1,-0.1 0.1,0.1 m 45.2,-116.6 h 0.4 -0.4 m -28.8,-130.4 c -40.7,0 -81.1,12.1 -115.6,35.8 -55.7,38.1 -89,101.2 -89,168.8 v 590.2 c 0,91 58.6,169.7 145.6,195.8 l 3110.9,933.7 c 62.5,18.7 128.5,7.2 180.9,-31.8 52.4,-39.1 82.4,-98.8 82.4,-164.1 v -314.1 c 0,-83.7 -52.4,-160.2 -130.4,-190.5 L 18609.6,6359.3 c -23.9,-9.3 -49,-13.9 -74,-13.9"
         style="fill:#650000;fill-opacity:1;fill-rule:nonzero;stroke:none"
         id="path1012" />
      <path
         d="M 9546.55,8231.6 18385.7,7207.5 c 40.1,-4.7 70.3,-38.6 70.3,-79 V 6523 c 0,-47.6 -41.4,-84.5 -88.6,-79 L 9528.26,7468.1 c -40.09,4.7 -70.35,38.6 -70.35,79 v 605.6 c 0,47.5 41.42,84.4 88.64,78.9"
         style="fill:#b5b5b5;fill-opacity:1;fill-rule:nonzero;stroke:none"
         id="path1014" />
      <path
         d="m 18408.3,6450.1 c 27.9,12.1 47.7,40 47.7,72.9 v 330.8 c 0.1,1.7 0.2,3.5 0.2,5.3 v -336.3 c 0,-32.8 -20,-60.6 -47.9,-72.7"
         style="fill:#650000;fill-opacity:1;fill-rule:nonzero;stroke:none"
         id="path1016" />
      <path
         d="M 13198.6,7042.8 9528.31,7468 c -30.13,3.6 -54.67,23.5 -65.03,50.4 10.39,-26.8 34.92,-46.8 64.98,-50.3 l 3670.34,-425.2 v -0.1"
         style="fill:#a2af56;fill-opacity:1;fill-rule:nonzero;stroke:none"
         id="path1018" />
      <path
         d="m 14826.5,6854.3 -1627.9,188.5 v 0.1 l 1627.9,-188.6"
         style="fill:#650000;fill-opacity:1;fill-rule:nonzero;stroke:none"
         id="path1020" />
      <path
         d="m 18376.9,6443.5 c -3.1,0 -6.2,0.2 -9.3,0.6 l -3541.1,410.2 -1627.9,188.6 -3670.34,425.2 c -30.06,3.5 -54.59,23.5 -64.98,50.3 -3.45,8.9 -5.33,18.6 -5.33,28.7 V 7883 c 0,-40.2 30.22,-74.4 70.36,-78.7 L 18367.6,6780 c 3.1,-0.4 6.2,-0.6 9.3,-0.6 41.3,0 76.4,32.4 79.1,74.4 V 6523 c 0,-32.9 -19.8,-60.8 -47.7,-72.9 -9.7,-4.2 -20.3,-6.6 -31.4,-6.6"
         style="fill:#9d7e7e;fill-opacity:1;fill-rule:nonzero;stroke:none"
         id="path1022" />
      <path
         d="m 9528.23,8073.6 h 0.34 z M 9616.9,7617.9 18297,6612.2 v 445.5 L 9616.9,8063.4 Z m 8759.6,-1333.4 c -9.1,0 -18.2,0.5 -27.4,1.5 L 9509.97,7310.2 c -120.31,13.9 -211.03,115.7 -211.03,236.9 v 605.5 c 0,68 29.1,132.9 79.83,178.1 50.68,45.2 117.92,66.4 186.08,58.9 L 18404,7365.4 c 120.3,-13.9 211,-115.7 211,-236.9 V 6523 c 0,-68 -29.1,-132.9 -79.8,-178.1 -43.9,-39.1 -100.6,-60.4 -158.7,-60.4"
         style="fill:#650000;fill-opacity:1;fill-rule:nonzero;stroke:none"
         id="path1024" />
      <path
         d="m 24867,10403.7 c -287.2,721.1 -1136.9,1164.8 -1843.1,1095.9 -620.7,-60.6 -1136.1,-666.2 -1135.3,-1275.2 l 588.6,-2866.6 c 2526.2,-176.7 3323.1,1631.1 3494.4,2124.1 l -1104.6,921.8"
         style="fill:#b74729;fill-opacity:1;fill-rule:nonzero;stroke:none"
         id="path1026" />
      <path
         d="m 22145.2,10600.6 c 60.7,155.5 156,301 275.4,420.7 106.6,107.1 234,192.1 370.7,247.2 l 51.5,20.1 c 17.3,6.2 35.2,9.9 52.8,15.1 17.6,4.6 35.1,10.5 52.9,14.2 l 53.9,8.7 c 34.9,7.8 74.2,8.3 112.4,11 17.6,1.8 35.3,2.4 53.2,2.4 20.7,0 41.6,-0.8 62.4,-1.4 311.5,-9.4 622.5,-118.1 896.3,-280.7 180.8,-107.6 348.1,-237.5 497,-394.9 -384.7,322.7 -888.4,509.7 -1356.4,509.7 -54.9,0 -109.2,-2.6 -162.8,-7.8 -381,-37.2 -726.5,-259 -959.3,-564.3"
         style="fill:#d08774;fill-opacity:1;fill-rule:nonzero;stroke:none"
         id="path1028" />
      <path
         d="m 24910.7,10367.3 -25.8,21.5 c 1.7,1.6 3.1,3.5 4.4,5.5 7.2,-8.9 14.3,-17.9 21.4,-27"
         style="fill:#d08774;fill-opacity:1;fill-rule:nonzero;stroke:none"
         id="path1030" />
      <path
         d="m 24911.1,10366.7 -26.3,22 0.1,0.1 25.8,-21.5 c 0.1,-0.2 0.2,-0.4 0.4,-0.6"
         style="fill:#d08774;fill-opacity:1;fill-rule:nonzero;stroke:none"
         id="path1032" />
      <path
         d="m 25840.7,9591.1 -149.3,124.7 c 170.9,272.2 268.2,514.2 316.3,652.5 12.2,35.1 24,70.5 35.4,106.3 -43,-310.9 -110.5,-606.7 -202.4,-883.5"
         style="fill:#9e321d;fill-opacity:1;fill-rule:nonzero;stroke:none"
         id="path1034" />
      <path
         d="m 25849.9,9583.5 -9.2,7.6 c 91.9,276.8 159.4,572.6 202.4,883.5 100.8,316.2 172.2,661.1 211.9,1028.2 16,-686.5 -65,-1321.2 -234.4,-1871.1 -16.4,5.4 -33,7.9 -49.4,7.9 -46.6,0 -91.2,-20.6 -121.3,-56.1"
         style="fill:#650000;fill-opacity:1;fill-rule:nonzero;stroke:none"
         id="path1036" />
      <path
         d="m 24063.4,7745.7 c 48.3,51.9 95.3,106.4 141.7,162.9 42.3,51.6 84.3,104.9 126.3,159.6 39.2,51 78.2,109.5 116.2,173.7 79.3,133.6 154.7,291.6 219,456.3 486.4,293.3 812.5,679.1 1024.7,1017.5 0,0 0.1,0 0.1,0.1 l 149.3,-124.7 9.2,-7.6 c -11.7,-13.7 -21.2,-29.7 -27.8,-47.6 l -0.7,-1.8 c -60.3,-162.4 -136.3,-321.8 -224.2,-473 -88.3,-151.1 -185.6,-296.9 -296.7,-431.4 -220.3,-270 -486.7,-499.6 -786.1,-672.4 -143.7,-83.6 -294.7,-153.9 -451,-211.6"
         style="fill:#9e321d;fill-opacity:1;fill-rule:nonzero;stroke:none"
         id="path1038" />
      <path
         d="m 24841.1,10393.3 c -195.6,285.6 -439.2,500.9 -714.4,664.6 -273.8,162.6 -584.8,271.3 -896.3,280.7 -38.7,1.1 -77.5,2.9 -115.6,-1 -38.2,-2.7 -77.5,-3.2 -112.4,-11 l -53.9,-8.7 c -17.8,-3.7 -35.3,-9.6 -52.9,-14.2 -17.6,-5.2 -35.5,-8.9 -52.8,-15.1 l -51.5,-20.1 c -136.7,-55.1 -264.1,-140.1 -370.7,-247.2 -213,-213.5 -349.2,-509 -349.4,-796.7 l -3.7,36.5 301.5,-1431.8 295.9,-1433 -174.3,152.6 c 353.6,-21.8 708.1,-11.6 1051.3,53 342.5,65.1 673.6,181.4 972.5,355.4 299.4,172.8 565.8,402.4 786.1,672.4 111.1,134.5 208.4,280.3 296.7,431.4 87.9,151.2 163.9,310.6 224.2,473 l 0.7,1.8 c 30.5,82.3 122,124.3 204.4,93.7 80.7,-29.9 122.5,-118.8 95.3,-199.8 -124.4,-368.6 -309.3,-711.9 -550.2,-1017 -239.7,-305.1 -535.1,-570 -870.2,-771.7 -333.9,-204.7 -708.4,-336.5 -1088.1,-411.5 -380.8,-74.2 -768.5,-88.5 -1149.5,-63 l -145.1,9.8 -29.2,142.8 -292.7,1433.7 -287.1,1434.7 -3.9,19.5 0.1,17.1 c 1.9,202 50.7,398.5 133.2,575.6 82.7,177.4 197.6,337 337.2,472 139.7,134.7 306.7,243.2 491.3,313.7 l 69.7,25.4 c 23.4,7.7 47.9,13 71.9,19.4 24.2,5.9 48,12.9 72.4,17.6 l 74.1,10.9 c 50,9 97.3,9.2 145.3,11.5 48,3.6 95.4,0.9 143,-1.3 189.8,-9.6 374.9,-48.4 551.2,-109 176.3,-60.5 344.8,-143.9 494.8,-253.6 150.3,-108.9 283.9,-241.4 389.4,-392.9 105,-151.2 182.5,-322 213.6,-499.5 2.7,-15.5 -7.7,-30.3 -23.2,-33 -11.4,-2 -22.3,3 -28.4,12 l -0.3,0.3"
         style="fill:#650000;fill-opacity:1;fill-rule:nonzero;stroke:none"
         id="path1040" />
      <path
         d="m 22895.5,7181.6 c 0,0 -1177.5,-63.8 -992,1270.8 13.5,97.4 1.9,196.7 -33,288.5 -130.1,342.3 -416.1,1197.7 -148.6,1486.6 329.2,355.6 598.5,-47.2 662.1,-152.8 3.9,-6.4 13.4,-3.7 13.6,3.7 3.1,126.5 40.1,659.4 445.7,745 410.8,86.7 457.6,-418.3 462.9,-529 0.4,-6.9 9.1,-9.5 13.3,-4 64.7,85.2 371.2,449.9 712,211.3 288.9,-202.2 148.1,-591.8 100.5,-701.9 -3.1,-7 5.3,-13.4 11.3,-8.6 88.2,70.9 392.6,286.6 625.1,95 274.8,-226.5 -74.4,-1346 -437.2,-1818.2 -362.8,-472.2 -715.7,-840.4 -1435.7,-886.4"
         style="fill:#ffca9f;fill-opacity:1;fill-rule:nonzero;stroke:none"
         id="path1042" />
      <path
         d="m 22284.6,7343.4 c -93.2,59.3 -181.5,140.2 -251.4,250.2 69.9,-110 158.1,-190.8 251.4,-250.1 v -0.1"
         style="fill:#a2af56;fill-opacity:1;fill-rule:nonzero;stroke:none"
         id="path1044" />
      <path
         d="m 22870.2,7180.9 c -81.9,0 -349.7,12.4 -585.6,162.5 v 0.1 c 235.9,-150 503.7,-162.4 585.7,-162.4 16.2,0 25.2,0.5 25.2,0.5 262.5,16.8 476.2,76.4 659.4,168.2 -183.2,-91.9 -397,-151.6 -659.6,-168.4 0,0 -8.9,-0.5 -25.1,-0.5"
         style="fill:#650000;fill-opacity:1;fill-rule:nonzero;stroke:none"
         id="path1046" />
      <path
         d="m 24205.1,7908.6 c 42.3,51.5 84.1,104.8 126.1,159.4 39.2,51.1 78.3,109.6 116.4,173.9 -38,-64.2 -77,-122.7 -116.2,-173.7 -42,-54.7 -84,-108 -126.3,-159.6"
         style="fill:#8d2314;fill-opacity:1;fill-rule:nonzero;stroke:none"
         id="path1048" />
      <path
         d="m 22870.3,7181.1 c -82,0 -349.8,12.4 -585.7,162.4 -93.3,59.3 -181.5,140.1 -251.4,250.1 -119.3,188.1 -184.9,461.5 -129.6,859 13.5,97.4 2,196.3 -33,288.2 -112.6,295.9 -75.5,581.9 -47.6,581.9 4.4,0 8.6,-7.1 11.9,-22.5 284.6,-1314.7 1040.5,-1413.1 1260.6,-1413.1 38.8,0 60.9,3 60.9,3 737,46.9 1145.6,382 1520.4,834.8 -66.6,-174.3 -145.7,-342.2 -229.2,-483 -38.1,-64.3 -77.2,-122.8 -116.4,-173.9 -42,-54.6 -83.8,-107.9 -126.1,-159.4 -190,-231.3 -389.1,-427.8 -650.2,-558.8 -183.2,-91.8 -396.9,-151.4 -659.4,-168.2 0,0 -9,-0.5 -25.2,-0.5"
         style="fill:#d08d6f;fill-opacity:1;fill-rule:nonzero;stroke:none"
         id="path1050" />
      <path
         d="m 24059.1,9787.9 c 10.1,69 45.4,122.6 84.6,166 39.3,44.9 86.6,79 137.3,108.4 101.8,55.8 226.8,86.7 360.6,60.2 133.6,-25.8 258.3,-121.6 319.1,-246.7 59.7,-121.1 70.6,-237.9 72.8,-346.5 0.1,-217.8 -44.8,-416.2 -101.4,-608.9 -58,-192.3 -132.1,-377.3 -221.3,-556.7 -44.8,-89.6 -93.6,-177.8 -148.4,-264.2 -27.4,-43.2 -56.6,-85.9 -88,-128.2 -30.3,-40.2 -59.2,-77.6 -90,-116.4 -121.9,-153.5 -254.8,-307.1 -415.7,-441.1 -158.6,-135.1 -348.9,-243.9 -549.6,-312.9 -100.8,-32.6 -203.4,-60.3 -306.4,-75.1 -51.4,-9.6 -103.1,-14.6 -154.9,-19.3 l -38.8,-3.8 c -6.2,-0.5 -12.1,-1.4 -23.9,-1.6 l -23,-0.3 c -29,0.2 -56.6,1.1 -84,3.2 -109,8 -216.1,27.4 -321.6,60.8 -105.2,33.5 -208.9,80.2 -303.7,145.7 -94.9,64.7 -180.6,147.1 -248.1,241.9 -67.9,94.7 -116.9,200.5 -148.9,307.6 -64.1,215.3 -67.9,432.1 -44.6,635.9 l 9.2,76.6 c 2.7,19.2 4.1,33.7 4.7,51 1.1,33.4 -1.9,67.1 -9,100 -3.5,16.5 -8.1,32.7 -13.6,48.7 l -23.8,65.8 c -16.6,46.1 -32.5,92.5 -48,139.1 -61.2,186.5 -114.9,376.1 -151.8,574.1 -18.5,98.8 -32.2,200.1 -37.8,305 -4.6,105.2 -2.5,214.5 26.1,331.7 15.1,58.5 37.6,119.6 75.2,178.5 9.3,14.7 18.9,29.2 31,43.1 11.4,14 23.6,28.6 33.8,37.9 20.7,21.4 44.2,41.8 68.6,61.5 50.2,38.6 111,72.8 181.4,90.6 70.1,17.9 147.1,17.3 214.6,-1 136.2,-38.7 228,-124.8 293.7,-213.9 65.2,-91.3 112.3,-187.5 125.5,-305.6 4.4,-39.4 -24,-75 -63.4,-79.4 -28.1,-3.2 -54.1,10.2 -68.4,32.4 l -6.6,10.2 c -41.8,64.7 -102,132 -163.1,182.2 -61.7,50.7 -129.3,84.7 -180.3,89.2 -25.6,1.6 -46.4,-1.3 -68.1,-9.4 -21.6,-7.5 -44.8,-22.5 -69.3,-42.5 -12.1,-10.9 -24.4,-21.8 -36.4,-35.2 -7.3,-6.9 -9.6,-11.2 -13.3,-15.7 -3.9,-3.9 -7,-9.5 -10.2,-15 -13.3,-21.6 -24.6,-50.8 -32.7,-84.6 -15.7,-68.4 -18.1,-151.6 -12.5,-236.3 6,-85.2 18.9,-172.9 37,-261 35.8,-176.1 88.7,-353.1 149.2,-527.4 15.3,-43.6 31.1,-87 47.4,-130.2 l 25.9,-68.1 c 10.5,-28.9 19.4,-58.4 26.4,-88.4 14,-59.9 20.8,-121.6 19.8,-183.5 -0.3,-30.3 -3.1,-63.3 -6.7,-91.2 l -6.6,-65.4 c -17.6,-173.8 -11.3,-345.9 35.1,-496.1 45.2,-150.9 133.7,-273.6 259.2,-357.7 124.5,-84.9 286.8,-131.4 449,-142.4 20.2,-1.5 40.2,-1.9 58.9,-2 l 12.6,0.2 c 0,0 6.1,0.6 11.7,1 l 32.3,3 c 43.2,3.6 86.3,7.2 128.6,14.9 85.8,11.2 167.8,33.5 248.4,58.3 159.6,54 307.1,135.3 439.4,245.8 133.5,108.8 253.3,243.2 369.2,386.7 l 86,108.6 c 26.1,33.7 51.5,69.1 75.8,105.8 48.7,73.5 93.9,151.2 135.9,231.1 83.7,160 155.2,328.5 210.7,499.9 54.6,170.7 95.6,348.1 98.2,512.1 1.2,80.7 -9.8,158.8 -34.7,209.6 -21.8,47.4 -62.5,78.7 -113.8,97.5 -52.4,18.6 -125.2,19.4 -198.7,3.5 -72.7,-14.9 -151.3,-48.6 -197.7,-91.3 l -14.8,-13.7 c -24.7,-22.7 -63.1,-21.2 -85.8,3.5 -12.9,13.9 -17.9,32.5 -15.5,49.9"
         style="fill:#650000;fill-opacity:1;fill-rule:nonzero;stroke:none"
         id="path1052" />
      <path
         d="m 23184.7,10088.6 c 13.4,185.7 102.5,368.4 255.8,495.7 76.6,63.3 171.2,113 278.7,133.5 106.9,21.1 225.4,8.4 328.7,-34.7 25.6,-10.9 51,-22.4 74.1,-37.3 23.3,-17.5 45.8,-39 65.9,-61.3 40.5,-45 71.9,-97 92.8,-149.8 42,-106.4 45.6,-211.1 35.1,-305.6 -11.1,-95 -36.9,-182.8 -71.8,-265.5 -17.6,-41.4 -37.6,-81.4 -61,-120.2 -24,-38.2 -48.2,-77.7 -92.3,-106.9 -22.7,-15.1 -53.3,-8.9 -68.3,13.8 -8.3,12.5 -10.2,27.5 -6.3,40.9 l 2.8,9.7 c 9.6,32.8 24.4,66.2 35.1,101.9 10.7,35.6 18.7,72.7 24.3,109.8 11.3,74.2 13.1,149.3 3.4,218 -9.5,68.6 -32.2,130.3 -64.5,170.4 -16,20.2 -33.8,35.1 -52.9,46.1 -9.6,5.9 -19.8,9.3 -30.2,14.8 -11.2,7.4 -21.2,16.6 -32.2,23.8 -43.5,29.3 -92.8,46.3 -148.3,47 -55.3,0.9 -115.8,-15.4 -172.5,-46.6 -114.1,-62.2 -207.9,-181.9 -243.2,-319.9 l -0.6,-2.3 c -10.6,-41.6 -52.8,-66.6 -94.4,-56 -36.9,9.4 -60.8,44 -58.2,80.7"
         style="fill:#650000;fill-opacity:1;fill-rule:nonzero;stroke:none"
         id="path1054" />
      <path
         d="m 22345,10008.6 c -35.5,89.7 -39.6,176.7 -39.2,263.6 1.6,86.9 11.2,174.4 35.5,262.9 24.6,88 62.8,179.5 134.9,260.7 69.3,81.8 184.7,147 303.4,157.8 14.8,2 29.3,2.5 43.7,2.7 14.7,0.4 29.3,0.4 41.5,-0.9 25.5,-1.5 51.7,-4.5 77.7,-9.6 52.3,-10.3 105.2,-28.2 154.2,-55.3 99,-54 174.9,-143.6 214.2,-236 40.9,-92.7 55.4,-185.7 57.5,-274.7 0.8,-89.2 -3.4,-176 -46.5,-263 -15.5,-31.5 -53.6,-44.4 -85.1,-28.9 -20.6,10.3 -33.3,30.2 -35.1,51.7 l -0.9,11 c -5.2,63.3 -13.9,134.5 -35.5,197.7 -21.8,63.5 -55.1,120.7 -94.4,160.6 -40,40 -80,62.5 -121.4,74.4 -20.8,6.3 -42.5,10.8 -66.4,13.9 -12.1,0.9 -24.3,2.7 -37.5,2.8 -7.1,0.6 -11.8,0.3 -16.5,0.2 -4.9,0.1 -9.8,0.2 -14.1,-0.6 -35.9,-2.7 -66.2,-12.4 -105.9,-40.1 -37.9,-28.2 -78.9,-73.2 -112.8,-127.9 -34.1,-54.7 -61.2,-118.9 -79,-185.3 -17.4,-66.2 -24.6,-136.7 -22.8,-197.6 l 0.3,-9.2 c 1.3,-42.8 -32.4,-78.6 -75.3,-79.9 -33.5,-1 -62.8,19.6 -74.5,49"
         style="fill:#650000;fill-opacity:1;fill-rule:nonzero;stroke:none"
         id="path1056" />
      <path
         d="m 22413.8,8772 c -56.8,-397.8 170.3,-759.4 507.3,-807.5 337,-48.1 656.2,235.5 713,633.3 56.8,397.9 -170.4,759.4 -507.3,807.5 -337,48.1 -656.2,-235.4 -713,-633.3"
         style="fill:#f28475;fill-opacity:1;fill-rule:nonzero;stroke:none"
         id="path1058" />
      <path
         d="m 20785.9,9483.3 c -87,-82.5 -202.1,-121.8 -306.9,-132.9 -133.9,-14.2 -247.6,-106.1 -293.6,-232.7 -121.6,-335.2 -342.9,-732.2 -641.2,-679 -376.8,66.8 -240,1119.6 -239,1130.8 8.5,99.5 -175.2,-40.7 -401.3,-181 -256.2,-158.9 -566.8,-317.8 -713.5,-127.8 -203.5,263.1 383.2,1034.9 383.4,1044.4 1.1,58.3 -129.9,15.9 -290.4,-26.4 -227.6,-60.1 -514.5,-120.2 -567.6,106.9 -71.2,304.4 425.7,992.1 896.3,1043.8 319.6,35.4 1454.1,-125.8 2177.9,-1224.4 196.1,-297.7 92.9,-629.5 -4.1,-721.7"
         style="fill:#ffca9f;fill-opacity:1;fill-rule:nonzero;stroke:none"
         id="path1060" />
      <path
         d="m 20791,10203.5 c -0.3,0.5 -0.7,1 -1,1.5 0.3,-0.5 0.7,-1 1,-1.5"
         style="fill:#d08774;fill-opacity:1;fill-rule:nonzero;stroke:none"
         id="path1062" />
      <path
         d="m 20791,10203.5 c -0.3,0.5 -0.7,1 -1,1.5 v 0 0 0 c 0.3,-0.5 0.7,-1 1,-1.5 v 0"
         style="fill:#ffdcc1;fill-opacity:1;fill-rule:nonzero;stroke:none"
         id="path1064" />
      <path
         d="m 20785.8,10211.4 c -90,135.8 -186.3,257.3 -286.5,365.7 100.2,-108.4 196.5,-229.9 286.5,-365.7"
         style="fill:#d08774;fill-opacity:1;fill-rule:nonzero;stroke:none"
         id="path1066" />
      <path
         d="m 17723.6,10358.8 c -0.1,0.2 -0.2,0.5 -0.3,0.7 0.1,-0.2 0.2,-0.5 0.3,-0.7 m -0.3,0.9 c -2.9,8.2 -5.4,16.8 -7.5,25.9 -61.1,261 295.5,803.8 695.1,985.9 -399.6,-182.1 -756.2,-724.9 -695.1,-985.9 2.1,-9.1 4.6,-17.7 7.5,-25.9 m 890.3,1069.9 c 24.7,2.6 54.2,4.1 87.9,4.1 -33.7,0 -63.2,-1.5 -87.9,-4.1 m 121.6,3.7 c -0.1,0 -0.1,0 -0.2,0 0.1,0 0.1,0 0.2,0 m -4.8,0.1 c -0.8,0 -1.6,0 -2.3,0 0.7,0 1.5,0 2.3,0 m -4.7,0.1 c -1.9,0 -3.9,0.1 -5.8,0.1 1.9,0 3.9,-0.1 5.8,-0.1 m -19.1,0.2 c -1.7,0 -3.3,0 -4.9,0 v 0 c 1.6,0 3.2,0 4.9,0"
         style="fill:#ffdcc1;fill-opacity:1;fill-rule:nonzero;stroke:none"
         id="path1068" />
      <path
         d="m 20788.4,10207.4 c -29,44 -58.9,85.9 -89.2,126.9 1.4,-20.1 2,-39.9 1.7,-59.2 -643.1,697.1 -1449.2,858.6 -1799.3,858.6 -34.4,0 -64.5,-1.5 -89.5,-4.3 -407.7,-44.8 -834.9,-566.7 -895.5,-903.5 -89.8,8.6 -162,45.2 -193,132.9 -0.1,0.2 -0.2,0.5 -0.3,0.7 0,0.1 0,0.1 0,0.2 -2.9,8.2 -5.4,16.8 -7.5,25.9 -61.1,261 295.5,803.8 695.1,985.9 66.5,30.2 134.1,50.5 201.2,57.9 0.5,0 1,0.1 1.5,0.2 24.7,2.6 54.2,4.1 87.9,4.1 0.1,0 0.1,0 0.2,0 1.6,0 3.2,0 4.9,0 4.3,0 8.8,0 13.3,-0.1 1.9,0 3.9,-0.1 5.8,-0.1 0.8,0 1.6,0 2.4,-0.1 0.7,0 1.5,0 2.3,0 1.5,-0.1 3.1,-0.1 4.6,-0.1 0.1,0 0.1,0 0.2,0 365.7,-10 1141.2,-182.1 1764.1,-856.2 100.2,-108.4 196.5,-229.9 286.5,-365.7 0.8,-1.3 1.7,-2.6 2.6,-4"
         style="fill:#ffdcc1;fill-opacity:1;fill-rule:nonzero;stroke:none"
         id="path1070" />
      <path
         d="m 19810.6,8512.5 v 0 c 102.1,77.3 189.7,203.6 261.1,342 v 0 c -71.4,-138.4 -158.9,-264.7 -261.1,-342"
         style="fill:#8d2314;fill-opacity:1;fill-rule:nonzero;stroke:none"
         id="path1072" />
      <path
         d="m 20071.7,8854.5 v 0 c 29.7,57.7 56.6,117.4 80.5,176.6 -23.9,-59.2 -50.8,-118.9 -80.5,-176.6"
         style="fill:#650000;fill-opacity:1;fill-rule:nonzero;stroke:none"
         id="path1074" />
      <path
         d="m 19598.1,8433.9 v 0 c 76.5,0 147.4,29.4 212.5,78.6 v 0 c -65.1,-49.2 -136,-78.6 -212.5,-78.6"
         style="fill:#650000;fill-opacity:1;fill-rule:nonzero;stroke:none"
         id="path1076" />
      <path
         d="m 19598.1,8433.9 c -17.7,0 -35.6,1.6 -53.9,4.8 -161.1,28.5 -228.1,237.3 -252.2,467.7 16.3,-8 33.4,-14.4 52.2,-17.7 18.3,-3.2 36.2,-4.8 53.9,-4.8 271.1,0 473.2,369.1 587.3,683.8 45.9,126.6 159.7,218.5 293.6,232.7 104.8,11.1 219.9,50.5 306.9,132.9 55.5,52.7 112.5,183.7 115,341.8 47.9,-52 94.9,-107 140.8,-165 v 0 0 c -14.2,31.3 -30.5,62.5 -50.7,93.4 194.8,-297.3 91.8,-628.1 -5.1,-720.2 v 0 0 c -87,-82.4 -202.1,-121.8 -306.9,-132.9 -133.9,-14.2 -247.6,-106.1 -293.6,-232.7 -10.3,-28.5 -21.4,-57.5 -33.2,-86.6 -23.9,-59.2 -50.8,-118.9 -80.5,-176.6 -71.4,-138.4 -159,-264.7 -261.1,-342 -65.1,-49.2 -136,-78.6 -212.5,-78.6"
         style="fill:#d08d6f;fill-opacity:1;fill-rule:nonzero;stroke:none"
         id="path1078" />
      <path
         d="m 20790,10205 c -0.5,0.8 -1.1,1.6 -1.6,2.4 0.5,-0.8 1.1,-1.6 1.6,-2.4"
         style="fill:#9e321d;fill-opacity:1;fill-rule:nonzero;stroke:none"
         id="path1080" />
      <path
         d="m 20790,10205 c -0.5,0.8 -1.1,1.6 -1.6,2.4 v 0 c 0.5,-0.8 1.1,-1.6 1.6,-2.4 v 0"
         style="fill:#d08d6f;fill-opacity:1;fill-rule:nonzero;stroke:none"
         id="path1082" />
      <path
         d="m 20841.7,10110.1 c -45.9,58 -92.9,113 -140.8,165 0.3,19.3 -0.3,39.1 -1.7,59.2 30.3,-41 60.2,-82.9 89.2,-126.9 0.5,-0.8 1.1,-1.6 1.6,-2.4 v 0 c 0.3,-0.5 0.7,-1 1,-1.5 20.2,-30.9 36.5,-62.1 50.7,-93.4"
         style="fill:#d09a87;fill-opacity:1;fill-rule:nonzero;stroke:none"
         id="path1084" />
      <path
         d="m 18485.4,9187.4 c -0.6,0.2 -1.2,0.3 -1.8,0.5 133.7,32.3 284.7,116.5 420.3,200.6 72.9,45.2 141.4,90.4 200.4,127.6 17.8,-30 36.6,-59.8 56.5,-89 -204.1,-104.3 -468.1,-213.8 -675.4,-239.7"
         style="fill:#9e321d;fill-opacity:1;fill-rule:nonzero;stroke:none"
         id="path1086" />
      <path
         d="m 18477.7,9186.5 c 2,0.4 3.9,0.9 5.9,1.4 0.6,-0.2 1.2,-0.3 1.8,-0.5 -2.5,-0.3 -5.1,-0.6 -7.7,-0.9"
         style="fill:#8d2314;fill-opacity:1;fill-rule:nonzero;stroke:none"
         id="path1088" />
      <path
         d="m 19160.8,9427.1 c -19.9,29.2 -38.7,59 -56.5,89 81.1,51 144.4,86.9 176.9,86.9 17.3,0 26,-10.1 24,-33.5 -0.2,-1.7 -3.4,-26.7 -7.4,-68.3 -41,-23.5 -87.2,-48.7 -137,-74.1"
         style="fill:#650000;fill-opacity:1;fill-rule:nonzero;stroke:none"
         id="path1090" />
      <path
         d="m 18399.9,9181.7 c -91.8,0 -166.2,22.9 -209.5,79 -64.6,83.6 -49.5,218.4 1.2,363.9 314.5,12.1 1018.8,476.1 1180.3,476.1 23.1,0 35.1,-9.5 33.3,-31.2 -0.5,-5.4 -32.6,-254.3 -23.2,-517.5 -24.4,-15.6 -52.8,-32.7 -84.2,-50.8 4,41.6 7.2,66.6 7.4,68.3 2,23.4 -6.7,33.5 -24,33.5 -32.5,0 -95.8,-35.9 -176.9,-86.9 -59,-37.2 -127.5,-82.4 -200.4,-127.6 -135.6,-84.1 -286.6,-168.3 -420.3,-200.6 -2,-0.5 -3.9,-1 -5.9,-1.4 -27,-3.1 -53,-4.8 -77.8,-4.8"
         style="fill:#d08d6f;fill-opacity:1;fill-rule:nonzero;stroke:none"
         id="path1092" />
      <path
         d="m 20679.7,9595.3 c 2,2.5 12.2,15.6 20.4,31.5 8.6,16.4 16.3,35.7 23,56 13,41 21,86.1 22.2,131.1 1.5,45 -2.9,90 -12.1,133.7 -10.4,43.5 -26.4,85.4 -46.7,125.5 -5.4,9.9 -11.7,19.4 -17.3,29.2 -5.5,9.5 -11.3,19.4 -20,31.4 l -47.3,68.3 c -33,44.3 -65.2,89.5 -100.8,131.7 -69,86.3 -144.4,167.2 -223.8,243.4 -317.1,305.9 -716,525.5 -1141.1,633.3 -106.1,26.2 -214,46.1 -319.9,55.2 -52.7,4.5 -105.5,6.5 -153,4.3 -23.8,-0.6 -43.9,-4 -64.3,-7.2 -20.8,-4.5 -41.8,-9.9 -63.1,-17.1 -172.7,-59.4 -341.9,-205.1 -469.5,-369.8 -63.8,-82.9 -120.1,-173.1 -157.6,-263.7 -18.8,-44.8 -32.6,-90.2 -37.7,-128.9 -3.4,-19.7 -2.8,-36.1 -2.3,-49.5 1.1,-10.4 3.4,-24.1 6.2,-29.1 2.7,-5.8 3,-6.7 5.5,-10.6 2.9,-3.5 10.8,-8.8 24.7,-13.5 27.9,-10.4 74.6,-14.3 123.8,-11.9 100.4,5.6 211.4,27.6 327.5,55.6 29.6,6.3 59.4,14.2 93.3,20.3 17.1,3.1 34.8,6 56.8,7.7 11.4,0.6 22.9,1.3 38.8,0.2 15.3,-1.5 33.8,-2 64,-15.3 14.3,-6.6 32.5,-17.5 48.4,-35.8 15.7,-17.3 27.1,-41.1 31.5,-60.8 2.9,-11.4 3.1,-18.1 3.8,-27.1 -1.1,-14.4 3.6,14.3 -2.9,-35.5 -23.2,-61.6 -9.6,-22.7 -16.3,-38.9 l -8.9,-13.5 -25,-36.9 c -16,-23.8 -32.1,-47.3 -47,-71.7 -61.3,-96 -114.9,-196.3 -162.4,-296.8 -47.4,-100 -86.9,-203.4 -109.7,-298.4 -11.1,-46.8 -17,-92.6 -15,-124.1 0.8,-16 4.2,-27.2 6.7,-32.9 1.1,-3 1.8,-5.1 2.8,-6.3 0.8,-1.7 5.8,-7.5 8,-9.8 5.8,-6.1 10.6,-8.8 18.4,-12.3 7.6,-3.6 19.2,-6.7 34.9,-7.7 31.4,-1.7 76.3,4.1 122.8,17.4 94.1,26.5 194.7,74.8 293.7,127.9 100.3,53.3 196.5,114.5 302.9,178.2 27.3,15.8 55,31.5 91.1,47.3 19.5,7.5 36.1,17.3 79.3,22.4 6.1,0.4 11.2,0.8 18.1,0.8 8.1,-0.4 16.4,-1.2 24.5,-2.5 19.2,-3.8 42.2,-11.3 64.8,-30.1 21,-16.6 36.6,-43 42,-60 1.8,-4.8 3.3,-9.7 4.7,-14.6 l 2.1,-10.8 c 1.1,-6.9 2.1,-14.5 2.4,-20.9 0.2,-10.1 0.2,-20.2 -1,-30.3 l -1.2,-10.7 -2.1,-20.8 -3.9,-42.1 c -2.3,-28.2 -3.8,-56.5 -5.2,-84.8 -6,-113.1 -2.4,-226.5 5.5,-336.9 9,-110 26.2,-219 55.8,-312.2 14.4,-46 33.8,-87.7 53,-114.5 9.6,-13.3 18.9,-22.7 26,-27.4 7.5,-4.4 11.3,-6.6 17.3,-7.5 1.3,-0.5 11.6,-1.3 17.8,-2.1 6.9,0 13.6,-0.3 20.3,0.6 13.5,1.3 26.9,4.4 41.2,9.7 28.6,11.4 60.5,32.5 92.6,61.7 64.5,58.8 123.1,145.9 173.8,238 25.3,46.4 48.7,95.1 70.5,144.9 10.8,24.9 21.4,50.1 31.4,75.6 l 14.7,38.4 9.7,24.6 c 3.9,9.8 7.9,19.6 12.7,29 71.6,153 222.8,266.7 393.5,287.7 l 39.7,5 c 10.8,1.6 21.5,3.6 32,6 21,4.7 41.5,10.9 60.8,18.5 38.6,15.2 72.5,36.1 99.7,61.2 z m 212.5,-224 c -57.8,-55.4 -125.1,-96.8 -194.8,-125.6 -34.8,-14.4 -70.3,-25.8 -106.2,-34.5 -17.9,-4.3 -35.9,-8 -54,-11 l -47.1,-7 c -62.4,-8.7 -120.3,-53.6 -147.1,-112.9 -1.9,-3.5 -3.2,-7.4 -4.7,-11.2 l -2.3,-5.6 -3.9,-10.6 -16.2,-43.7 c -11,-29 -22.6,-58 -34.7,-86.8 -24.5,-57.5 -51.1,-114.7 -81.1,-171.2 -60.6,-112.7 -131.5,-224.7 -239.4,-324.9 -54,-49.7 -120.4,-95.5 -201.6,-125.1 -40.8,-14.3 -84.9,-23.7 -129.8,-26.5 -22.5,-1.6 -44.9,-0.9 -67.2,0.7 -22.8,2.7 -41.7,4.4 -68.8,11.2 -51.2,12.2 -100.1,38.3 -138.6,69.8 -38.7,31.7 -67.3,67.8 -89.9,103.1 -45.2,71.1 -66.6,140.7 -83.2,207.1 -30.7,133.1 -35.1,258.5 -35.1,381.9 0,123.3 10.4,243.9 20.9,364 l 9.4,90 4.9,45.1 2.7,22.7 1.4,11.1 c -0.3,-2.8 -0.7,-5.6 -0.2,-8.4 0.1,-2.7 0.3,-6.7 1.1,-10 l 1.3,-5.4 c 0.7,-3.2 1.6,-6.4 2.7,-9.5 3.4,-9.9 14.6,-30 30.1,-42.1 17.1,-13.9 32.9,-19.1 45.1,-21.2 4.5,-1 9.1,-1.4 13.7,-1.3 3.2,-0.1 4.6,-0.2 7,0.1 14,2.3 3,1 -4.2,-2.9 -17.3,-8 -40.6,-21.2 -63.5,-35.2 -93.7,-57.3 -190.5,-128.3 -290.7,-195.3 -101.4,-67 -206.6,-132.9 -333.7,-183.1 -63.9,-24.2 -134.4,-46.4 -220.2,-47.5 -42.7,-0.5 -89.7,4.8 -137.3,20.7 -47.3,15.7 -93.8,43.7 -130.3,78.2 -18.8,17.9 -33.4,33.9 -49.5,56.1 -16.4,22.2 -29.1,46.4 -39.1,70.4 -19.6,48.5 -26.5,95.7 -28.1,138.1 -3.2,85.5 13.7,156.1 33.5,221.7 41.4,130.2 102.4,239.6 165,345.5 63.4,105.5 133.2,204 202,302.3 l 51.7,73.1 25,35.2 c 1.7,2.4 3.9,5.7 3.4,4.7 -5.9,-14.5 8.9,25.8 -13.7,-34 -5.7,-48.2 -1.8,-17.6 -2.9,-30.2 0.3,-5.4 0.9,-8.3 2.5,-16.3 2.7,-12.6 10.9,-29.6 21.7,-41.5 11.2,-12.7 23.1,-19.5 30.7,-23.2 17,-7 20.7,-5.5 21.5,-6.1 1.3,0 -1.9,-0.2 -5,-0.5 -7.2,-0.7 -18.3,-2.6 -29.9,-5.1 -23.5,-5.1 -50.4,-11.6 -77.3,-20 -109.8,-31.6 -224,-76.3 -356.1,-99.2 -66.6,-10.8 -138.5,-19.2 -225.1,-4 -43,8.5 -90.4,25.1 -135.5,55.2 -45.2,29.9 -83.9,74.7 -107.3,121.3 -24.5,47 -35.3,91.2 -41.7,138.6 -4,44.8 -2.7,87.2 2.8,125.3 10.4,77.4 32.2,144.4 57.6,207.6 51.7,125.9 120.4,235.7 198.1,338.5 77.9,102.6 167.2,195.9 268.1,279.7 102,82.3 216.3,156.4 352.6,203.1 34.2,11.4 69.7,20.7 106.2,28.1 37.3,6.3 75.1,11.3 109.8,12.2 69.4,3 133.6,-0.2 197.3,-5.9 127.1,-11.5 249.7,-34.8 370.4,-65 481.1,-123.5 926.7,-374 1281.4,-719.3 88.7,-86 172.5,-177.1 249.1,-273.8 39.4,-47.5 75,-97.8 111.4,-147.5 l 52.1,-76.1 c 8.4,-11.7 17.7,-26.9 26.9,-42.6 9,-15.5 18.4,-30.7 26.8,-46.6 32.7,-64.1 58,-132.3 74.2,-202.7 14.9,-70.7 21.3,-142.8 18.4,-214.7 -2.9,-71.8 -15.2,-143 -38,-213.3 -11.6,-35.2 -25.7,-70.3 -44.4,-105.6 -19.6,-35.5 -41.7,-71.6 -81.1,-110.7"
         style="fill:#650000;fill-opacity:1;fill-rule:nonzero;stroke:none"
         id="path1094" />
      <path
         d="m 26550.7,24093 c 0,0 215.4,1261.8 1571.8,1263.1 1302.9,1.3 1889.8,-1263.1 1741.5,-2214.7 -155.8,-999.9 -679.3,-1532.4 -1461.3,-1777.7 -816.8,-256.2 -1668.1,-62.7 -1668.1,-62.7 l -183.9,2792"
         style="fill:#ffca9f;fill-opacity:1;fill-rule:nonzero;stroke:none"
         id="path1096" />
      <path
         d="m 29718.6,23619.9 c -185.9,725.5 -752.9,1386.2 -1694.1,1386.2 -0.6,0 -1.4,0 -2,0 -154.8,-0.1 -294.8,-16.7 -421.2,-45.9 1.7,52.6 2.8,105.4 3.2,157.9 147.8,49.4 319.3,78.9 518.2,79.1 h 1.8 c 467.2,0 868.6,-180.3 1160.9,-521.2 242.3,-282.7 395.9,-667.7 433.2,-1056.1"
         style="fill:#ffdfc5;fill-opacity:1;fill-rule:nonzero;stroke:none"
         id="path1098" />
      <path
         d="m 26550.7,23534.9 c 0,0 124.1,684.8 906.2,685.6 751.1,0.7 1089.4,-685.6 1004,-1202.2 -89.8,-542.6 -391.7,-831.7 -842.5,-964.8 -470.9,-139.1 -961.7,-34.1 -961.7,-34.1 l -106,1515.5"
         style="fill:#f28475;fill-opacity:1;fill-rule:nonzero;stroke:none"
         id="path1100" />
      <path
         d="m 27077.8,21822.3 c -254.9,0 -441.5,38.9 -454.4,41.6 -85.8,18.4 -140.5,102.9 -122.2,188.8 18.3,85.9 103.3,140.8 188.7,122.2 4.3,-0.9 458.9,-94.3 883.5,31 424.6,125.4 656.7,391.8 730.6,838.4 42.1,254.1 -36.8,535.5 -205.8,734.6 -109.4,128.9 -309.4,282.6 -640.1,282.6 h -1.1 c -624.1,-0.6 -739,-499.1 -750.1,-556 -16.6,-85.8 -99.9,-142.5 -185.5,-126.4 -85.9,16.1 -142.7,98.1 -127.2,184.1 51.2,282 339.1,815.6 1062.5,816.2 h 1.4 c 452.4,0 729.6,-214.6 882.6,-394.8 227.8,-268.3 333.9,-648.5 277,-992.2 -93.4,-564.8 -414.5,-932 -954.3,-1091.4 -204.6,-60.5 -411.1,-78.7 -585.6,-78.7"
         style="fill:#650000;fill-opacity:1;fill-rule:nonzero;stroke:none"
         id="path1102" />
      <path
         d="m 27464.8,21071.4 c -429.5,0 -743.8,69.6 -765.5,74.5 -85.6,19.5 -139.2,104.7 -119.8,190.3 19.5,85.6 104.6,139.4 190.3,119.8 8,-1.8 821.2,-180.3 1585.3,59.4 785.2,246.3 1214.7,770.7 1351.8,1650.4 81.6,523.5 -83.9,1116.3 -421.5,1510.2 -292.3,340.9 -693.7,521.2 -1160.9,521.2 h -1.8 c -1208.5,-1.2 -1407.4,-1084.8 -1415.3,-1131 -14.8,-86.5 -96.5,-144.7 -183.5,-130 -86.5,14.8 -144.7,97 -129.9,183.5 2.4,14 254.9,1394 1728.4,1395.4 h 2.1 c 563,0 1047.7,-218.5 1402.3,-632.2 401.6,-468.5 591,-1145.2 494.3,-1766 -155.7,-999.1 -669.5,-1622.2 -1570.8,-1904.9 -344.4,-108 -691.9,-140.6 -985.5,-140.6"
         style="fill:#650000;fill-opacity:1;fill-rule:nonzero;stroke:none"
         id="path1104" />
      <path
         d="m 13211.7,24093 c 0,0 -215.3,1261.8 -1571.8,1263.1 -1302.9,1.3 -1889.75,-1263.1 -1741.49,-2214.7 155.79,-999.9 679.29,-1532.4 1461.29,-1777.7 816.9,-256.2 1668.1,-62.7 1668.1,-62.7 l 183.9,2792"
         style="fill:#ffca9f;fill-opacity:1;fill-rule:nonzero;stroke:none"
         id="path1106" />
      <path
         d="m 10126.1,23066.1 c -28.6,55.3 -55.4,112.8 -80.3,172.5 -56.25,504.9 109.2,1061.6 431.3,1437.4 292.2,340.9 693.6,521.2 1160.8,521.2 h 1.9 c 227.6,-0.3 419.6,-39.4 581.2,-102.9 0.4,-38.8 1.3,-77.5 2.5,-116.3 -102.7,18 -213.7,28 -333.6,28.1 -0.7,0 -1.3,0 -2,0 -1179.3,0 -1771.3,-1037.6 -1761.8,-1940"
         style="fill:#ffdfc5;fill-opacity:1;fill-rule:nonzero;stroke:none"
         id="path1108" />
      <path
         d="m 12295.6,21390.1 c -266.8,0 -581.1,28.9 -888.3,125.3 -641.2,201.1 -1045.2,587.7 -1246.5,1201.8 -4.3,24.4 -8.5,49.1 -12.4,74.2 -13.9,89.2 -21.3,181.3 -22.3,274.7 281.8,-545.5 736.3,-878.4 1324.5,-1063 355.5,-111.6 716.9,-145.2 1023.2,-145.2 229.7,0 428.6,18.9 570.5,37.9 2.6,-4.1 5.1,-8.3 7.7,-12.4 -193.5,-84.1 -358.3,-228.9 -484.1,-427.1 -12.3,-19.3 -24,-38.9 -35.4,-58.8 -73.1,-4.6 -152.6,-7.4 -236.9,-7.4"
         style="fill:#d08d6f;fill-opacity:1;fill-rule:nonzero;stroke:none"
         id="path1110" />
      <path
         d="m 10160.8,22717.2 c -45.2,137.9 -80.2,287.3 -105.3,448.6 -3.8,24.1 -7,48.4 -9.7,72.8 24.9,-59.7 51.7,-117.2 80.3,-172.5 1,-93.4 8.4,-185.5 22.3,-274.7 3.9,-25.1 8.1,-49.8 12.4,-74.2"
         style="fill:#d09c8a;fill-opacity:1;fill-rule:nonzero;stroke:none"
         id="path1112" />
      <path
         d="m 27467.6,21390.4 c -60.4,0 -118.4,1.5 -173.3,4 -11.9,21.1 -24.4,41.9 -37.3,62.3 -102.2,161.1 -230.3,286.8 -378.6,373.4 59.3,-4.6 126.5,-7.8 199.4,-7.8 132.3,0 283,10.5 437.4,41.9 250.9,14.1 525.5,53.8 796.6,138.9 647.8,203.3 1133.5,586.4 1404.8,1235.5 -2.7,-24.4 -5.9,-48.6 -9.7,-72.8 -137.1,-879.7 -566.6,-1404.1 -1351.8,-1650.4 -306.3,-96.1 -620.5,-125 -887.5,-125"
         style="fill:#d08d6f;fill-opacity:1;fill-rule:nonzero;stroke:none"
         id="path1114" />
      <path
         d="m 27077.8,21822.3 c -72.9,0 -140.1,3.2 -199.4,7.8 -34,19.8 -69,37.6 -105.1,53.3 1,1.6 2.1,3.4 3.2,5.1 135.9,-16.3 312.3,-30.6 512.1,-30.6 72.7,0 148.5,1.9 226.6,6.3 -154.4,-31.4 -305.1,-41.9 -437.4,-41.9"
         style="fill:#650000;fill-opacity:1;fill-rule:nonzero;stroke:none"
         id="path1116" />
      <path
         d="m 27466.9,21231 c -31.5,0 -62.5,0.4 -92.7,1.1 -23.7,55.8 -50.2,110 -79.9,162.3 54.9,-2.5 112.9,-4 173.3,-4 267,0 581.2,28.9 887.5,125 785.2,246.3 1214.7,770.7 1351.8,1650.4 3.8,24.2 7,48.4 9.7,72.8 61.3,146.6 111.7,306.9 150.5,481.6 26.7,-196.7 25.9,-393.9 -3.1,-578.7 -155.8,-1000.1 -679.3,-1532.7 -1461.2,-1777.9 -325.1,-101.9 -655.7,-132.6 -935.9,-132.6"
         style="fill:#650000;fill-opacity:1;fill-rule:nonzero;stroke:none"
         id="path1118" />
      <path
         d="m 13211.7,23534.9 c 0,0 -124.1,684.8 -906.2,685.6 -751.1,0.7 -1089.4,-685.6 -1004,-1202.2 89.9,-542.6 391.7,-831.7 842.5,-964.8 470.9,-139.1 961.7,-34.1 961.7,-34.1 l 106,1515.5"
         style="fill:#f28475;fill-opacity:1;fill-rule:nonzero;stroke:none"
         id="path1120" />
      <path
         d="m 11301.6,23018.3 c 89.8,-542.6 391.5,-831.6 842.3,-964.7 51.6,-15.1 103.3,-27.4 154.6,-37.4 418.1,-79.9 807.3,3.2 807.3,3.2 l 106.1,1515.6 c 0,0 -32.6,180.1 -170.1,355.8 -130.4,166.9 -355,329.5 -736.2,329.9 -751.2,0.4 -1089.5,-685.7 -1004,-1202.4"
         style="fill:#f28475;fill-opacity:1;fill-rule:nonzero;stroke:none"
         id="path1122" />
      <path
         d="m 12903.1,21981.5 c -36.9,0 -75.4,0.7 -114.9,2.2 76,3.3 142.3,9.7 194.4,16.2 3.3,-5.7 6.5,-11.4 9.8,-17.1 -28.5,-0.8 -58.4,-1.3 -89.3,-1.3"
         style="fill:#d08d6f;fill-opacity:1;fill-rule:nonzero;stroke:none"
         id="path1124" />
      <path
         d="m 12788.2,21983.7 c -0.4,0 -0.8,0 -1.3,0 76.6,3.3 143.3,9.7 195.6,16.3 l 0.1,-0.1 c -52.1,-6.5 -118.4,-12.9 -194.4,-16.2"
         style="fill:#c75c52;fill-opacity:1;fill-rule:nonzero;stroke:none"
         id="path1126" />
      <path
         d="m 12786.9,21983.7 c -85.8,3.3 -177.1,10.6 -269.7,23.9 -162.9,120.6 -273.8,285.4 -322.3,506.3 -51,231 48.5,507.4 296.1,692.9 125.6,-448.7 291.5,-857.8 491.5,-1206.8 -52.3,-6.6 -119,-13 -195.6,-16.3"
         style="fill:#c75c52;fill-opacity:1;fill-rule:nonzero;stroke:none"
         id="path1128" />
      <path
         d="m 27079.4,22140.6 c -56.6,0 -109.4,2.2 -156.7,5.4 174.6,334.6 319.9,717.3 431.1,1132.6 329,-179.6 466.1,-501.6 408.1,-764.7 -23.6,-107.4 -61.9,-201.5 -113.8,-283.7 -24.2,-8.6 -49.1,-16.7 -74.7,-24.3 -170.2,-50.2 -345.1,-65.3 -494,-65.3"
         style="fill:#c75c52;fill-opacity:1;fill-rule:nonzero;stroke:none"
         id="path1130" />
      <path
         d="m 27053.7,21981.5 c -81.2,0 -155,3.2 -217.3,7.4 29.5,51.1 58.3,103.5 86.3,157.1 47.3,-3.2 100.1,-5.4 156.7,-5.4 148.9,0 323.8,15.1 494,65.3 25.6,7.6 50.5,15.7 74.7,24.3 -54.8,-87 -124.8,-160.6 -208.6,-222.6 -135.8,-19.5 -268.5,-26.1 -385.8,-26.1"
         style="fill:#650000;fill-opacity:1;fill-rule:nonzero;stroke:none"
         id="path1132" />
      <path
         d="m 12684.6,21822.3 c -174.4,0 -380.9,18.2 -585.6,78.7 -539.8,159.4 -860.9,526.6 -954.3,1091.4 -56.9,343.7 49.3,723.9 277,992.2 153,180.2 430.3,394.8 882.6,394.8 h 1.4 c 723.5,-0.6 1011.4,-534.2 1062.5,-816.2 15.6,-86.4 -41.7,-169.1 -128.1,-184.8 -85.6,-15.6 -168.6,41.3 -184.7,127.3 -11.2,57.6 -126.5,555.2 -750,555.8 h -1 c -330.9,0 -530.8,-153.7 -640.2,-282.6 -169,-199.1 -247.8,-480.5 -205.8,-734.6 73.9,-446.6 306.1,-713 730.6,-838.4 424.7,-125.4 879.2,-31.9 883.7,-31 85.8,18.2 170.2,-36.6 188.4,-122.5 18.3,-85.8 -36.3,-170.1 -122.1,-188.5 -12.9,-2.7 -199.4,-41.6 -454.4,-41.6"
         style="fill:#650000;fill-opacity:1;fill-rule:nonzero;stroke:none"
         id="path1134" />
      <path
         d="m 12297.7,21071.4 c -293.7,0 -641.2,32.5 -985.5,140.6 -901.4,282.7 -1415.22,905.8 -1570.88,1904.9 -96.73,620.8 92.68,1297.5 494.28,1766 354.5,413.6 839.4,632.2 1402.3,632.2 h 2.1 c 1473.5,-1.4 1726.1,-1381.4 1728.5,-1395.4 14.7,-86.5 -43.4,-168.7 -130,-183.5 -86.3,-14.6 -168.4,43.3 -183.4,129.6 -8.2,46.1 -213.6,1130.2 -1415.3,1131.4 h -1.9 c -467.2,0 -868.6,-180.3 -1160.8,-521.2 -337.7,-393.9 -503.16,-986.7 -421.6,-1510.2 137.1,-879.7 566.6,-1404.1 1351.8,-1650.4 766.9,-240.5 1577.2,-61.2 1585.3,-59.4 85.6,19.5 170.8,-34.2 190.3,-119.8 19.5,-85.6 -34.2,-170.8 -119.8,-190.3 -21.7,-4.9 -336,-74.5 -765.4,-74.5"
         style="fill:#650000;fill-opacity:1;fill-rule:nonzero;stroke:none"
         id="path1136" />
      <path
         d="m 12388.3,24843.9 c 58.8,-1098.3 358.1,-2264.9 913.4,-3049.9 -508.7,-93.4 -758,-584.7 -830.3,-1095.1 -42.9,-300.9 -24.7,-608.5 38.1,-845.1 221.8,-839 911.1,-1343.1 1887.7,-1694 62.8,-22.3 126.4,-44.2 191.6,-65.6 -170.5,77.1 -331.9,179.2 -479.8,298.1 -520.7,417.8 -877.2,1042.6 -909.4,1531.9 -0.8,18.3 -1.6,36.6 -2,54.5 -0.4,20.6 -0.4,41.3 0.8,61.2 0,16.7 0.8,33.4 2,49.2 24.2,401.9 214.6,685.3 430,879.7 308.5,278.2 668.6,374.8 668.6,374.8 0,0 -1456,2739.5 8.4,5105.3 11.9,19.1 23.4,38.6 35.7,57.2 821.6,1282.7 1904,1777.6 2894.9,1792.7 2,0.4 4.4,0.4 6.4,0 1281.9,17.1 2409.1,-769.1 2617,-1691.7 22.7,-100.2 34.6,-201.5 34.6,-304.1 h 33 c 0,1024.7 1180.1,1974.3 2563,1995.8 1015.9,15.9 2142,-469 2989.8,-1792.7 12.4,-18.6 24.3,-38.1 35.8,-57.2 1464.4,-2365.8 8.8,-5105.3 8.8,-5105.3 0,0 1.9,-0.4 5.5,-1.6 43.3,-12.3 330.7,-100.9 600.6,-319.9 234.1,-190 455.1,-479 489.7,-902.3 4.4,-45.4 6,-92.3 5.2,-141.1 -2.8,-182.1 -53.7,-386 -143.5,-592.3 v -0.4 c -132.8,-304.9 -351,-615.7 -626,-870.9 -184.5,-171.7 -394.7,-318 -621.7,-420.9 1078,353.3 1843.5,866.5 2079.6,1759.6 65.6,247.7 82.3,573.2 31.4,887.6 -80.3,494.9 -329.5,961.9 -823.5,1052.6 555.2,785 854.1,1951.6 913.4,3049.9 184.8,3452.1 -2561.4,6329.1 -6024.3,6920.5 l -0.8,0.5 c -310,98.1 -810.9,261.9 -1479.4,494.8 -795.4,276.7 -1340.8,865.7 -1569.3,1151.1 -62.8,78.7 -184.4,72.4 -238.9,-12.7 -131.6,-204.3 -341,-715.4 -465.9,-1119.7 -27.8,-89.8 -131.5,-130.8 -213.4,-84.7 -149.8,85.1 -380,371.7 -597.4,539.4 -75.1,58 -184.9,30.6 -223.8,-55.6 -116.1,-257.6 -305.7,-802.1 -280.2,-1573.3 -2419.5,-1166.6 -4101.7,-3534.4 -3955.4,-6260.3"
         style="fill:#b74729;fill-opacity:1;fill-rule:nonzero;stroke:none"
         id="path1138" />
      <path
         d="m 16341.4,31269.3 c -4.2,710.3 172.3,1213.7 282.5,1458.3 24.9,55.2 78.9,86.3 134.2,86.3 31.1,0 62.6,-9.8 89.6,-30.7 217.4,-167.8 447.6,-454.3 597.4,-539.4 23.1,-13 48,-19.1 72.4,-19.1 62,0 121.1,39.3 141,103.8 124.9,404.2 334.3,915.4 465.9,1119.7 28.8,45 76.4,68 124.2,68 42.5,0 85.1,-18.2 114.7,-55.3 228.5,-285.4 773.9,-874.5 1569.3,-1151.1 606.1,-211.2 1074.3,-365.5 1387.5,-465.6 -8.5,-13.3 -15.2,-27.9 -19.6,-43.8 -313,100.2 -774.4,252.5 -1367.9,459.3 -795.4,276.7 -1340.8,865.7 -1569.3,1151.1 -29.6,37.1 -72.2,55.3 -114.7,55.3 -47.8,0 -95.4,-23 -124.2,-68 -131.6,-204.3 -341,-715.4 -465.9,-1119.7 -19.9,-64.5 -79,-103.7 -141,-103.8 -24.4,0 -49.3,6.1 -72.4,19.1 -149.8,85.1 -380,371.7 -597.4,539.4 -27,20.9 -58.5,30.7 -89.6,30.7 -55.3,0 -109.3,-31.1 -134.2,-86.3 -107.6,-238.8 -278.4,-724.2 -282.5,-1408.2"
         style="fill:#d7fcb0;fill-opacity:1;fill-rule:nonzero;stroke:none"
         id="path1140" />
      <path
         d="m 27155.2,26410.3 c -779.6,2428 -3043.2,4277.5 -5742.4,4738.5 l -0.8,0.3 c -310,98.2 -810.9,262 -1479.4,494.9 -795.4,276.7 -1340.8,865.7 -1569.3,1151.1 -29.6,37.1 -72.2,55.3 -114.7,55.3 -47.8,0 -95.4,-23 -124.2,-68 -131.6,-204.3 -341,-715.5 -465.9,-1119.7 -19.9,-64.5 -79,-103.8 -141,-103.8 -24.4,0 -49.3,6.1 -72.4,19.1 -149.8,85.1 -380,371.7 -597.4,539.4 -27.1,21 -48.6,30.9 -66.8,30.9 -32.1,0 -53.6,-31.1 -76.8,-87 -71.4,-171.6 -95.3,-596 -69.9,-1367.1 -1941.8,-889.5 -3362.5,-2445 -3952.5,-4250.5 426.1,1896 1780.6,3577 3731,4517.4 79.1,38.1 112.3,133.2 74.2,212.3 -27.4,56.8 -84.2,90 -143.3,90 -0.7,0 -1.4,-0.1 -2.1,-0.1 -0.1,2.1 -0.1,4 -0.1,6 4.1,684 174.9,1169.4 282.5,1408.2 24.9,55.2 78.9,86.3 134.2,86.3 31.1,0 62.6,-9.8 89.6,-30.7 217.4,-167.7 447.6,-454.3 597.4,-539.4 23.1,-13 48,-19.1 72.4,-19.1 62,0.1 121.1,39.3 141,103.8 124.9,404.3 334.3,915.4 465.9,1119.7 28.8,45 76.4,68 124.2,68 42.5,0 85.1,-18.2 114.7,-55.3 228.5,-285.4 773.9,-874.4 1569.3,-1151.1 593.5,-206.8 1054.9,-359.1 1367.9,-459.3 -0.5,-1.7 -0.9,-3.5 -1.3,-5.2 -20.6,-84.9 31.2,-170.4 115.8,-191.6 l 14.8,-3.2 c 111.6,-19.8 213.7,-40.3 312.1,-62.5 l 18.9,-3.9 h 0.3 c 2793.1,-621.8 4865.7,-2661.5 5394.1,-5123.7"
         style="fill:#d4917f;fill-opacity:1;fill-rule:nonzero;stroke:none"
         id="path1142" />
      <path
         d="m 14588.8,17935.2 c -16.4,0 -33.1,2.6 -49.5,8 -1261.7,413.5 -1955.5,1007.8 -2183.5,1870.1 -117.7,444.7 -101.6,1148.5 212.1,1643 125.8,198.2 290.6,343 484.1,427.1 -464,748.6 -761.3,1809.4 -822.5,2952 -71.9,1340.2 288.2,2657.9 1041.2,3810.4 719.7,1101.5 1758.5,2001.2 3003.9,2601.7 79.1,38.2 174.1,5 212.3,-74.1 38.1,-79.1 4.9,-174.2 -74.2,-212.3 -2483.1,-1197.3 -4000.5,-3595.1 -3865.6,-6108.7 62.2,-1162.6 392.9,-2271.6 884.4,-2966.6 l 143.8,-203.3 -244.9,-44.9 c -203.4,-37.3 -369.6,-155.6 -494,-351.7 -248.2,-391.2 -274.4,-1008.8 -173.2,-1391.3 200.6,-758.6 809.7,-1267.2 1975.1,-1649.3 83.4,-27.3 128.9,-117.1 101.6,-200.6 -22,-67 -84.2,-109.5 -151.1,-109.5"
         style="fill:#650000;fill-opacity:1;fill-rule:nonzero;stroke:none"
         id="path1144" />
      <path
         d="m 25236.1,17935.2 c -66.8,0 -129,42.5 -151,109.5 -27.3,83.5 18.1,173.3 101.6,200.6 1165.7,382.2 1774.9,890.8 1975.4,1649.2 101.1,382.8 74.7,1000.6 -173.6,1391.7 -124.3,195.9 -290.4,314.1 -493.6,351.5 l -244.8,44.9 143.8,203.2 c 498.3,704.7 820.7,1786 884.4,2966.7 167.5,3124.9 -2151.8,5932.3 -5517.2,6681.5 h -0.3 l -18.9,3.9 c -98.4,22.2 -200.5,42.7 -312.1,62.5 l -14.8,3.2 c -84.6,21.2 -136.4,106.7 -115.8,191.6 20.1,83.2 102.3,135.2 185.5,118.5 1.1,-0.2 2.3,-0.4 3.4,-0.7 109.9,-19.6 211.2,-39.8 309.1,-61.6 l 15.5,-3.2 c 1657.8,-365.3 3155.2,-1253.1 4216.2,-2499.9 1097.3,-1289.5 1653.8,-2892.2 1567,-4512.9 -61.7,-1143.3 -358.9,-2203.9 -822.6,-2952 193.3,-84 358,-228.7 483.7,-426.7 313.8,-494.4 330.1,-1198.4 212.5,-1643.4 -227.8,-862.2 -921.8,-1456.5 -2183.8,-1870.1 -16.4,-5.4 -33.1,-8 -49.6,-8"
         style="fill:#650000;fill-opacity:1;fill-rule:nonzero;stroke:none"
         id="path1146" />
      <path
         d="m 16239.1,16673.6 c -171.8,57.2 -339.3,119.1 -544.9,185.8 96.3,219.2 188.1,419.4 269.7,592.7 42.4,-10.9 85.4,-21.7 128.8,-32.5 64.6,-16.1 129.4,-31.7 194.2,-46.9 l -47.8,-699.1"
         style="fill:#9e321d;fill-opacity:1;fill-rule:nonzero;stroke:none"
         id="path1148" />
      <path
         d="m 15694.2,16859.4 c -48.8,15.8 -99.8,31.9 -153.4,48.3 94.5,215.8 184.9,413.4 265.9,585.7 51.6,-13.8 104,-27.6 157.2,-41.3 -81.6,-173.3 -173.4,-373.5 -269.7,-592.7"
         style="fill:#650000;fill-opacity:1;fill-rule:nonzero;stroke:none"
         id="path1150" />
      <path
         d="m 18454.1,16273.2 c -237.5,30.1 -487,63 -745.1,97.2 -79.1,10.3 -159.3,21 -240,31.7 -496.9,65.6 -806.1,139.2 -1076.4,222.2 -52.1,16.3 -103,32.6 -153.5,49.3 v 0 l 47.8,699.1 c 404.5,-95.1 812.9,-173.8 1223.9,-236.2 l 943.3,-863.3"
         style="fill:#9e321d;fill-opacity:1;fill-rule:nonzero;stroke:none"
         id="path1152" />
      <path
         d="m 20165.9,16118.7 c -404.1,0 -1004.8,64.9 -1711.8,154.5 l -943.3,863.3 c 786.4,-119.4 1582.5,-179.2 2379.7,-179.2 1269.2,0 2541.2,151.4 3780.8,454.2 16.9,4.1 33.7,8.2 50.5,12.4 187.7,-226.7 365.5,-459.2 533.1,-697 -53.8,-14.9 -107.7,-29.4 -161.5,-43.7 -1498.5,-396.7 -3026.4,-564.5 -3927.5,-564.5"
         style="fill:#9e321d;fill-opacity:1;fill-rule:nonzero;stroke:none"
         id="path1154" />
      <path
         d="m 24254.9,16726.9 c -167.6,237.8 -345.4,470.3 -533.1,697 57.7,14.3 114.5,28.6 170.4,43.1 186.6,-228.4 361.3,-460.2 524.4,-694.4 -53.7,-15.5 -107.7,-30.7 -161.7,-45.7"
         style="fill:#650000;fill-opacity:1;fill-rule:nonzero;stroke:none"
         id="path1156" />
      <path
         d="m 13182.1,19976.9 c 0,-2.4 5.9,-20.7 17.5,-52.5 78.7,-215.4 418.1,-1040.6 909.4,-1531.9 91,-91 187.2,-170.5 288.2,-232.6 40.1,-25 81.1,-46.9 122.4,-65.5 91.8,-30.2 186,-58.9 281.8,-86.3 30.6,-9.1 61.2,-17.5 91.8,-25.8 505.7,-138.7 782.3,-257.6 1120.2,-361.3 270.3,-83.1 579.5,-156.6 1076.4,-222.2 1126.8,-149.1 2115.4,-283.4 2696.9,-283.4 901.1,0 2429,167.7 3927.5,564.4 639.6,169.7 1273.6,380.8 1851.5,638.4 l 0.8,0.7 c 101.8,60.9 199.5,126.1 291.4,196.4 307.6,234.5 545.7,522.3 626,870.9 v 0.4 c 39.4,168.5 41.3,351.8 -3.2,549.7 -2.8,13.9 118.9,117.7 115.3,130.8 -2.4,9.9 -4.8,19.9 -7.6,29.4 -115.2,452.7 -283.8,741.7 -455.9,925.7 -237.7,254.4 -481.3,309.3 -600.6,320 -47.3,4.4 -74.7,1.6 -74.7,1.6 0,0 1422.6,2739.5 -41.7,5105.3 -12,19.5 -23.9,38.6 -36.2,57.2 -819.6,1279.5 -1898.4,1775.2 -2887.3,1792.7 -1287.5,22.6 -2421.9,-766 -2630.6,-1691.7 -22.6,-100.2 -34.6,-201.5 -34.6,-304.1 0,1029.5 -1191.2,1983.1 -2582.4,1995.8 -2,0.4 -4.4,0.4 -6.4,0 -1009.2,7.5 -2123.3,-480.2 -2964,-1792.7 -12.3,-18.6 -23.9,-37.7 -35.8,-57.2 -1464.3,-2365.8 -8.4,-5105.3 -8.4,-5105.3 0,0 -298.5,-5.2 -599.4,-374.8 -152.2,-186.8 -305.6,-466.7 -420.9,-886.4 -3.6,-13.9 -7.5,-28.2 -11.1,-42.6 -5.6,-20.6 -11.1,-41.7 -16.3,-63.1"
         style="fill:#ffca9f;fill-opacity:1;fill-rule:nonzero;stroke:none"
         id="path1158" />
      <path
         d="m 21645.1,19978.9 c 0,-255.4 372.5,-462.4 832.1,-462.4 459.6,0 832.1,207 832.1,462.4 0,255.3 -372.5,462.4 -832.1,462.4 -459.6,0 -832.1,-207.1 -832.1,-462.4"
         style="fill:#f28475;fill-opacity:1;fill-rule:nonzero;stroke:none"
         id="path1160" />
      <path
         d="m 16462.1,19978.9 c 0,-255.4 372.6,-462.4 832.1,-462.4 459.6,0 832.1,207 832.1,462.4 0,255.3 -372.5,462.4 -832.1,462.4 -459.5,0 -832.1,-207.1 -832.1,-462.4"
         style="fill:#f28475;fill-opacity:1;fill-rule:nonzero;stroke:none"
         id="path1162" />
      <path
         d="m 16343.7,30945.4 c -85.4,0 -156,67.8 -158.8,153.8 -26.4,803.3 172.8,1374.5 293.9,1643.5 38.6,85.7 113.1,148 204.4,170.9 91.7,23 186.8,3.1 261.6,-54.5 109.5,-84.5 215.7,-190.6 318.4,-293.3 91.4,-91.4 185.9,-185.8 247.7,-225.9 119.4,382.4 329.4,910.3 479.6,1144.3 53.2,82.9 143.6,135.5 241.9,140.6 97.7,4.9 193.7,-37.7 255.2,-114.5 99,-123.7 636.9,-758.3 1503.5,-1102.9 1203.1,-478.2 1800.8,-555.7 1806.7,-556.4 87,-10.8 149.1,-90 138.5,-177 -10.6,-87.1 -90.1,-149.4 -176.6,-138.7 -25.4,3 -637.4,80.3 -1886.1,576.6 -914.6,363.7 -1493.3,1026.4 -1624,1187 -120,-195 -318.4,-676.2 -439.3,-1067.2 -27.5,-89.1 -93,-159.9 -179.5,-194.3 -86.7,-34.5 -182.9,-27.8 -264,18.1 -98.8,55.9 -205.2,162.3 -328.4,285.4 -91.6,91.6 -186.1,186.1 -276,257.1 -110.2,-249.3 -283.6,-763.1 -259.8,-1488.4 3,-87.7 -65.9,-161.2 -153.6,-164.1 -1.8,-0.1 -3.6,-0.1 -5.3,-0.1"
         style="fill:#650000;fill-opacity:1;fill-rule:nonzero;stroke:none"
         id="path1164" />
      <path
         d="m 20109.4,20503 c -35.6,-10.2 -69.6,19.6 -64.4,56.3 15.6,110.2 65.6,299.8 225.8,325 212.2,33.4 235.2,-150.8 216.2,-205.7 -22.2,-64.1 -76,-104.2 -181.8,-126.4 -65,-13.6 -140.7,-33.4 -195.8,-49.2"
         style="fill:#650000;fill-opacity:1;fill-rule:nonzero;stroke:none"
         id="path1166" />
      <path
         d="m 19528.2,20503 c 35.6,-10.2 69.6,19.6 64.4,56.3 -15.6,110.2 -65.7,299.8 -225.9,325 -212.2,33.4 -235.1,-150.8 -216.1,-205.7 22.2,-64.1 76,-104.2 181.8,-126.4 65,-13.6 140.7,-33.4 195.8,-49.2"
         style="fill:#650000;fill-opacity:1;fill-rule:nonzero;stroke:none"
         id="path1168" />
      <path
         d="m 19231.9,19563.7 c 118,-90.9 238.7,-160.6 364.1,-195.6 124.8,-34.2 252.4,-36.3 369.5,-1.2 29.2,8.7 57,21.5 86.2,31 26.1,15.9 53.5,29.6 79.7,45.6 23.7,19.5 51.4,34.4 73.6,56.3 l 33.4,33 c 11.9,10.4 23.9,20.8 32.8,34.2 83.3,96.7 142.5,219.7 185,359.6 l 1.8,6 c 18.9,62.3 84.8,97.5 147,78.6 49.1,-14.9 81.3,-59.2 83.5,-107.6 8,-180.4 -40.4,-373.3 -150.6,-535.7 -108.4,-162.9 -279.2,-291.1 -473.1,-344.6 l -73.5,-15.7 c -24.6,-4.8 -48.9,-11 -74,-11.4 l -74.7,-4.2 -37.3,-1.8 c -12.3,0.8 -24.7,2.4 -37,3.7 -49.1,6.4 -99.1,8.2 -145.8,23.5 -47.3,12.8 -95.2,24 -138.2,46.7 -178,76.4 -321.6,207.5 -416.6,358.5 -32.2,51.1 -16.8,118.7 34.4,150.8 39.8,25.1 89.6,21.3 124.9,-5.8 l 4.9,-3.9"
         style="fill:#650000;fill-opacity:1;fill-rule:nonzero;stroke:none"
         id="path1170" />
      <path
         d="m 17281.9,28120.9 c -782.7,0 -1897.6,-300.5 -2804.8,-1716.4 -8.6,-13 -15.6,-24.4 -22.5,-35.8 l -12.4,-19.9 c -1397.3,-2257.7 -16.8,-4919.9 -2.7,-4946.5 l 93.5,-176.5 -192.8,-51.7 c -40.4,-11 -998.1,-282.9 -983.6,-1208.9 8.6,-549.7 543.8,-1400.3 1297.9,-1742.1 378.1,-172.9 887.7,-339.3 1514.9,-494.9 2417.8,-601.2 4985.9,-603.9 7426.5,-7.8 650.3,158.8 1180.6,328.1 1576,503.2 753.3,341.4 1288.3,1192 1296.6,1741.5 14.5,926.1 -942.8,1198 -983.6,1209.1 l -191.8,52.4 92.9,175.7 c 14.1,26.6 1394.2,2688.8 -3.5,4947 -11.3,18.7 -22,36.3 -33.2,53.2 -1335.4,2084.5 -3119.4,1754.3 -3634.3,1603.5 -942.7,-276 -1627,-998.9 -1627,-1718.9 0,-87.8 -71.1,-158.9 -158.9,-158.9 -5.6,0 -11.1,0.2 -16.5,0.8 -5.5,-0.6 -11,-0.8 -16.5,-0.8 -87.8,0 -159,71.1 -159,158.9 0,719.9 -684.2,1442.8 -1626.7,1718.9 -164.9,48.3 -459.9,114.9 -828.5,114.9 m 2608.6,-11163.6 c -1280.6,0 -2558.4,154.1 -3797.8,462.3 -646.2,160.3 -1174.4,333.2 -1570,514.1 -874.7,396.4 -1473.7,1368 -1484,2026.6 -12.9,820.8 598.7,1279.8 1039.2,1459.7 -120.7,264.9 -347.3,824.8 -480.1,1544.3 -244.1,1322.5 -45.4,2550.9 574.4,3552.4 l 11.4,18.3 c 8.8,14.5 17.7,28.9 27,43 523.2,816.5 1178.6,1376.1 1946.8,1661.3 660,245 1366.2,269.8 2042.4,71.8 812.9,-238 1443.4,-759.9 1712.8,-1370.7 269.3,610.8 900,1132.7 1713,1370.8 676,198 1382.4,173.1 2042.3,-71.9 768.2,-285.3 1423.6,-844.9 1947.9,-1663.3 12.2,-18.5 25.3,-39.9 38,-60.8 618.9,-1000 817.6,-2228.4 573.8,-3550.9 -132.8,-719.5 -359.4,-1279.4 -480.1,-1544.4 440.4,-179.9 1051.8,-638.8 1038.9,-1459.6 -9.9,-658.4 -608.8,-1630 -1484.5,-2026.8 -413.8,-183.3 -961.9,-358.8 -1630.6,-522 -1239.6,-302.8 -2511.6,-454.2 -3780.8,-454.2"
         style="fill:#650000;fill-opacity:1;fill-rule:nonzero;stroke:none"
         id="path1172" />
      <path
         d="m 19890.6,17275.3 c -1254.8,0 -2507,151 -3721.2,452.9 -627.2,155.6 -1136.8,322 -1514.9,494.9 -691.3,313.3 -1198.5,1054.2 -1284.9,1598.9 1004.2,-645 2780.1,-1389.7 5774.2,-1609 248,-18.2 496.6,-27.3 745.3,-27.3 249.4,0 498.9,9.2 747.8,27.4 3044.5,223.3 4829.5,990.3 5823.6,1642.8 -69.8,-547.3 -583.7,-1312.8 -1288.6,-1632.3 -395.4,-175.1 -925.7,-344.4 -1576,-503.2 -1215,-296.8 -2461.4,-445.1 -3705.3,-445.1"
         style="fill:#d08d6f;fill-opacity:1;fill-rule:nonzero;stroke:none"
         id="path1174" />
      <path
         d="m 13525.3,18753.8 c -463.2,305.4 -739.2,676.2 -862.1,1140.8 -38.6,145.8 -58.6,325.9 -54.9,514.4 114.4,-107.9 256.8,-229.6 431.5,-359.2 -1.2,-29.3 -1.6,-59.2 -1.1,-89.5 5.6,-357.4 184.4,-806.8 486.6,-1206.5"
         style="fill:#9e321d;fill-opacity:1;fill-rule:nonzero;stroke:none"
         id="path1176" />
      <path
         d="m 14342,18025.8 c -947.4,350 -1614.9,850.7 -1832.5,1673.9 -62.8,236.5 -81,544.2 -38.1,845.1 40.3,-42.2 85.8,-87.6 136.9,-135.8 -3.7,-188.5 16.3,-368.6 54.9,-514.4 122.9,-464.6 398.9,-835.4 862.1,-1140.8 215.5,-285.1 493.8,-545 816.7,-728"
         style="fill:#650000;fill-opacity:1;fill-rule:nonzero;stroke:none"
         id="path1178" />
      <path
         d="m 26300.1,18753.9 c 302.2,399.8 481,849.2 486.3,1206.4 0.7,41.9 -0.3,83 -2.8,123.1 177.5,134.4 319.8,259.7 432,369 8,-204.2 -12,-400.8 -53.5,-557.9 -122.8,-464.4 -398.8,-835.2 -862,-1140.6"
         style="fill:#9e321d;fill-opacity:1;fill-rule:nonzero;stroke:none"
         id="path1180" />
      <path
         d="m 25484,18026.3 c 322.7,183.1 600.7,442.8 816.1,727.6 463.2,305.4 739.2,676.2 862,1140.6 41.5,157.1 61.5,353.7 53.5,557.9 49.6,48.3 93.3,93.5 131.6,134.9 50.9,-314.4 34.2,-639.9 -31.4,-887.6 -217.6,-823.1 -884.8,-1323.4 -1831.8,-1673.4"
         style="fill:#650000;fill-opacity:1;fill-rule:nonzero;stroke:none"
         id="path1182" />
      <path
         d="m 19786.7,16961.1 c -581.5,0 -1570.1,134.3 -2696.9,283.4 -1119,148.2 -1287.1,334.2 -2196.6,583.5 -30.6,8.3 -61.2,16.7 -91.8,25.8 -95.8,27.4 -190,56 -281.8,86.3 -41.3,18.7 -82.3,40.5 -122.4,65.5 -18.5,6.7 -36.9,13.4 -55.2,20.2 -322.9,183 -601.2,442.9 -816.7,728 -302.2,399.7 -481,849.1 -486.6,1206.5 -0.5,30.3 -0.1,60.2 1.1,89.5 50.7,-37.6 104.2,-75.9 160.6,-114.8 2.8,-2.4 5.9,-4.3 9.1,-6.7 51.1,-35.1 104.4,-70.6 160.1,-106.3 86.4,-544.7 593.6,-1285.6 1284.9,-1598.9 378.1,-172.9 887.7,-339.3 1514.9,-494.9 1214.2,-301.9 2466.4,-452.9 3721.2,-452.9 1243.9,0 2490.3,148.3 3705.3,445.1 650.3,158.8 1180.6,328.1 1576,503.2 704.9,319.5 1218.8,1085 1288.6,1632.3 44.2,29 86.8,57.8 127.9,86.3 11.6,7.5 22.7,15.5 33.8,23.4 56.8,39.9 110.5,79.2 161.4,117.8 2.5,-40.1 3.5,-81.2 2.8,-123.1 -5.3,-357.2 -184.1,-806.6 -486.3,-1206.4 -215.4,-284.8 -493.4,-544.5 -816.1,-727.6 -80.6,-29.8 -163.3,-58.5 -247.8,-86.2 227,102.9 437.2,249.2 621.7,420.9 -91.9,-70.4 -189.6,-135.5 -291.4,-196.4 l -0.8,-0.8 c -1933,-861.7 -4493.6,-1202.7 -5779,-1202.7"
         style="fill:#650000;fill-opacity:1;fill-rule:nonzero;stroke:none"
         id="path1184" />
      <path
         d="m 17219.9,24323.1 c -286.6,21.1 -545,-97.5 -742.2,-313.4 -252.9,-275.3 -405.5,-709.1 -389.3,-1208.5 20.9,-645.1 317.7,-1222.8 728.8,-1509.5 155.6,-109.2 327.7,-176.3 507.1,-189.8 653.9,-49.1 1160.5,632.3 1131.5,1521.8 -28.6,889.6 -582,1650.3 -1235.9,1699.4"
         style="fill:#ffffff;fill-opacity:1;fill-rule:nonzero;stroke:none"
         id="path1186" />
      <path
         d="m 17153.5,24276 c -239.4,0 -459.3,-102.8 -639.2,-299.7 -254.4,-277 -391.5,-704.7 -376.4,-1173.5 19.7,-607.2 297.5,-1184.4 707.7,-1470.4 153.2,-107.7 315.5,-168.6 482.4,-181.1 240.5,-17.9 466.2,67.4 653.4,246.8 282.2,270.6 441.1,728.1 424.9,1224 -27.8,863.5 -561.7,1604.4 -1190.1,1651.5 -21,1.6 -41.9,2.4 -62.7,2.4 z m 237.9,-3226.2 c -23.5,0 -47.1,0.9 -70.8,2.7 -184.9,13.9 -363.9,80.7 -531.8,198.7 -434.8,303.2 -729.2,911 -749.9,1548.4 -16,494.5 130.6,947.8 402.3,1243.7 213.6,233.7 491.7,350.6 782.4,329.2 v 0 c 677.4,-50.8 1252.3,-834.6 1281.7,-1747.2 17.4,-531.3 -148.6,-1004.7 -455.3,-1298.7 -189.8,-181.9 -416.2,-276.8 -658.6,-276.8"
         style="fill:#11116d;fill-opacity:1;fill-rule:nonzero;stroke:none"
         id="path1188" />
      <path
         d="m 17219.9,24323.1 c -286.6,21.1 -545,-97.5 -742.2,-313.4 -26.7,-55 -49.7,-113.2 -69.5,-173.6 -44.7,-135.8 -59.5,-329.5 41.4,-422.4 86.7,-79.7 196.9,-27.1 298.4,-34.6 167.1,-12 325.2,-224.6 327.9,-441.5 2.7,-216.5 -150.8,-395.5 -317.9,-371.1 -116.3,17.1 -246.9,114 -339.7,35.7 -68.2,-57.7 -77.2,-184.5 -67.6,-295.1 32.6,-377.9 210.6,-737.1 443.8,-991.5 7.4,-8.1 15.1,-16.2 22.7,-23.9 155.6,-109.2 327.7,-176.3 507.1,-189.8 653.9,-49.1 1160.5,632.3 1131.5,1521.8 -28.6,889.6 -582,1650.3 -1235.9,1699.4"
         style="fill:#1595ff;fill-opacity:1;fill-rule:nonzero;stroke:none"
         id="path1190" />
      <path
         d="m 17610.5,21177.6 c 534.4,-40.3 947.3,555.7 922.4,1331.1 -24.9,775.5 -478.2,1436.8 -1012.5,1477.1 -534.3,40.3 -947.3,-555.7 -922.4,-1331.2 24.9,-775.4 478.2,-1436.7 1012.5,-1477"
         style="fill:#640005;fill-opacity:1;fill-rule:nonzero;stroke:none"
         id="path1192" />
      <path
         d="m 16758.1,23426.2 c -101.6,7.5 -211.8,-45.1 -298.4,34.7 -100.9,92.8 -86.1,286.6 -41.4,422.3 19.8,60.5 42.8,118.6 69.5,173.7 -252.9,-275.4 -405.5,-709.1 -389.3,-1208.5 20.9,-645.2 317.7,-1222.8 728.8,-1509.6 -7.6,7.7 -15.3,15.8 -22.7,23.9 -233.2,254.5 -411.2,613.7 -443.8,991.5 -9.6,110.7 -0.6,237.5 67.6,295.2 92.8,78.2 223.3,-18.7 339.7,-35.8 167.1,-24.4 320.6,154.7 317.9,371.2 -2.7,216.9 -160.9,429.4 -327.9,441.4"
         style="fill:#ffffff;fill-opacity:1;fill-rule:nonzero;stroke:none"
         id="path1194" />
      <path
         d="m 17154.6,24643.6 c -340.9,0 -664.6,-148.9 -911.7,-419.2 -318.4,-346.7 -490.7,-869.3 -472.4,-1433.5 23.6,-730.2 355,-1404.6 864.8,-1760.1 207.2,-145.6 431.3,-228.6 665.2,-246.1 30,-2.3 60.3,-3.4 90,-3.4 326.6,0 640.4,138.3 883.4,389.3 336.7,347.8 518.9,881.2 499.9,1463.5 -34.3,1063.1 -706.4,1944.4 -1530.1,2006.2 -29.9,2.2 -59.7,3.3 -89.1,3.3 z m 0,-318.1 c 21.6,0 43.4,-0.8 65.3,-2.4 653.9,-49.1 1207.3,-809.8 1235.9,-1699.4 28,-859.2 -443.8,-1524.3 -1065.3,-1524.3 -21.9,0 -44,0.8 -66.2,2.5 -179.4,13.5 -351.5,80.6 -507.1,189.8 -411.1,286.7 -707.9,864.4 -728.8,1509.5 -16.2,499.4 136.4,933.2 389.3,1208.5 182.1,199.3 416.4,315.8 676.9,315.8"
         style="fill:#640005;fill-opacity:1;fill-rule:nonzero;stroke:none"
         id="path1196" />
      <path
         d="m 22562.4,24395.5 c 285.9,28.9 547.5,-82.7 750.4,-293.1 260.3,-268.4 424.6,-697.8 421.9,-1197.5 -3.4,-645.5 -284.3,-1230.9 -687.6,-1528.7 -152.5,-113.4 -322.7,-185.2 -501.8,-203.5 -652.2,-66.8 -1177.1,600.6 -1172.3,1490.6 4.5,890 537.1,1665.4 1189.4,1732.2"
         style="fill:#ffffff;fill-opacity:1;fill-rule:nonzero;stroke:none"
         id="path1198" />
      <path
         d="m 22567.3,24346.2 c -626.8,-64.3 -1140.3,-819.3 -1144.7,-1683.2 -2.7,-496.1 168.5,-949.2 457.9,-1212 192.1,-174.3 420.4,-253.5 659.8,-229 166.5,17 327.1,82.3 477.2,193.9 402.4,297.2 664.4,881.7 667.7,1489.3 2.5,469 -146.2,892.9 -408,1162.7 -198.4,205.7 -450.4,304.7 -709.9,278.3 z m -112.6,-3227.7 c -233,0 -452.8,88.5 -640.8,259.1 -314.6,285.6 -493.3,754.3 -490.5,1286 4.7,912.9 558.2,1712 1233.9,1781.2 h 0.1 c 289.9,29.4 571.2,-80 791,-308 279.6,-288.2 438.5,-737.4 435.9,-1232.2 -3.4,-637.7 -281.2,-1253.3 -707.7,-1568.3 -164.5,-122.3 -341.6,-194 -526.2,-212.9 -32.1,-3.3 -64,-4.9 -95.7,-4.9"
         style="fill:#11116d;fill-opacity:1;fill-rule:nonzero;stroke:none"
         id="path1200" />
      <path
         d="m 22562.4,24395.5 c 285.9,28.9 547.5,-82.7 750.4,-293.1 28.2,-54.3 52.8,-111.8 74.2,-171.7 48.4,-134.5 68.4,-327.8 -29.9,-423.3 -84.5,-82.1 -196.1,-32.5 -297.4,-42.7 -166.6,-16.6 -318.9,-233.3 -315.8,-450.2 3.2,-216.5 161.4,-391.3 327.9,-362.4 115.8,20.2 243.7,120.6 338.6,44.9 69.7,-55.8 82.1,-182.3 75.6,-293.2 -22.4,-378.6 -190.6,-742.5 -416.8,-1003.1 -7.2,-8.4 -14.7,-16.6 -22.1,-24.5 -152.5,-113.4 -322.7,-185.2 -501.7,-203.5 -652.3,-66.8 -1177.2,600.6 -1172.4,1490.6 4.5,890 537.1,1665.4 1189.4,1732.2"
         style="fill:#1595ff;fill-opacity:1;fill-rule:nonzero;stroke:none"
         id="path1202" />
      <path
         d="m 22257.2,21240.6 c -533,-54.8 -962,529.8 -958.2,1305.6 3.9,775.9 439.2,1449.2 972.2,1504 533,54.7 962,-529.8 958.1,-1305.6 -3.9,-775.9 -439.1,-1449.2 -972.1,-1504"
         style="fill:#640005;fill-opacity:1;fill-rule:nonzero;stroke:none"
         id="path1204" />
      <path
         d="m 23048.4,23511.5 c 101.3,10.2 212.9,-39.3 297.3,42.7 98.4,95.6 78.3,288.8 29.9,423.4 -21.4,59.8 -46,117.3 -74.2,171.7 260.3,-268.5 424.6,-697.9 422,-1197.6 -3.5,-645.4 -284.4,-1230.9 -687.7,-1528.7 7.4,7.9 14.9,16.2 22.1,24.5 226.3,260.7 394.4,624.6 416.8,1003.1 6.6,110.9 -5.9,237.5 -75.6,293.3 -94.9,75.7 -222.8,-24.7 -338.6,-45 -166.4,-28.9 -324.7,145.9 -327.9,362.4 -3.1,216.9 149.2,433.7 315.9,450.2"
         style="fill:#ffffff;fill-opacity:1;fill-rule:nonzero;stroke:none"
         id="path1206" />
      <path
         d="m 22651.2,24718.1 v 0 c -40.1,0 -80.7,-2 -120.8,-6.1 -822.1,-84.2 -1470.1,-983.3 -1475.5,-2047.1 -3.1,-573.3 188.3,-1096.6 525.3,-1435.4 247,-248.3 549.8,-379.5 875.6,-379.5 40.4,0 81.4,2.1 121.9,6.2 233.4,23.9 455.3,113 659.3,264.7 499,368.6 812,1051.7 815.8,1782.3 3,564.5 -183.5,1082.3 -511.6,1420.7 -245,254 -561.3,394.2 -890,394.2 z m 0,-318.1 c 251.2,0 479.9,-109.2 661.6,-297.6 260.3,-268.4 424.6,-697.8 421.9,-1197.5 -3.4,-645.4 -284.3,-1230.9 -687.6,-1528.7 -152.5,-113.4 -322.7,-185.2 -501.7,-203.5 -30.1,-3.1 -60.1,-4.6 -89.6,-4.6 -610.1,0 -1087.4,646.3 -1082.8,1495.2 4.5,890 537.1,1665.4 1189.4,1732.2 29.8,3 59.5,4.5 88.8,4.5"
         style="fill:#640005;fill-opacity:1;fill-rule:nonzero;stroke:none"
         id="path1208" />
      <path
         d="m 10885.8,12641.7 c -30.9,-22.5 -39.2,-72.8 -15.2,-109.6 l 177.8,-270.6 c -314.5,-1142.6 746.6,-2879.4 2366.6,-2274.4 36.5,13.4 72.4,29.9 106.5,50.1 15.5,9.4 30.1,19 43.8,29 40.3,29.4 72.8,61.5 98,94.9 l 0.1,0.4 c 10.2,13.6 19.1,27.3 27,41.2 11.3,20.8 20.2,41.6 26.3,62.6 l -0.2,0.2 69.5,66.5 c 13,12.3 18.4,32.3 13.8,51.9 l -17.2,73.1 c -4.7,19.9 -19,35.3 -36.5,38.6 l -78.7,16.1 c -3.8,4.7 -7.8,9.7 -12.1,14.1 l -0.1,0.3 c -80.2,89.5 -224.7,148.9 -421.6,138 -825.6,25.6 -1375.6,539 -1747.9,1366.3 -93,264 -261.2,386.4 -261.2,386.4 l -81.7,254 c -13.1,40.3 -51.9,61.4 -85.8,46.7 l -159.7,-69.1 c -4.1,-1.8 -7.9,-4.1 -11.5,-6.7"
         style="fill:#ffffff;fill-opacity:1;fill-rule:nonzero;stroke:none"
         id="path1210" />
    </g>
  </g>
</svg>
