<?xml version="1.0" encoding="UTF-8" standalone="no"?>
<!-- Created with Inkscape (http://www.inkscape.org/) -->

<svg
        version="1.1"
        id="svg2"
        xml:space="preserve"
        width="3510.4041"
        height="3738.2197"
        viewBox="0 0 3510.4041 3738.2197"
        xmlns="http://www.w3.org/2000/svg"
><defs
     id="defs6" /><g
     id="g8"
     transform="matrix(1.3333333,0,0,-1.3333333,-1058.1699,4536.1797)"><g
       id="g10"
       transform="scale(0.1)"><path
         d="m 14978.8,7780.2 c 0,0 1489.5,-289.2 1319.7,-903 -115.9,-419.1 -1148.9,-89.3 -1148.9,-89.3 0,0 -1016,-745 -2227.3,-631.5 -787.8,73.8 -408.9,494.5 -437.1,530.3 -12.6,15.9 -138.3,-32.8 -293.6,-81.4 -194.6,-61 -435.7,-122 -558.5,-56 -290.9,156.3 -83.6,402.6 -83.6,402.6 -3.3,14.3 -213.5,-16 -281.1,64.5 -198.8,236.7 593.8,557.2 1067.9,665.9 1154.8,264.8 2642.5,97.9 2642.5,97.9"
         style="fill:#ffca9f;fill-opacity:1;fill-rule:nonzero;stroke:none"
         id="path14" /><path
         d="m 12483,6849.7 c 50.7,0 91.3,-17.9 127.7,-64.1 65.1,-82.7 25,-172.3 3.4,-220.5 -16.8,-37.6 -48.2,-107.7 -30.6,-137.8 4.9,-8.5 57.1,-84 353.7,-111.8 1133.9,-106.3 2108.4,594.3 2118.1,601.4 l 65.4,47.8 77.5,-24.5 c 271.1,-86.2 729.2,-166.5 898.6,-74.7 33.8,18.3 42.9,36.9 47.7,54.3 15.9,57.5 7.6,107.8 -26.7,163.4 -159.1,257 -794.7,466 -1163,538.8 -105.2,11.1 -1505.8,151.5 -2582.7,-95.5 -420.4,-96.3 -840.2,-290.6 -951.2,-405.6 30.5,-3.4 66.8,-4 82.6,-4.2 47.3,-0.8 172.9,-2.8 201.8,-129.2 l 17.7,-77.6 -51.2,-60.9 c -13.7,-17.2 -39.2,-64.2 -33.2,-93.3 4.1,-20 29.6,-43.9 70.1,-65.6 88.3,-47.5 434.3,66.8 548,104.3 95.3,31.4 167.6,55.3 226.3,55.3 m 695.6,-865 c -89.1,0 -179.5,4 -271.2,12.6 -315.4,29.5 -511.6,117.5 -600,268.9 -38,65.1 -50,131.5 -48.4,193 -274.3,-86.5 -528.7,-143.5 -701.6,-50.7 -163.8,88 -217,205 -232.8,287.6 -8,41.4 -8.1,81.2 -3.3,118.2 -64.2,15.1 -128.7,43.8 -175.3,99.4 -66.8,79.6 -85.9,176.5 -53.6,272.8 134.5,401.1 1197.5,649.1 1208.2,651.6 1167.8,267.8 2634.2,107.8 2696,100.9 l 12.7,-2 c 111.1,-21.5 1094.4,-224.2 1380.1,-685.4 80.7,-130.3 102.5,-274.5 63.1,-417 -29.8,-107.8 -100.2,-194.3 -203.7,-250.3 -302.2,-163.4 -860.6,-30.8 -1071.5,28.7 -231.7,-153.4 -1027.4,-628.3 -1998.7,-628.3"
         style="fill:#650000;fill-opacity:1;fill-rule:nonzero;stroke:none"
         id="path16" /><path
         d="m 13340.6,7066.1 c -68.3,-31.4 -138.6,-67.7 -205.6,-105.2 -67.3,-37.9 -133.1,-77.6 -195.8,-120.2 -124.8,-84.6 -241.7,-181.8 -318.4,-285.8 -52.6,-71.4 -153.2,-86.6 -224.6,-34 -71.4,52.7 -86.6,153.2 -33.9,224.6 6.1,8.3 12.8,15.8 20.1,22.5 l 1.5,1.4 c 140.2,128.4 291.6,207.7 443.7,275.6 76.2,33.5 153.3,62.5 230.7,89.1 78,26.4 154.6,49.9 236,70.5 39.1,9.9 78.9,-13.9 88.9,-53 8.7,-34.8 -8.9,-70.1 -40.4,-84.5 l -2.2,-1"
         style="fill:#650000;fill-opacity:1;fill-rule:nonzero;stroke:none"
         id="path18" /><path
         d="m 12367.6,7293.6 c -132.8,-75.8 -265.1,-156.3 -393.2,-239.3 -127.7,-83.2 -253.5,-170.2 -365,-262.5 -68.3,-56.5 -169.5,-46.9 -226,21.4 -56.5,68.3 -46.9,169.4 21.4,225.9 7.4,6.1 16.1,11.9 24.1,16.5 145,81.2 289.6,146.1 435.5,207.6 146,60.9 291.7,117 440.7,169.7 39.9,14.1 83.6,-6.8 97.7,-46.7 12.5,-35.5 -2.6,-74 -34.2,-92 l -1,-0.6"
         style="fill:#650000;fill-opacity:1;fill-rule:nonzero;stroke:none"
         id="path20" /><path
         d="m 24639.2,7780.2 c 0,0 -1489.5,-289.2 -1319.7,-903 116,-419.1 1148.9,-89.3 1148.9,-89.3 0,0 1016.1,-745 2227.4,-631.5 787.8,73.8 408.9,494.5 437.1,530.3 12.5,15.9 138.3,-32.8 293.6,-81.4 194.6,-61 435.6,-122 558.5,-56 290.8,156.3 83.6,402.6 83.6,402.6 3.2,14.3 213.4,-16 281.1,64.5 198.7,236.7 -593.8,557.2 -1068,665.9 -1154.7,264.8 -2642.5,97.9 -2642.5,97.9"
         style="fill:#ffca9f;fill-opacity:1;fill-rule:nonzero;stroke:none"
         id="path22" /><path
         d="m 24497.3,6964.9 65.6,-48.1 c 9.6,-7 984.3,-707.7 2118,-601.3 296.5,27.8 348.7,103.3 353.7,111.8 17.5,30.1 -13.8,100.2 -30.7,137.8 -21.5,48.2 -61.7,137.8 3.5,220.5 78.5,99.7 176.3,67.4 353.9,8.8 113.8,-37.6 459.8,-151.6 548.1,-104.3 40.4,21.7 66,45.6 70.1,65.6 5.9,29.1 -19.5,76.1 -34.4,94.8 l -48,60.2 15.7,76.8 c 28.8,126.4 154.4,128.4 201.8,129.2 15.8,0.2 52,0.8 82.6,4.2 -111,115 -530.9,309.3 -951.2,405.6 -1076.9,247 -2477.5,106.6 -2582.8,95.5 -368.2,-72.8 -1003.8,-281.8 -1162.9,-538.8 -34.4,-55.6 -42.6,-105.9 -26.7,-163.4 4.8,-17.4 13.9,-36 47.7,-54.3 169.4,-91.8 627.5,-11.5 898.6,74.7 l 77.4,24.7 m 1942.2,-980.2 c -971.5,-0.1 -1767.1,474.9 -1998.7,628.3 -210.9,-59.5 -769.4,-192.2 -1071.6,-28.7 -103.4,56 -173.9,142.5 -203.7,250.3 -39.4,142.5 -17.6,286.7 63.2,417 285.6,461.2 1268.9,663.9 1380.1,685.4 l 12.6,2 c 61.8,7 1528.2,166.9 2696,-100.9 10.8,-2.5 1073.8,-250.5 1208.3,-651.6 32.2,-96.3 13.2,-193.2 -53.7,-272.9 -46.6,-55.5 -111.1,-84.2 -175.3,-99.3 4.8,-37 4.7,-76.8 -3.2,-118.2 -15.8,-82.6 -69.1,-199.6 -232.9,-287.6 -172.8,-92.8 -427.2,-35.8 -701.6,50.7 1.6,-61.5 -10.4,-127.9 -48.4,-193 -88.3,-151.4 -284.6,-239.4 -599.9,-268.9 -91.6,-8.6 -182.2,-12.6 -271.2,-12.6"
         style="fill:#650000;fill-opacity:1;fill-rule:nonzero;stroke:none"
         id="path24" /><path
         d="m 26323.8,7204.6 c 81.4,-20.6 157.9,-44.1 235.9,-70.5 77.5,-26.6 154.5,-55.6 230.8,-89.1 152.1,-67.9 303.5,-147.2 443.6,-275.6 l 0.9,-0.8 c 65.4,-59.9 69.8,-161.5 9.9,-226.9 -59.9,-65.4 -161.5,-69.9 -226.9,-9.9 -7.6,6.9 -14.8,15.1 -20.8,23.1 -76.7,104 -193.5,201.2 -318.3,285.8 -62.8,42.6 -128.6,82.3 -195.8,120.2 -67,37.5 -137.3,73.8 -205.6,105.2 l -2.2,1 c -36.7,16.9 -52.8,60.3 -36,97 15,32.6 50.9,49 84.5,40.5"
         style="fill:#650000;fill-opacity:1;fill-rule:nonzero;stroke:none"
         id="path26" /><path
         d="m 27313,7432.9 c 148.9,-52.7 294.7,-108.8 440.7,-169.7 145.8,-61.5 290.5,-126.4 435.5,-207.6 77.4,-43.2 105.1,-141 61.9,-218.3 -43.2,-77.4 -140.9,-105.2 -218.3,-61.9 -8.4,4.6 -16.9,10.6 -24.1,16.4 -111.6,92.3 -237.3,179.3 -365.1,262.5 -128.1,83 -260.4,163.5 -393.1,239.3 l -1,0.6 c -36.8,21 -49.5,67.7 -28.5,104.5 18.6,32.6 57.7,46.3 92,34.2"
         style="fill:#650000;fill-opacity:1;fill-rule:nonzero;stroke:none"
         id="path28" /><path
         d="m 24953.1,14498.4 c 0,0 2218.8,-494.1 3344.5,1550.5 1100.7,1999.2 -917.2,4469.4 -909,6309.5 11.1,2491.1 1752.3,4676.5 4587.3,3883.9 2876.1,-804.1 2446.7,-4328 1003.9,-5193.9 -849.9,-510.1 -1566.3,-276 -1795.8,661.1 -229.4,937.1 968.6,1506.3 566.4,2247.6 -402.1,741.3 -1973.1,745.4 -2335,-776.2 -361.9,-1521.6 896.7,-4176 953.4,-5871.8 53,-1585.4 -924,-3130.9 -2323.9,-3858.3 -1669.2,-867.4 -3035.2,-646.3 -3035.2,-646.3 l -56.6,1693.9"
         style="fill:#b74729;fill-opacity:1;fill-rule:nonzero;stroke:none"
         id="path30" /><path
         d="m 33863.6,24155.8 c -217.2,529.3 -601.1,1002.9 -1191.4,1328.1 -0.1,14.8 -0.7,29.5 -1.7,43.9 -8.2,118.3 -31.9,216.8 -70.8,294.8 814.5,-441.2 1137.7,-1135.9 1263.9,-1666.8 m -5448.6,906 c 175.2,224.8 374.4,423.4 594.8,589.9 52.9,40 106.9,78 161.7,114 -170.1,-226.9 -349,-454 -535.7,-647.6 -72,-15.3 -145.6,-33.9 -220.8,-56.3 m 3339.2,781.3 c 26.6,91.9 48.8,185.6 62.6,276.2 38.6,-9.8 77.3,-20.1 116.1,-30.9 69.8,-19.5 137.1,-40.5 202.1,-62.9 -121.4,-28.2 -250,-95.3 -380.8,-182.4"
         style="fill:#d08774;fill-opacity:1;fill-rule:nonzero;stroke:none"
         id="path32" /><path
         d="m 26732.5,13114.4 c -84.8,250.2 -174.2,489.9 -265.9,713.9 441.5,101.7 938.5,262.7 1463.1,514.2 1017,488 1830.9,1339.2 2244.2,2322.7 -181.2,-1269.5 -1012.1,-2454 -2202.7,-3072.6 -440.9,-229.2 -861.1,-380 -1238.7,-478.2"
         style="fill:#9e321d;fill-opacity:1;fill-rule:nonzero;stroke:none"
         id="path34" /><path
         d="m 32162,20943.7 c -104.9,0 -203,18.6 -292.8,56.1 -252.7,105.4 -436,363.9 -529.9,747.7 -59.7,243.6 -6.3,459.2 93.4,668.4 186.9,-481.9 542.7,-726.6 992.7,-726.7 270.1,0 574.2,88.3 896,266.3 141.1,78.2 273.6,177.8 395.3,294.9 -184,-467.2 -469.6,-855.2 -819.1,-1065 -267.3,-160.5 -516.4,-241.7 -735.6,-241.7"
         style="fill:#9e321d;fill-opacity:1;fill-rule:nonzero;stroke:none"
         id="path36" /><path
         d="m 25164.8,12949.2 c 371.5,-26.8 1497.7,-36.7 2806.4,643.4 1388.7,721.6 2288,2213 2237.9,3711.1 -23.1,690.4 -249.6,1540 -489.4,2439.5 -334.2,1253.5 -679.7,2549.7 -459.7,3474.7 183,769.6 695.2,1282.4 1370.1,1371.9 535.2,70.9 1041.8,-152.7 1260.8,-556.5 248.6,-458.1 3.6,-849.1 -233.3,-1227.1 -213.6,-340.8 -415.3,-662.7 -318.3,-1058.7 93.9,-383.8 277.2,-642.3 529.9,-747.7 277.6,-115.9 633.2,-51.6 1028.4,185.6 716.4,430 1164.2,1608.5 1019.4,2683.1 -87.2,646.2 -460.7,1794 -1984.1,2219.9 -1119.6,313 -2130.4,162 -2923.1,-436.7 -909,-686.5 -1455.3,-1917.9 -1461.4,-3294 -3,-668.2 276.9,-1434.7 573.3,-2246.3 485.1,-1328.3 1034.9,-2833.8 315.9,-4139.6 -611.5,-1110.6 -1536.3,-1495 -2204.6,-1621.9 -473.2,-89.8 -882.3,-67.1 -1113.7,-39.4 l 45.5,-1361.3 m 278.3,-330.9 c -274.4,0 -439.6,25.3 -458.9,28.4 l -129.8,21 -67.9,2031.5 201.1,-44.8 c 86.5,-18.9 2117.5,-440.2 3170,1471.6 648.9,1178.4 148.1,2549.7 -336.1,3875.8 -306.5,839.2 -596,1631.8 -592.7,2357.3 6.5,1475.2 600.3,2801.4 1588.3,3547.6 875.4,661.1 1982.6,830.4 3201.9,489.5 1241.4,-347.1 2048.6,-1252.8 2214.7,-2485.1 163.2,-1211.3 -340.5,-2500.9 -1171.7,-2999.7 -485.7,-291.6 -940.8,-363 -1315.8,-206.6 -350.2,146 -598.3,480.3 -717.4,966.7 -129.1,527.2 129.7,940.1 358,1304.4 237.3,378.7 375,625.1 223.2,905 -153.9,283.6 -539.7,444.9 -937.9,392.1 -538.3,-71.4 -950,-493.5 -1101.2,-1129.1 -201.3,-846.6 133.7,-2103.2 457.6,-3318.4 244.7,-917.6 475.8,-1784.3 500,-2511.1 54.1,-1618.6 -914.4,-3228.3 -2410,-4005.4 -1132.7,-588.6 -2124.2,-690.7 -2675.4,-690.7"
         style="fill:#650000;fill-opacity:1;fill-rule:nonzero;stroke:none"
         id="path38" /><path
         d="m 30083,22843.3 c 0,0 2197.4,-513.9 2106.6,-36.9 -90.9,476.9 -811.6,669.3 -811.6,669.3 0,0 1181.7,1340.8 1133.1,2041 -55.3,794.7 -838.4,67.6 -1104.3,-143.2 0,0 467,1027.9 165.2,1183.7 -254.7,131.5 -1060.4,-831.4 -1060.4,-831.4 0,0 335.5,1041.2 -76.7,1095 -542.3,70.9 -1323.2,-1852.7 -2330.2,-2301.2 L 30083,22843.3"
         style="fill:#ffca9f;fill-opacity:1;fill-rule:nonzero;stroke:none"
         id="path40" /><path
         d="m 30156.8,22990.2 c 853.3,-196.2 1697.3,-281.9 1870.9,-192 -75.9,295.8 -521.7,477.3 -691.2,523.2 -53.3,14.4 -95.5,55.4 -111.4,108.2 -15.9,52.9 -3.5,110.3 33,151.8 316.4,359.2 1129.6,1405.1 1093.5,1924.2 -9.5,137.1 -42.8,198.6 -68.4,209.7 -90.8,39.2 -323.9,-94.6 -692.1,-397.8 -32,-26.3 -60.6,-49.8 -85,-69.2 -57.8,-45.8 -139.6,-46.1 -197.7,-0.7 -58.1,45.4 -77.6,124.8 -47.1,192 202.4,446.1 292.1,874.1 241,968.6 -135.7,-26.1 -530.6,-381.8 -868.2,-784.9 -49,-58.6 -132.8,-74.2 -199.6,-37.4 -67,37 -98.4,116.1 -75,188.9 86.1,268.1 172.7,729.2 85.1,867.5 -9.6,15.1 -16.8,18.3 -30.4,20.1 -169,21.9 -520.8,-456.5 -803.7,-840.9 -359.1,-488.1 -759.8,-1032.7 -1224.8,-1330.5 l 1771.1,-1500.8 m 1537.1,-544.8 c -533.7,0 -1267.5,153.5 -1647.3,242.2 -24.6,5.8 -47.6,17.4 -66.9,33.7 l -1978.3,1676.4 c -41.9,35.5 -62.6,90.1 -54.9,144.5 7.8,54.4 43,101 93.2,123.4 481.2,214.3 923.3,815.2 1313.4,1345.3 417.1,567 746.5,1015.1 1102.5,968.4 109.7,-14.3 199.3,-71.8 259,-166 86.3,-136.3 96.3,-342.9 76.4,-544.2 315.9,311.2 643.1,539.2 854.3,430.1 247.7,-127.9 210.4,-505.8 108.9,-856.1 235.2,156.6 462.8,248.6 655.4,165.7 155.6,-66.9 243.4,-228.8 260.9,-481 42.4,-610.8 -688,-1574 -1022.1,-1980.2 250.8,-108.5 625.7,-331 698.1,-711.4 18.8,-98.2 -9.8,-189.7 -80.5,-257.5 -101.3,-97.2 -313.2,-133.3 -572.1,-133.3"
         style="fill:#650000;fill-opacity:1;fill-rule:nonzero;stroke:none"
         id="path42" /><path
         d="m 14237,16719.1 c -242.5,93.4 -397.9,164.6 -407.5,168.5 l -0.4,0.4 c -3387.1,151.1 -4784.57,1894.1 -5211.25,2648 l -0.4,0.4 c -19.98,35.6 -37.55,68.7 -53.53,99.5 -702.75,1362.7 -356.37,3270.8 888.91,4154.9 751.07,532.9 1723.07,857.3 2690.67,924.9 740.3,51.5 1478.2,-47.6 2112.6,-318.4 681.2,-290.9 942.5,-1087.5 893.4,-1568.5 -147.9,-1445.5 -1313.6,-1820.6 -2785,-2242.1 -143.5,-41.1 -256.5,-89.1 -343.2,-143 -751.1,-463 477.8,-1331.2 1148.6,-1526.5 0,0 23.1,18.8 66.7,51.9 418.7,316.4 2703.9,1922.8 3804.1,147 193.4,-312.4 350,-729.5 453.5,-1277.2 9.2,-46.8 17.6,-94.3 25.6,-143 360.7,-2181.8 -2250.1,-1374.8 -3282.8,-976.8"
         style="fill:#b74729;fill-opacity:1;fill-rule:nonzero;stroke:none"
         id="path44" /><path
         d="m 12515.5,24568.9 c -1041.3,0 -2135.5,-316.1 -2970.15,-908.6 -1141.43,-810.3 -1525.9,-2619.8 -839.55,-3951.2 131.71,-255.6 530.32,-914.6 1385.1,-1514.2 990,-694.4 2250.1,-1080.4 3745.4,-1147.2 21,-0.9 41.6,-6 60.6,-14.9 643.3,-300.9 2468.6,-966.4 3179.2,-439.3 264.4,196.2 360.4,559.4 285.4,1079.7 -80.5,558.5 -330.3,965 -742.4,1208.3 -1192.7,703.9 -3370.7,-105.7 -3392.6,-113.9 -32.4,-12.3 -68,-13.7 -101.2,-4 -523.9,152.7 -1500.4,743 -1499.1,1326.9 0.5,205.9 121.4,485.9 694.4,650 1573.4,450.6 2538.2,817 2669.9,2104.7 42.1,411.4 -182.1,1142.6 -797,1405.2 -502.7,214.8 -1081.7,318.5 -1678,318.5 M 16302.3,16078 c -1033.6,-0.1 -2294.5,553 -2511.6,651.9 -1543.4,73.5 -2849.7,478.3 -3883.36,1203.4 -912.94,640.4 -1343.07,1352.8 -1485.63,1629.3 -356.03,690.7 -465.48,1551.6 -300.32,2362.1 171.57,841.9 611.55,1550.8 1238.95,1996.2 1397.16,991.9 3482.56,1254.1 4958.76,623.4 770.9,-329.3 1042.7,-1210.8 989.4,-1731.7 -163.2,-1595.7 -1492.6,-1976.3 -2899.9,-2379.4 -210.9,-60.3 -462.3,-169 -462.7,-343.5 -0.8,-318.4 683.2,-829.4 1219.8,-1004.1 359.3,128.2 2384.9,797.2 3615.3,71.5 500.1,-295 801.8,-778.9 896.9,-1438.3 93,-645.6 -45.4,-1110.6 -411.6,-1382.1 -253.3,-187.8 -594.2,-258.7 -964,-258.7"
         style="fill:#650000;fill-opacity:1;fill-rule:nonzero;stroke:none"
         id="path46" /><path
         d="m 30886.6,23237.5 c -4,-668.8 -302.4,-1351.2 -644.4,-1835.8 -1679.2,-2385.1 -5892,-3492.5 -5892,-3492.5 0,0 425.5,-819.4 1215.7,-2497.3 177,-376 372.3,-795.5 585.3,-1258.1 880.5,-1912.1 1539.3,-5067 630.8,-6260.3 -503,-661.2 -2538.9,-655.6 -2993.5,-170.6 -351.6,375.1 -521.4,622.4 -1062.7,1501.7 -951.7,1545.7 -2730.3,1565.7 -4328.3,1628.8 -1000,39.6 -2044.7,26.4 -2264.8,-1095.4 -185.8,-947.3 -236.2,-1788.2 -761.9,-2145.4 -266.1,-180.6 -690.8,-220.5 -1235.7,-206.5 -1181,29.9 -2104.6,935.2 -2409.1,2114.6 -177.7,688.3 -259.6,1307.2 -106.6,2170.1 324.8,1831.8 2186.5,2260.4 2186.5,2260.4 0,0 258.5,1356 23.6,2936.4 l -0.4,0.4 c -30.8,209.8 -70.8,423.9 -121.1,638.9 l 1261.3,601.6 2071.4,987.6 3585.6,1709.9 c 1305.2,187 2417.1,640.4 3381.5,1181.8 308.4,172.6 601.3,354.3 880.9,539.3 1461.4,968 2551.3,2021.9 3479.8,2332.4 1285.6,429.8 2027.5,-284.1 2247.6,-636.5 26.4,-42.7 50.8,-85.8 73.1,-129.4 141,-276.5 199,-574.9 197.4,-876.1"
         style="fill:#b74729;fill-opacity:1;fill-rule:nonzero;stroke:none"
         id="path48" /><path
         d="m 25488.1,22764.6 c 346.3,246.2 672.4,492.4 982.2,726.5 745.9,563.5 1390.2,1050.1 1949,1236.9 259.4,86.7 496.5,123.1 710.9,123.1 706.5,0 1165.1,-395.9 1350.2,-692.6 98.9,-158.6 164.9,-327.2 203.6,-501.3 -361.3,578.8 -948.5,872.5 -1583.9,872.5 -493.2,0 -1015.3,-176.8 -1483.9,-534.4 -739.1,-564.1 -1405.6,-940.9 -2128.1,-1230.7"
         style="fill:#d08774;fill-opacity:1;fill-rule:nonzero;stroke:none"
         id="path50" /><path
         d="m 25111.2,15997.4 c -574.6,677.3 -938.1,838.4 -1222.2,838.4 -128.8,0 -241.2,-33.1 -349.6,-66.2 -108.4,-33 -212.8,-66.1 -325.5,-66.1 -49.1,0 -99.7,6.2 -152.9,21.6 -503.8,145.4 757,705.9 571.3,1017.5 -185.4,312 -1929.7,287.3 -658,807.4 987.2,403.5 2278,-254.1 6114.1,2234.5 1271.7,825 1568.3,2015.9 1608.5,2809.5 134.2,-730.2 -193.9,-1544.4 -585.4,-2100.5 -1625.7,-2309 -5760.6,-3419 -5802.2,-3429.9 -46.9,-12.4 -85.7,-45.5 -105.4,-89.8 -19.7,-44.4 -18.1,-95.4 4.3,-138.5 4.4,-8.5 320.5,-618.7 903,-1837.9"
         style="fill:#9e321d;fill-opacity:1;fill-rule:nonzero;stroke:none"
         id="path52" /><path
         d="m 13806.1,13951.4 h 0.5 -0.5 M 25134.2,7216.5 c -543.6,0 -1185.1,101.3 -1462.5,397.1 -364.1,388.4 -547.2,658.7 -1081.9,1527.1 -877.5,1425.2 -2489.9,1487.3 -4049.2,1547.4 l -149.5,5.8 c -1038.3,41.1 -1912.8,-3.5 -2101.6,-966.6 -31.7,-161.8 -59.6,-321.4 -86.6,-475.7 -134.8,-771.4 -251.2,-1437.7 -742.5,-1771.3 -266.6,-181.1 -664.3,-251.2 -1329.5,-234.2 -1193.6,30.4 -2222.3,928.4 -2559.7,2234.6 -180.1,697 -267.5,1344.4 -109,2238.2 293.4,1654.6 1790.3,2230 2202.8,2358.3 59.5,385.8 247.3,1874.8 -112.5,3413.5 -20.1,85.9 33.2,171.9 119.2,192 86,19.9 171.9,-33.3 192,-119.2 432.1,-1847.8 113.1,-3569.7 99.3,-3642.1 -11.8,-62.2 -59.3,-111.6 -121.1,-125.8 -71.6,-16.7 -1763.2,-430.1 -2065,-2132.5 -148.9,-839.8 -70.7,-1427.1 103.8,-2102.4 301.3,-1166.6 1208.9,-1968.4 2258.3,-1995.1 585.4,-14.6 937.5,40.4 1141.8,179.1 379.4,257.6 485,862 607.3,1561.9 27.2,155.9 55.4,317.1 87.8,482.2 256.8,1310.2 1563.3,1258.5 2427.8,1224.4 l 149.2,-5.8 c 1566.6,-60.3 3342.2,-128.7 4309.1,-1699.1 554.7,-901 710.7,-1121.7 1042.9,-1476.1 188.9,-201.5 790.4,-324.1 1430.4,-291 627.7,32.2 1133.3,204.3 1319.5,448.9 877.4,1152.9 187,4281.6 -648.7,6097 -1148,2493.9 -1791.6,3736 -1797.9,3748.2 -22.4,43.1 -24,94.1 -4.3,138.5 19.7,44.3 58.5,77.4 105.4,89.8 41.6,10.9 4176.5,1120.9 5802.2,3429.9 496.9,705.7 891.6,1827 368.9,2665 -241.3,386.7 -946.9,941.9 -2061.1,569.5 -558.8,-186.8 -1203.1,-673.4 -1949,-1236.9 -1447.8,-1093.6 -3249.6,-2454.7 -5821.2,-2823.3 -87.6,-12.5 -168.4,48.2 -180.8,135.5 -12.6,87.4 48.1,168.3 135.4,180.9 2490.1,356.9 4255.4,1690.4 5673.9,2761.9 768.4,580.4 1432,1081.7 2040.4,1285 1302.8,435.6 2142.7,-237.2 2433.5,-703.5 605.5,-970.6 174.5,-2232.5 -378.6,-3018.1 -1508.1,-2141.8 -4936.4,-3252 -5791.9,-3501.7 214.3,-423.3 808.1,-1616 1715.5,-3587.1 836.2,-1816.6 1609.3,-5114.6 612.6,-6424.1 -353.6,-464.6 -1206.9,-556.6 -1557.4,-574.5 -69.8,-3.6 -142.7,-5.6 -217.5,-5.6"
         style="fill:#650000;fill-opacity:1;fill-rule:nonzero;stroke:none"
         id="path54" /><path
         d="m 22325.7,14018.5 c 0,-1660.7 -1684.9,-2805.3 -3802.4,-2805.3 -2195.8,0 -3570.4,1184.7 -3678.6,2754.8 -114.3,1660.5 1304.6,3575.6 3285.6,3854.2 2426.3,341.2 4195.4,-1830.5 4195.4,-3803.7"
         style="fill:#ffca9f;fill-opacity:1;fill-rule:nonzero;stroke:none"
         id="path56" /><path
         d="m 21613.8,20144.8 c 0,0 -1514.1,-3819.5 -3888.5,-3980.3 -2755.7,-186.7 -3425.3,4261.4 -3425.3,4261.4 l -295.6,28.2 c 0,0 373,-4876.8 3716.9,-4735.2 3011.1,127.6 4294.2,4538 4294.2,4538 l -401.7,-112.1"
         style="fill:#ffc83e;fill-opacity:1;fill-rule:nonzero;stroke:none"
         id="path58" /><path
         d="m 17577.6,15835.7 c -1261.8,0 -2222.3,753.1 -2856.3,2239.7 -21.2,49.6 -41.6,99.3 -61.4,149 12.3,-4.2 24.5,-8.3 36.8,-12.4 473.6,-1143.2 1332.8,-2249.1 2883.3,-2249.3 46.7,0 93.4,0.9 141.4,3 1722.1,73.2 2852.8,1547.2 3505.2,2795.6 17.5,8.9 35.1,17.8 52.5,26.8 -644.5,-1263 -1806.8,-2875 -3562.9,-2949.4 -46.6,-2 -92.8,-3 -138.6,-3"
         style="fill:#d08c2b;fill-opacity:1;fill-rule:nonzero;stroke:none"
         id="path60" /><path
         d="m 14138.7,20320.9 c 41.7,-353.8 184.1,-1311.3 582.6,-2245.5 657,-1540.6 1664.6,-2293.4 2994.9,-2236.7 2518.3,106.7 3815.5,3375.3 4115.7,4242.5 l -129.3,-36 c -205.1,-494.5 -1677.4,-3845.1 -3969.2,-4000.3 -1180.4,-80.3 -2170.1,656.3 -2862.6,2129.3 -434,923.1 -621.9,1849 -673.8,2141.1 l -58.3,5.6 m 3443.5,-4724.8 c -1352.9,-0.1 -2416.9,823.5 -3083.6,2390.4 -513,1205.7 -609.8,2407.8 -613.7,2458.4 -2.7,35.3 10.3,69.9 35.6,94.7 25.2,24.8 60.1,37.3 95.3,33.8 l 295.6,-28.2 c 54.8,-5.2 98.9,-47.1 107.1,-101.4 6.6,-43.4 685.8,-4337.4 3298.7,-4159.7 2271.2,153.8 3770.3,3867.4 3785.2,3904.9 13.7,34.8 43.1,61.2 79.2,71.3 l 401.7,112 c 41.8,11.7 86.8,-0.3 117.4,-31.2 30.6,-30.9 42,-76 29.9,-117.7 -13.3,-45.7 -333.4,-1131.3 -1031.3,-2251.1 -934.1,-1498.6 -2100.4,-2319.2 -3372.9,-2373.1 -48.4,-2.1 -96.6,-3.1 -144.2,-3.1"
         style="fill:#650000;fill-opacity:1;fill-rule:nonzero;stroke:none"
         id="path62" /><path
         d="m 18859.7,14807.2 c 0,-749.6 -607.7,-1357.2 -1357.2,-1357.2 -749.6,0 -1357.2,607.6 -1357.2,1357.2 0,749.5 607.6,1357.1 1357.2,1357.1 749.5,0 1357.2,-607.6 1357.2,-1357.1"
         style="fill:#ffc83e;fill-opacity:1;fill-rule:nonzero;stroke:none"
         id="path64" /><path
         d="m 18576.1,14821 c 0,-593.1 -480.7,-1073.7 -1073.7,-1073.7 -593,0 -1073.7,480.6 -1073.7,1073.7 0,99.3 13.5,194.9 38.9,286.1 125.4,-454.1 541.1,-787.2 1034.8,-787.2 493.7,0 909.4,333.1 1034.8,787.2 25.4,-91.2 38.9,-186.8 38.9,-286.1"
         style="fill:#fc9e17;fill-opacity:1;fill-rule:nonzero;stroke:none"
         id="path66" /><path
         d="m 17502.5,16464.3 c -913.8,0 -1657.2,-743.4 -1657.2,-1657.1 0,-913.8 743.4,-1657.2 1657.2,-1657.2 913.8,0 1657.2,743.4 1657.2,1657.2 0,913.7 -743.4,1657.1 -1657.2,1657.1 z m 0,-300 c 749.5,0 1357.2,-607.6 1357.2,-1357.1 0,-749.6 -607.7,-1357.2 -1357.2,-1357.2 -749.6,0 -1357.2,607.6 -1357.2,1357.2 0,749.5 607.6,1357.1 1357.2,1357.1"
         style="fill:#650000;fill-opacity:1;fill-rule:nonzero;stroke:none"
         id="path68" /><path
         d="m 17942.5,15073.4 -348.5,47.8 7.9,57.8 c 8.4,61.5 9.9,102.4 4.5,122.4 -5.4,20.1 -21.4,32 -47.9,35.6 -21.2,2.9 -38.3,-3.1 -51.2,-18 -12.9,-14.9 -21.6,-38.8 -26.1,-71.6 -7.5,-54.6 -1.8,-94.3 17,-119.2 18.3,-24.8 75.2,-75.9 170.6,-153.5 81.2,-65.6 135.9,-114.9 164.2,-147.8 28.3,-32.9 50,-76.9 65,-131.9 15,-55.1 17.1,-121.5 6.5,-199.1 -17.1,-124.3 -60.4,-217.6 -129.9,-280.2 -69.5,-62.5 -165.2,-93.9 -287.2,-94.1 l -18,-131.1 -160.4,22 18.6,135.4 c -91.9,22 -168.4,69 -229.4,141 -61,71.9 -80.9,185.5 -59.5,340.8 l 9.3,68.2 348.5,-47.9 -11.7,-85.4 c -12.9,-93.8 -17.3,-152.5 -13.2,-176.2 4.1,-23.7 19.9,-37.4 47.5,-41.2 23.6,-3.3 42.2,2.2 55.9,16.5 13.7,14.2 22.6,36.9 26.9,67.9 10.7,78.2 12.9,134.9 6.6,170.1 -6.3,35.1 -38.6,76.9 -97,125.3 -97.2,81.4 -162.8,140.3 -196.8,176.9 -33.9,36.6 -60.9,85.3 -81,146.1 -20,60.7 -25.1,127 -15.3,198.9 14.3,104.1 55,181.7 122.1,232.9 67.1,51.1 160.5,75.5 280.3,73.1 l 15.3,111.3 160.4,-22.1 -15.3,-111.2 c 105.7,-28.6 181.3,-75.8 226.7,-141.5 45.5,-65.7 61.2,-150 47,-253 -2,-14.3 -6.1,-36 -12.4,-65"
         style="fill:#ffffff;fill-opacity:1;fill-rule:nonzero;stroke:none"
         id="path70" /><path
         d="m 23721.2,26051.5 c 0,0 49.2,1213.3 1325.2,1379.5 1225.6,159.6 1931.4,-958.6 1907.6,-1871.9 -25,-959.6 -452.8,-1524.3 -1158.6,-1850.1 -737.4,-340.4 -1561.8,-261.9 -1561.8,-261.9 l -512.4,2604.4"
         style="fill:#ffca9f;fill-opacity:1;fill-rule:nonzero;stroke:none"
         id="path72" /><path
         d="m 26748,25457.9 c -68.8,807.4 -670.3,1688.4 -1669.6,1688.4 -75.1,0 -152.5,-5 -232,-15.3 -86.3,-11.3 -167,-27.3 -242.4,-47.4 -2,18.4 -4.2,36.7 -6.4,55.1 131.1,62.6 286.1,109.9 469.4,133.8 70.9,9.2 140.8,13.8 209.5,13.8 354.8,0 676.8,-122.7 940.5,-360.5 354.4,-319.5 578.6,-835.6 577.8,-1324.3 -14.2,-49.2 -29.8,-97.1 -46.8,-143.6"
         style="fill:#ffdcc1;fill-opacity:1;fill-rule:nonzero;stroke:none"
         id="path74" /><path
         d="m 23789,25526.4 c 0,0 33.6,659.5 769.2,755.2 706.6,92 1108.3,-512.5 1090.7,-1008.9 -18.5,-521.4 -267.3,-830.1 -675.3,-1010.2 -426.1,-188 -900.6,-148.9 -900.6,-148.9 l -284,1412.8"
         style="fill:#f28475;fill-opacity:1;fill-rule:nonzero;stroke:none"
         id="path76" /><path
         d="m 24183.5,23950.4 c -72.4,0 -117.6,3.4 -123.6,3.9 -88,7.3 -153.4,84.5 -146.1,172.4 7.2,88 84,153.8 172.4,146.2 4.1,-0.3 441,-32.7 822.9,135.8 380.7,168.1 565,444.4 580.1,869.7 8.6,241.6 -98.7,494.1 -279.9,659.1 -117.4,106.9 -322,225.7 -630.5,185.6 -579.5,-75.4 -626.8,-551.8 -630.2,-605.8 -5.7,-87.7 -80.6,-154.8 -168.7,-149.9 -87.7,5.1 -154.9,79.4 -150.5,167.2 14,274.1 221.7,816.1 908.2,905.5 429.9,56 719.4,-113.9 886.8,-266.2 248.8,-226.5 396,-574 384.2,-906.8 -19.4,-546.5 -278.6,-933.6 -770.4,-1150.7 -326.8,-144.3 -674.6,-166 -854.7,-166"
         style="fill:#650000;fill-opacity:1;fill-rule:nonzero;stroke:none"
         id="path78" /><path
         d="m 24455.1,23279.2 c -138.3,0 -225.7,7.8 -236.6,8.9 -87.9,8.3 -152.3,86.3 -143.9,174.2 8.3,87.8 86.5,152.3 174.2,143.9 7.7,-0.7 792.3,-69.4 1479.6,247.9 705.3,325.5 1044,868.6 1065.9,1709.1 13,499.9 -213.6,1034.7 -577.3,1362.6 -314.8,283.8 -712.4,403.7 -1150,346.7 -1129.4,-147.1 -1184.4,-1183.4 -1186.2,-1227.5 -3.5,-88.2 -78.7,-156.8 -166.1,-153.2 -88.2,3.6 -156.8,78 -153.2,166.2 0.5,13.4 70.8,1349.9 1464.2,1531.4 533,69.5 1019,-77.9 1405.4,-426.2 436.6,-393.7 698.2,-1010 682.7,-1608.3 -25.1,-962.6 -434.4,-1613.9 -1251.5,-1991 -530.9,-245.1 -1096.9,-284.7 -1407.2,-284.7"
         style="fill:#650000;fill-opacity:1;fill-rule:nonzero;stroke:none"
         id="path80" /><path
         d="m 11171.9,24429.7 c 0,0 -356,1160.9 -1632.29,997.3 -1225.95,-157.2 -1624.29,-1418.1 -1369.11,-2295.4 268.12,-921.7 825.42,-1359.1 1590.92,-1494.8 799.58,-141.7 1576.98,143.8 1576.98,143.8 l -166.5,2649.1"
         style="fill:#ffca9f;fill-opacity:1;fill-rule:nonzero;stroke:none"
         id="path82" /><path
         d="m 8359.48,23139.7 c -15.62,24 -30.84,48.4 -45.81,73.5 -125.02,472.4 -39.36,1028.5 222.13,1427.5 232.32,354.6 586.47,571.7 1024.13,627.8 76.29,9.8 148.8,14.4 217.86,14.4 121.45,0 231.91,-14.2 332.31,-38.9 5,-34.7 10.2,-69.3 15.8,-104 -31.3,1.9 -63.4,2.8 -96.1,2.8 -76.16,0 -156.22,-5.1 -240.19,-15.8 -1088.2,-139.6 -1524.32,-1148.7 -1430.13,-1987.3"
         style="fill:#ffdcc1;fill-opacity:1;fill-rule:nonzero;stroke:none"
         id="path84" /><path
         d="m 8449.4,22828.5 c -24.75,56 -47.97,114.3 -69.63,174.9 -8.35,44.8 -15.12,90.3 -20.29,136.3 43.92,-67.5 90.47,-130.9 139.45,-190.2 -17.24,-40 -33.71,-80.3 -49.53,-121"
         style="fill:#d08d6f;fill-opacity:1;fill-rule:nonzero;stroke:none"
         id="path86" /><path
         d="m 8379.77,23003.4 c -19.89,55.6 -38.49,113.2 -55.83,172.8 -3.57,12.3 -6.99,24.6 -10.27,37 14.97,-25.1 30.19,-49.5 45.81,-73.5 5.17,-46 11.94,-91.5 20.29,-136.3"
         style="fill:#d09a87;fill-opacity:1;fill-rule:nonzero;stroke:none"
         id="path88" /><path
         d="m 24753.1,23612.5 c -13,17.1 -26.3,33.9 -40,50.4 -108,129.8 -233.2,228.1 -371.2,292.8 169,11.1 393.3,43.3 615.2,127.5 218,44.3 450.2,112.4 675,216.3 530.1,244.8 916.8,612.3 1115.9,1158.4 5.7,-67 7.7,-133.4 6,-198.8 -1.3,-49 -3.6,-97 -7,-144 -116.8,-591.2 -447.5,-997.4 -1018.6,-1261 -335.9,-155.1 -695,-218 -975.3,-241.6"
         style="fill:#d08d6f;fill-opacity:1;fill-rule:nonzero;stroke:none"
         id="path90" /><path
         d="m 26747,25115.1 c 3.4,47 5.7,95 7,144 1.7,65.4 -0.3,131.8 -6,198.8 17,46.5 32.6,94.4 46.8,143.6 0,-12.8 -0.2,-25.5 -0.5,-38.3 -4.2,-159.9 -19.8,-309.1 -47.3,-448.1"
         style="fill:#d09a87;fill-opacity:1;fill-rule:nonzero;stroke:none"
         id="path92" /><path
         d="m 24341.9,23955.7 c -41.8,19.6 -84.8,36.1 -128.8,49.4 188.8,2.3 453.8,19.1 744,78.1 -221.9,-84.2 -446.2,-116.4 -615.2,-127.5"
         style="fill:#650000;fill-opacity:1;fill-rule:nonzero;stroke:none"
         id="path94" /><path
         d="m 24853.6,23461.2 c -30.7,52.5 -64.1,103.2 -100.5,151.3 280.3,23.6 639.4,86.5 975.3,241.6 571.1,263.6 901.8,669.8 1018.6,1261 27.5,139 43.1,288.2 47.3,448.1 0.3,12.8 0.5,25.5 0.5,38.3 44.5,154.1 75.4,321.3 91.8,502.6 49,-181.9 72.2,-367.5 67.4,-544.9 -25,-959.8 -452.8,-1524.6 -1158.5,-1850.3 -322.7,-148.9 -662.2,-217.6 -941.9,-247.7"
         style="fill:#650000;fill-opacity:1;fill-rule:nonzero;stroke:none"
         id="path96" /><path
         d="m 11239.8,23904.6 c 0,0 -200.1,629.3 -935.9,534.9 -706.76,-90.7 -941.59,-777.5 -798.38,-1253 150.47,-499.7 469.58,-734.9 909.88,-805.4 460,-73.5 908.9,84.9 908.9,84.9 l -84.5,1438.6"
         style="fill:#f28475;fill-opacity:1;fill-rule:nonzero;stroke:none"
         id="path98" /><path
         d="m 9505.56,23186.4 c 150.49,-499.5 469.45,-734.7 909.74,-805.2 50.4,-7.9 100.5,-13.2 150,-16.3 403.1,-24.3 759.1,101.1 759.1,101.1 l -84.4,1438.8 c 0,0 -52.6,165.4 -203.4,314 -142.9,141.2 -374,266.9 -732.6,220.9 -706.84,-91 -941.66,-777.5 -798.44,-1253.3"
         style="fill:#f28475;fill-opacity:1;fill-rule:nonzero;stroke:none"
         id="path100" /><path
         d="m 24321,24274.9 c 121.2,332.7 209.7,705.9 263.3,1104.7 325.6,-130.5 490.7,-414 468.3,-666.5 -8.6,-98.4 -31.2,-187.3 -66.5,-267.5 -24.7,-12.8 -50.4,-25.1 -77,-36.9 -205.4,-90.6 -426.7,-123.1 -588.1,-133.8"
         style="fill:#c75c52;fill-opacity:1;fill-rule:nonzero;stroke:none"
         id="path102" /><path
         d="m 24255.8,24107.3 c 22.7,54.6 44.4,110.5 65.2,167.6 161.4,10.7 382.7,43.2 588.1,133.8 26.6,11.8 52.3,24.1 77,36.9 -41.4,-94 -100.4,-176.1 -175.2,-248 -207.2,-57.5 -410.9,-80.9 -555.1,-90.3"
         style="fill:#650000;fill-opacity:1;fill-rule:nonzero;stroke:none"
         id="path104" /><path
         d="m 10671.5,22201.8 c -90.9,0 -185.7,6.2 -281.3,21.5 -530.89,85 -880.01,393.5 -1037.71,917.1 -96.04,318.9 -41.96,692.4 141.13,974.7 123.11,189.9 360.12,427.8 789.98,482.9 686.8,88 1025.3,-383.4 1108.5,-644.9 26.7,-84.1 -19.8,-174 -103.9,-200.7 -83.7,-26.7 -173.3,19.4 -200.4,103 -17.4,52.2 -184.4,500 -763.5,425.6 -308.5,-39.6 -476.17,-206.6 -562.55,-339.8 -133.37,-205.6 -172.92,-477.2 -103.2,-708.6 122.71,-407.5 371.25,-627.9 782.15,-693.7 412.2,-65.9 826.5,76.5 830.6,77.9 83.3,28.9 174.5,-14.7 203.7,-97.9 29.2,-83.2 -14.4,-174.2 -97.5,-203.6 -16.1,-5.6 -327,-113.4 -706,-113.5"
         style="fill:#650000;fill-opacity:1;fill-rule:nonzero;stroke:none"
         id="path106" /><path
         d="m 10232,21437.4 c -160.5,-0.1 -328.67,12 -498.5,42.1 -886.03,157 -1447.48,682.8 -1716.45,1607.5 -167.16,574.7 -70.82,1237.2 251.41,1728.9 285.14,435.1 717.66,701.2 1250.81,769.6 1394.03,178.8 1801.53,-1096 1805.43,-1108.9 25.9,-84.4 -21.5,-173.8 -105.9,-199.7 -84.3,-25.8 -173.5,21.5 -199.6,105.6 -13.7,43.8 -337.3,1030.1 -1459.27,886 -437.66,-56.1 -791.81,-273.2 -1024.13,-627.8 -268.36,-409.5 -351.54,-984.3 -211.86,-1464.5 234.84,-807.3 700.46,-1246.4 1465.35,-1382 745.51,-132.2 1486.71,133.8 1494.11,136.5 83,30.3 174.6,-12.4 205,-95.1 30.3,-82.8 -12.1,-174.6 -94.9,-205 -26.6,-9.7 -535.2,-193.2 -1161.5,-193.2"
         style="fill:#650000;fill-opacity:1;fill-rule:nonzero;stroke:none"
         id="path108" /><path
         d="m 18282,32623.2 -272.5,18.4 c 90.7,-4 181.8,-10 272.5,-18.4"
         style="fill:#b17e4f;fill-opacity:1;fill-rule:nonzero;stroke:none"
         id="path110" /><path
         d="m 18300,32621.6 c -6,0.8 -12,1.2 -18,1.6 l 23.6,-1.6 h -5.6"
         style="fill:#b17e4f;fill-opacity:1;fill-rule:nonzero;stroke:none"
         id="path112" /><path
         d="m 24956.2,22156.4 c -113.4,-868.9 -771,-1444.6 -1742.2,-1908.5 l -1497.8,-193.3 -8519.6,-1101.1 c -1057.1,201.4 -1839.3,591.3 -2169.7,1402.7 -236.5,579.7 -233.3,1683.9 509.4,1921.7 -618.1,671.1 -1041.5,1732.2 -1230.5,2758.2 -469.04,2546.9 825.8,4979.1 2960.4,6370.6 -36.8,225.3 -51.2,432.6 -51.2,618.8 0,410.3 69.9,718.7 123.1,895.3 26.3,85.9 126.2,125.1 204.1,79.5 224.9,-131 476.2,-373.1 627.6,-434.6 82.8,-33.6 175,17.5 190.2,105.4 68.3,395.5 203.8,901.7 302.4,1110.3 40.8,86.7 154.3,107.4 223.4,41.1 249.7,-240.9 842.1,-695.1 1616,-892.5 720.7,-184.2 1216.9,-258.1 1504.2,-288 h 0.4 c 1.1,0 1.9,0 3.1,-0.4 167.8,-17.6 263.7,-19.6 290.5,-20 2,0 4,-0.4 6,-0.4 1.2,0 1.6,0 1.6,0 3181.7,-281.7 5919.1,-2601.6 6156,-5755.4 78,-1040.3 -61.5,-2174.5 -488.6,-2980.3 492.6,-26 787.5,-463.1 916.5,-938.1 75.1,-275.2 94.7,-563.3 64.7,-791"
         style="fill:#b74729;fill-opacity:1;fill-rule:nonzero;stroke:none"
         id="path114" /><path
         d="m 24167.5,21039 c 162.2,296.9 261.6,607.3 287.5,880.7 142.6,219.6 255.2,450.7 339.3,692.2 19.4,-157 20.2,-307.9 3.7,-434.8 -56.8,-434.6 -258.4,-804.7 -630.5,-1138.1"
         style="fill:#9e321d;fill-opacity:1;fill-rule:nonzero;stroke:none"
         id="path116" /><path
         d="m 10400,26613.2 c 181,1819.2 1246.7,3546.9 2953.3,4659.7 l 36.3,23.7 42.5,84.9 -8.3,51 c -108.7,667.7 -12.9,1165.6 59.9,1416.7 89.9,-55.1 186.4,-129.5 280,-201.7 131.4,-101.3 244.9,-188.8 345.8,-229.8 36.5,-14.8 74.9,-22.2 113.1,-22.2 50.1,0 100,12.7 145.3,37.7 79.6,44.2 134.2,121.1 149.7,210.9 64.8,374.8 189,839.9 277.7,1043.8 159.2,-149.1 778.7,-686 1667,-912.7 716.6,-182.9 1214.7,-259.1 1511.6,-290.9 l 11.2,-1.2 c 171.2,-18 273.2,-20.9 309.6,-21.3 l 15.3,-1.2 h 0.3 c 2639.5,-239.7 4796.4,-1836.4 5634.3,-4009.4 -1062.5,2109.9 -3370.5,3513.5 -5908.9,3616.6 l -0.8,0.3 c -303.6,54.7 -794.7,147.8 -1452,285.7 -781.9,163.5 -1366.6,651.4 -1616.3,892.1 -27.5,26.6 -62.2,39.2 -96.6,39.2 -51.4,0 -102.1,-28.2 -126.6,-80.2 -99,-208.2 -233.9,-714.5 -302.2,-1110 -12,-69.5 -72.3,-115.9 -137.9,-115.9 -17.4,0 -35.2,3.3 -52.6,10.3 -151.3,61.8 -402.7,303.4 -627.6,434.8 -24.6,14.4 -44.1,21.3 -60.1,21.3 -34.4,0 -52.1,-32.3 -68.2,-91.5 -46.3,-170.2 -17.2,-572.3 100.5,-1294.7 -1708,-1066.2 -2851.7,-2688.3 -3195.3,-4446"
         style="fill:#d08774;fill-opacity:1;fill-rule:nonzero;stroke:none"
         id="path118" /><path
         d="m 13197,18793.7 c -9.9,0 -20,1 -30.1,2.9 -1240.5,236.3 -1967.6,712.7 -2288.2,1499.4 -165.5,405.7 -236.2,1072.8 -0.1,1578.6 93.4,200.1 229,355.7 398.3,459.3 -525.4,648.9 -932.1,1608.6 -1128.1,2673.3 -230.92,1254 -52.2,2539.3 517,3716.9 529.7,1095.9 1367.6,2048.2 2427.1,2759.7 -96.6,702.9 14.7,1227.2 92.5,1483.3 26.6,88 91.1,157.8 176.8,191.4 85.8,33.7 180.8,26.4 260.5,-20.1 113.8,-66.4 231.9,-157.4 336.1,-237.8 91.6,-70.5 185.9,-143.2 248.4,-176.1 66.6,374.1 198.7,888.8 310.7,1125.3 41.2,87.1 122.3,149.4 217,166.7 94.6,17.3 192.5,-12.3 261.8,-79.1 107.9,-104.1 689.7,-634.4 1544.6,-852.5 702.4,-179.3 1189.2,-252.7 1470.9,-282.8 l 1.2,-0.1 c 1.4,-0.1 2.8,-0.3 4.1,-0.4 99.8,-5 192.1,-11.3 281.3,-19.3 l 22.8,-1.8 c 1606,-142.3 3124.5,-796.3 4275.8,-1841.6 1190.8,-1081.3 1910.2,-2523.5 2025.7,-4061.2 80.8,-1080 -68.6,-2111.6 -411.4,-2872.2 189.8,-57.1 360.3,-173.1 501.4,-342.6 357,-429 458.5,-1092.4 401.8,-1527.1 -110.1,-842.2 -692.3,-1487.9 -1832.2,-2031.9 -79.7,-38 -175.1,-4.2 -213.1,75.4 -38,79.6 -4.2,175 75.4,213 1047.2,499.8 1557,1050.2 1653,1784.8 48.3,370.5 -51.1,945.5 -330.6,1281.4 -139.1,167.1 -307.5,257.1 -500.6,267.3 l -249.9,13.2 117.1,221.2 c 382.5,722 553.9,1776.7 470.4,2893.6 -222,2955.7 -2741.5,5311.4 -5994.1,5606.8 h -0.3 l -15.3,1.2 c -36.4,0.4 -138.4,3.3 -309.6,21.3 l -11.2,1.2 c -296.9,31.8 -795,108 -1511.6,290.9 -888.3,226.7 -1507.8,763.6 -1667,912.7 -88.7,-203.9 -212.9,-669 -277.7,-1043.8 -15.5,-89.8 -70.1,-166.7 -149.7,-210.9 -79.8,-44.1 -173.9,-49.8 -258.4,-15.5 -100.9,41 -214.4,128.5 -345.8,229.8 -93.6,72.2 -190.1,146.6 -280,201.7 -72.8,-251.1 -168.6,-749 -59.9,-1416.7 l 8.3,-51 -42.5,-84.9 -36.3,-23.7 c -2187.5,-1426.4 -3322,-3863.1 -2890.2,-6207.9 199.7,-1084.6 644.8,-2086.1 1190.6,-2678.9 l 169.5,-184.2 -238.3,-76.3 c -184.4,-59 -324.6,-188.9 -416.7,-386.2 -184.8,-395.9 -134.6,-977 6.5,-1322.8 279.6,-686.2 912.5,-1089 2052,-1306 86.7,-16.6 143.6,-100.2 127.1,-186.9 -14.6,-76.6 -81.6,-130 -156.8,-130"
         style="fill:#650000;fill-opacity:1;fill-rule:nonzero;stroke:none"
         id="path120" /><path
         d="m 15127.5,18204 c -41.4,85.1 -80.6,170.4 -117.8,255.6 188.3,-17.7 376.9,-31.7 565.8,-42.1 l -448,-213.5 m -766.3,131.1 c -214.7,86.6 -426.5,187.9 -632.3,306.3 172.5,-35 359,-67.1 559.1,-96.2 23.1,-69.5 47.4,-139.6 73.2,-210.1"
         style="fill:#9e321d;fill-opacity:1;fill-rule:nonzero;stroke:none"
         id="path122" /><path
         d="m 17352,17838.2 c -592.8,0 -1365.7,37.9 -2157,231 -23.1,44.8 -45.6,89.7 -67.5,134.8 l 448,213.5 c 272.1,-14.9 544.7,-22.4 817.4,-22.4 1546.1,0 3095.2,239.9 4577.2,710.7 -112.5,-200.5 -241.7,-416.6 -386.5,-636.5 -862.6,-350 -1721.6,-541.7 -2363.9,-615.6 -165.8,-0.4 -416.3,-12 -725.5,-14.8 -46.1,-0.5 -93.6,-0.7 -142.2,-0.7 m 4298.6,1155 c 68.9,147.6 130.1,287.5 183.7,416.4 332.6,128.4 630.9,255.8 892.8,381.4 -326.1,-306.3 -692.2,-570.9 -1076.5,-797.8"
         style="fill:#9e321d;fill-opacity:1;fill-rule:nonzero;stroke:none"
         id="path124" /><path
         d="m 14880.2,18154.3 c -61.2,18.2 -122.4,37.4 -183.5,57.7 -40.5,97.9 -78.2,196 -113.3,293.8 36,-4.4 72.5,-8.8 109.3,-13 13.2,-1.5 26.3,-3 39.4,-4.5 43.2,-104.1 89.4,-209.1 138.7,-314.1 3.1,-6.7 6.3,-13.3 9.4,-19.9 m 6105.8,490 c 122.7,202.6 231,396.9 324.3,574.1 55.7,19.1 111.1,38.6 166.6,58.4 -73.9,-164.1 -157.2,-337.5 -250.3,-515.5 -79.8,-40.5 -160,-79.4 -240.6,-117"
         style="fill:#d08c2b;fill-opacity:1;fill-rule:nonzero;stroke:none"
         id="path126" /><path
         d="m 14696.7,18212 c -12.3,4.1 -24.5,8.2 -36.8,12.4 -37.9,95.3 -73.2,190.6 -106.1,285 9.8,-1.2 19.7,-2.4 29.6,-3.6 35.1,-97.8 72.8,-195.9 113.3,-293.8 m 6529.9,549.3 c 93.1,178 176.4,351.4 250.3,515.5 14.1,5 28.1,10.1 42.2,15.1 -70,-157.6 -150,-327.3 -240,-503.8 -17.4,-9 -35,-17.9 -52.5,-26.8"
         style="fill:#b0621e;fill-opacity:1;fill-rule:nonzero;stroke:none"
         id="path128" /><path
         d="m 15195,18069.2 c -75.1,18.3 -150.4,38.1 -225.7,59.3 -29.7,8.4 -59.4,17 -89.1,25.8 -3.1,6.6 -6.3,13.2 -9.4,19.9 -49.3,105 -95.5,210 -138.7,314.1 92.4,-10.5 185,-20 277.6,-28.7 37.2,-85.2 76.4,-170.5 117.8,-255.6 21.9,-45.1 44.4,-90 67.5,-134.8 m -535.1,155.2 c -99.9,33.9 -199.6,70.7 -298.7,110.7 -25.8,70.5 -50.1,140.6 -73.2,210.1 86.1,-12.5 174.7,-24.4 265.8,-35.8 32.9,-94.4 68.2,-189.7 106.1,-285 m 5923.7,244.9 c 144.8,219.9 274,436 386.5,636.5 113.8,36.2 227.2,73.7 340.2,112.6 -93.3,-177.2 -201.6,-371.5 -324.3,-574.1 -133.5,-62.2 -268.2,-120.6 -402.4,-175 m 695.5,318.8 c 90,176.5 170,346.2 240,503.8 103.3,37.3 206.3,75.7 308.8,115.2 2.1,0.8 4.2,1.7 6.4,2.5 -53.6,-128.9 -114.8,-268.8 -183.7,-416.4 -122.3,-72.2 -246.2,-140.4 -371.5,-205.1"
         style="fill:#650000;fill-opacity:1;fill-rule:nonzero;stroke:none"
         id="path130" /><path
         d="m 17193.8,27306.7 c -216.2,1672.6 -3744.9,2699.8 -5248.8,-484.1 -9.4,-19.1 -17.8,-38.8 -26.7,-58.2 -1090,-2403.8 612.8,-4804 612.8,-4804 0,0 -1015.5,-417.5 -870.2,-1418.1 86.3,-594.1 747.4,-1361.8 1537.9,-1603.7 421,-130.4 952.3,-222.6 1512.3,-287.1 2390.3,-276.6 4814.3,39 7059.3,904.7 541.4,208.8 1051.7,437.8 1445.4,676.9 703.1,434.9 1147.7,1345.6 1079.8,1942 -113.9,1004.6 -1201.8,1150.3 -1201.8,1150.3 0,0 1036.3,2754.3 -629,4802 -13.1,16.5 -26.7,33.4 -40.6,49.5 -2263.6,2697 -5415.6,806.5 -5199.4,-866.2 l -31,-4"
         style="fill:#ffca9f;fill-opacity:1;fill-rule:nonzero;stroke:none"
         id="path132" /><path
         d="m 17370.7,27929.7 c -6,47.2 -14.8,93.9 -26.3,139.9 15.1,35.1 31.5,70.3 49.5,105 -4.8,-80.7 -2.4,-161 8,-240.9 l -31.2,-4"
         style="fill:#f9d6b6;fill-opacity:1;fill-rule:nonzero;stroke:none"
         id="path134" /><path
         d="m 16393.2,18714.7 c -556.1,0 -1111.9,31.7 -1663.8,95.6 -608.7,70.1 -1107.7,164.6 -1483.8,281.1 -640,195.8 -1174.8,760 -1362.5,1240.4 89,99.3 243.5,186.8 481.4,254.9 262.9,75.3 516.2,149.2 755.6,228 122.3,-93 260.8,-179.6 417.7,-256.7 203.9,-100.3 415.5,-166.5 626.8,-196.9 -340.1,-352.2 -156.8,-981.6 359,-1069.1 544.7,-92.4 1143,-135.3 1767.2,-135.3 2994.1,0 6582.8,986.6 7693.6,2230.2 -168.8,-386.9 -465.2,-778.2 -851.5,-1017.2 -349.9,-212.5 -827.7,-436 -1420,-664.4 -1699.7,-655.4 -3511.7,-990.6 -5319.7,-990.6"
         style="fill:#e8ac87;fill-opacity:1;fill-rule:nonzero;stroke:none"
         id="path136" /><path
         d="m 14885.9,28729.2 c -725.1,0 -1991.9,-271.7 -2796.4,-1974.8 -6.5,-13.3 -11.7,-24.9 -16.9,-36.5 l -9.1,-20.1 c -1037.9,-2289 581.6,-4621.7 598,-4645 l 115.9,-163.8 -185.5,-76.4 c -36.4,-15.2 -898.1,-385.1 -772.9,-1247.3 74.6,-513.5 678.8,-1245.1 1426.6,-1473.9 376.1,-116.5 875.1,-211 1483.8,-281.1 2346.3,-271.5 4761.1,38 6983.5,895 592.3,228.4 1070.1,451.9 1420,664.4 664.3,411 1062.6,1272 1003.9,1787.4 -98.7,870.7 -1054.6,1008.6 -1064.3,1009.9 l -199.1,26.7 70.8,188 c 10,26.6 982.8,2694.4 -603.4,4644.9 -12.9,16.2 -25.1,31.4 -37.6,45.9 -1505.7,1793.9 -3138.9,1268 -3603.6,1064.2 -849.8,-372.7 -1403.4,-1132.1 -1316.3,-1805.5 11.3,-87.6 -50.5,-167.7 -138,-179 -5.3,-0.7 -10.5,-1.1 -15.7,-1.3 -5,-1.1 -10.1,-2 -15.4,-2.7 -87.9,-10.9 -167.6,50.5 -178.9,138 -87.1,673.4 -815.4,1267.1 -1731.8,1411.6 -97.8,15.4 -241.9,31.4 -417.6,31.4 m 1507,-10334.1 c -568.3,0 -1136.1,32.4 -1700.2,97.7 -628.2,72.3 -1146.7,171 -1541.2,293.1 -874.3,267.6 -1558.6,1112.4 -1648.8,1733.4 -111.8,770.2 402.8,1277.7 796.7,1504.2 -147.4,238.2 -425.3,734.4 -635.6,1388.6 -391.1,1216.7 -353.4,2398.7 108.9,3418.3 l 8.4,18.6 c 6.6,14.7 13.3,29.4 20.3,43.8 393.8,833.6 943.7,1441.2 1633.5,1803.8 592.9,311.7 1256.1,421.2 1918.3,316.9 788.1,-124.3 1441.4,-532.8 1773.8,-1068.5 185.4,602.6 713.5,1163.9 1444.2,1484.4 613.8,269.2 1283.2,331.9 1935.8,181.2 759.3,-175.4 1445.6,-623.2 2039.6,-1331 13.8,-16 28.8,-34.5 43.3,-52.8 705.3,-867.2 1042.2,-2000.8 973.4,-3276.9 -37,-686.2 -179.5,-1236.7 -261.4,-1504.6 438.3,-118.9 1064.8,-478.9 1152.5,-1252.2 71,-623.3 -376,-1614.3 -1154.5,-2095.9 -367.2,-222.9 -862.1,-454.9 -1472,-690.1 -1736.3,-669.5 -3587.8,-1012 -5435,-1012"
         style="fill:#650000;fill-opacity:1;fill-rule:nonzero;stroke:none"
         id="path138" /><path
         d="m 19606.2,21584.5 c 31.1,-240.2 406.7,-389.7 839.1,-333.8 432.3,55.8 757.7,295.9 726.6,536.2 -31,240.2 -406.7,389.7 -839.1,333.8 -432.3,-55.8 -757.6,-295.9 -726.6,-536.2"
         style="fill:#f28475;fill-opacity:1;fill-rule:nonzero;stroke:none"
         id="path140" /><path
         d="m 14730.1,20954.4 c 31,-240.3 406.7,-389.8 839.1,-333.9 432.3,55.9 757.6,295.9 726.6,536.2 -31.1,240.3 -406.7,389.8 -839.1,333.9 -432.3,-55.9 -757.7,-296 -726.6,-536.2"
         style="fill:#f28475;fill-opacity:1;fill-rule:nonzero;stroke:none"
         id="path142" /><path
         d="m 14130.3,22858.3 c 83.5,-646 657.4,-1104.2 1281.9,-1023.5 624.6,80.7 1063.2,669.8 979.7,1315.7 -83.5,646 -657.4,1104.2 -1282,1023.5 -624.5,-80.8 -1063.1,-669.8 -979.6,-1315.7"
         style="fill:#650000;fill-opacity:1;fill-rule:nonzero;stroke:none"
         id="path144" /><path
         d="m 14639.8,22599.1 c 38,-294.1 299.4,-502.7 583.7,-466 284.4,36.8 484.1,305 446.1,599.1 -38,294.1 -299.4,502.7 -583.7,466 -284.4,-36.8 -484.1,-305 -446.1,-599.1"
         style="fill:#ffffff;fill-opacity:1;fill-rule:nonzero;stroke:none"
         id="path146" /><path
         d="m 15229.5,23541.7 c 22.8,-176.5 179.7,-301.7 350.4,-279.7 170.6,22.1 290.5,183.1 267.7,359.6 -22.8,176.5 -179.7,301.8 -350.4,279.7 -170.6,-22.1 -290.5,-183.1 -267.7,-359.6"
         style="fill:#ffffff;fill-opacity:1;fill-rule:nonzero;stroke:none"
         id="path148" /><path
         d="m 19030.1,23491.5 c 83.4,-646 630.2,-1107.7 1221.1,-1031.3 591,76.4 1002.4,661.9 918.9,1307.8 -83.5,646 -630.2,1107.7 -1221.2,1031.3 -590.9,-76.4 -1002.3,-661.9 -918.8,-1307.8"
         style="fill:#650000;fill-opacity:1;fill-rule:nonzero;stroke:none"
         id="path150" /><path
         d="m 18172.6,21900.2 c -32.3,-13.9 -67.9,10 -67.5,45.2 1.3,105.6 25.3,290 173,333.2 195.6,57.2 239.6,-113.3 228.3,-167.3 -13.1,-62.9 -58.8,-107.2 -155.7,-140.9 -59.4,-20.7 -128.3,-48.6 -178.1,-70.2"
         style="fill:#650000;fill-opacity:1;fill-rule:nonzero;stroke:none"
         id="path152" /><path
         d="m 17625.7,21829.6 c 34.8,-5.3 63.1,26.9 53.8,60.8 -28.1,101.8 -98.2,274 -252,278.3 -203.7,5.6 -202.9,-170.5 -178.3,-219.9 28.6,-57.5 84.1,-88.7 186.4,-96.7 62.7,-4.9 136.4,-14.4 190.1,-22.5"
         style="fill:#650000;fill-opacity:1;fill-rule:nonzero;stroke:none"
         id="path154" /><path
         d="m 17388.9,20975.7 c 105.2,-63.4 210.3,-108.5 319.3,-133.8 109,-24.4 220.4,-30.3 329.3,-16.4 108.8,13.6 214.1,46.7 310.1,97.3 95.6,51.8 180.1,121.3 254.5,211.8 l 4.6,5.6 c 41.7,50.8 116.7,58.1 167.5,16.4 37.8,-31.1 51.5,-80.7 38.8,-124.9 -44.4,-154.5 -150.1,-292.7 -282.3,-388.8 -131.8,-97.8 -289.9,-156 -450.6,-174.4 -160.8,-18.3 -326.2,2.9 -474.9,64.5 -148.8,60.1 -281.1,160.8 -369.7,288.3 -34.9,50.1 -22.5,119 27.7,153.8 36.8,25.7 83.9,25.7 120,4 l 5.7,-3.4"
         style="fill:#650000;fill-opacity:1;fill-rule:nonzero;stroke:none"
         id="path156" /><path
         d="m 19443.6,23219.9 c 38,-294.1 299.4,-502.7 583.7,-465.9 284.4,36.7 484.1,304.9 446.1,599 -38,294.1 -299.4,502.7 -583.7,466 -284.4,-36.8 -484.1,-305 -446.1,-599.1"
         style="fill:#ffffff;fill-opacity:1;fill-rule:nonzero;stroke:none"
         id="path158" /><path
         d="m 20033.3,24162.5 c 22.8,-176.5 179.7,-301.7 350.4,-279.7 170.6,22.1 290.5,183.1 267.7,359.6 -22.8,176.5 -179.7,301.8 -350.4,279.7 -170.6,-22 -290.5,-183 -267.7,-359.6"
         style="fill:#ffffff;fill-opacity:1;fill-rule:nonzero;stroke:none"
         id="path160" /><path
         d="m 16793.8,22249.2 c -305,-559.9 -728.3,-1001.1 -1156.1,-1316.7 -243,-179.2 -477.4,-331.7 -869.7,-399.8 -58.2,-9.8 -119.8,-18.1 -185.5,-24.3 -125.1,-11.7 -249.7,-8.6 -373.4,7.9 l -0.4,-0.1 c -141.6,18.5 -281.2,54.4 -416.5,105.8 -62,23.1 -123.6,49.7 -183.7,79.4 -255.5,125.6 -463.5,279.8 -631.1,452.3 -886.8,912 -644.7,2330.7 -362,2697.9 418.3,543.5 932.2,622.3 1195.5,647 l 1174.1,110.2 c 80.7,7.6 130.8,12.3 130.8,12.3 105.4,9.8 212,14.4 318.5,12.2 179.8,-2.6 359.5,-24 533.5,-69.3 75.3,-19.2 149.6,-42.9 222.6,-71.7 317.1,-124.9 717.5,-347.9 834.3,-543.1 143.2,-240 263.4,-791 -230.9,-1700"
         style="fill:#650000;fill-opacity:1;fill-rule:nonzero;stroke:none"
         id="path162" /><path
         d="m 22367,21523.2 c -272.7,-204.7 -587.4,-339.5 -921.1,-370.8 -121.8,-11.4 -231.6,-13.5 -332,-7.4 -201.8,11.4 -366.6,53.9 -520.6,112.7 -89.7,33.7 -175.9,73.2 -263.1,115.1 -43.8,21.1 -87.7,43 -131.3,66.3 -273.7,143.3 -549.8,327.6 -807.9,555 -154.9,136.8 -303.6,289 -441.6,457.4 -655.1,801.1 -639.5,1364.8 -543.1,1627.3 78.4,213.5 430.1,507.1 718.3,688.8 310.7,196 671.1,292.6 1032,326.4 0,0 62.5,5.9 160.4,15.1 l 1144.5,107.4 c 81.8,7.6 188.2,14.7 311.1,7.2 152.2,-9.5 329.6,-40.8 518.1,-121.2 150.9,-64.1 308.7,-159.2 466.1,-299.4 411,-366.2 1043,-2204 -389.8,-3279.9"
         style="fill:#650000;fill-opacity:1;fill-rule:nonzero;stroke:none"
         id="path164" /><path
         d="m 20198.9,21439.1 v 0 c -273.7,143.3 -549.8,327.6 -807.9,555 l 926,3115 1001.2,93.9 -1119.3,-3763.9"
         style="fill:#b28080;fill-opacity:1;fill-rule:nonzero;stroke:none"
         id="path166" /><path
         d="m 21113.9,21145 v 0 c -201.8,11.4 -366.6,53.9 -520.6,112.7 l 1179.3,3966 518.1,-121.2 -1176.8,-3957.5"
         style="fill:#b28080;fill-opacity:1;fill-rule:nonzero;stroke:none"
         id="path168" /><path
         d="m 13838,20775.2 c -53.4,20.5 -106.5,43.7 -159.1,69.6 -65.5,32.2 -127.3,66.3 -185.6,102 160.9,61.8 313.3,127.9 456.1,200.8 l -111.4,-372.4 m 939.9,3141.3 c -133,173.3 -299.8,334 -498.3,465.5 l 655.9,61.5 -157.6,-527"
         style="fill:#b28080;fill-opacity:1;fill-rule:nonzero;stroke:none"
         id="path170" /><path
         d="m 14431.6,20661.3 c -58.4,0 -117.2,3.4 -176.3,10.3 l 251.5,845.1 c 351.8,309.4 582.2,721.3 642.7,1312.1 3.2,31.9 4.9,64.8 4.9,98.4 v 0 c 0.1,145.6 -29.9,305.5 -88.5,468.1 l 321.1,1079 c 1,0 2,0 3,0 189.7,0 367.6,-21.1 532.3,-63.1 l -1102.8,-3705.4 c -76.4,-16.7 -159.8,-29.5 -252,-38.2 -44.9,-4.2 -90.3,-6.3 -135.9,-6.3"
         style="fill:#b28080;fill-opacity:1;fill-rule:nonzero;stroke:none"
         id="path172" /><path
         d="m 15390,24474.3 c -84.2,0 -170.6,-4.2 -259.3,-12.5 l -1304.8,-122.4 c -293.2,-27.5 -724.5,-118.2 -1084,-585.3 -162.7,-211.5 -314,-878.7 -161.8,-1532 100.5,-431.2 372.7,-1020.2 1098.8,-1377.3 291.1,-143.2 598.4,-204.4 888.6,-177.2 468.4,43.9 709.2,197.4 975.3,393.5 321.6,237 775.3,648.7 1110.5,1264.5 511,939 308.4,1417.4 234.1,1541.7 -79.6,133.1 -404.4,337.9 -755.6,476.5 h -0.1 c -220,86.8 -468.7,130.5 -741.7,130.5 m -958.3,-4132.6 c -298,0 -603.9,73.6 -893.9,216.3 -838.4,412.3 -1152.8,1093.1 -1269,1591.6 -167.2,717.7 -16.1,1492.9 219.8,1799.4 486,631.5 1104.3,689.5 1307.4,708.6 l 1304.9,122.4 c 426.8,40 813.1,-6.7 1148.2,-138.9 330.8,-130.6 768.4,-368.6 912.6,-609.8 123.3,-206.4 348.1,-800.5 -227.7,-1858.4 -363.2,-667.4 -853.9,-1112.9 -1201.6,-1369.1 -296,-218.1 -585.8,-402.9 -1135.1,-454.4 -54.8,-5.2 -110.1,-7.7 -165.6,-7.7"
         style="fill:#650000;fill-opacity:1;fill-rule:nonzero;stroke:none"
         id="path174" /><path
         d="m 19124.8,24767.7 h 0.5 z m 2539.7,298.9 c -67.6,0 -130.6,-4 -188,-9.4 l -1304.9,-122.4 c -376.2,-35.3 -699.7,-137 -961.5,-302.2 v 0 c -319.3,-201.5 -600.4,-463.2 -653.8,-608.7 -49.9,-136 -160,-643.7 516.8,-1471.2 443.8,-542.7 966.2,-862.9 1326.3,-1035.9 297.9,-143.2 563,-249 1031.4,-205.2 290.3,27.2 580.9,144.6 840.2,339.4 647,485.9 804.9,1115.3 823.4,1557.7 28,670.1 -244.7,1297.6 -444,1475.1 -354,315.4 -708.3,382.8 -985.9,382.8 z m -441.4,-4084.8 c -410,-0.1 -681.6,112.1 -962.1,246.9 -389.3,187.1 -954.4,533.5 -1435.4,1121.6 -762.5,932.4 -652.2,1558 -569.4,1783.7 96.9,263.8 482.5,579 783.3,768.9 304.7,192.2 675.5,310.1 1102.3,350.1 l 1304.8,122.4 c 203.2,19 821.5,77.1 1416.4,-453 288.8,-257.3 581.5,-990.8 550.7,-1727.1 -21.4,-511.4 -203.7,-1238.8 -950.7,-1799.9 -306.6,-230.3 -653.2,-369.3 -1002.3,-402 -84.3,-7.9 -163.3,-11.6 -237.6,-11.6"
         style="fill:#650000;fill-opacity:1;fill-rule:nonzero;stroke:none"
         id="path176" /><path
         d="m 15115.6,24461.1 c -81.5,0 -151.1,62.1 -158.9,144.9 -8.3,87.9 56.3,165.8 144.2,174 l 4859.8,456 c 87.1,8.3 165.7,-56.3 174,-144.2 8.2,-87.9 -56.3,-165.8 -144.2,-174 l -4859.8,-456 c -5,-0.4 -10.1,-0.7 -15.1,-0.7"
         style="fill:#650000;fill-opacity:1;fill-rule:nonzero;stroke:none"
         id="path178" /><path
         d="m 17149.1,23211.3 c -42.3,0 -84.5,16.7 -115.9,49.7 -60.8,64 -58.2,165.2 5.8,226 392.4,372.7 984.1,428.2 1438.9,135 74.1,-47.8 95.5,-146.8 47.7,-220.9 -47.8,-74.2 -146.8,-95.6 -220.9,-47.8 -330.5,213.1 -760.4,172.8 -1045.6,-98.1 -30.9,-29.3 -70.5,-43.9 -110,-43.9"
         style="fill:#650000;fill-opacity:1;fill-rule:nonzero;stroke:none"
         id="path180" /><path
         d="m 15149.5,22828.8 c -147.9,-1445.5 -1313.6,-1820.6 -2785,-2242.1 -738.3,-211.3 -673.6,-609.6 -338.4,-968.8 l 0.4,-0.4 c 293.2,-314.4 794.2,-598.5 1143.4,-700.3 l -290.5,-1939.7 c -2846.1,418.3 -3995.47,2037.1 -4315.48,2658.4 -702.75,1362.7 -468.23,3587.6 920.47,4566.4 1393.51,982 2909.61,957.2 4004.71,566.9 288,-102.3 546.9,-230.5 767,-371.9 622.9,-400.4 942.5,-1087.5 893.4,-1568.5"
         style="fill:#b74729;fill-opacity:1;fill-rule:nonzero;stroke:none"
         id="path182" /><path
         d="m 13928,15465.1 v 0 0"
         style="fill:#650000;fill-opacity:1;fill-rule:nonzero;stroke:none"
         id="path184" /><path
         d="m 13640.1,17058.4 c -252.7,16.3 -498.4,41.9 -737.1,76.8 l 104.4,697.1 c 34.3,2 67.8,4.1 100.6,6.2 149.4,9.6 282.8,19.3 398.9,19.3 234.4,0 398.4,-39.2 482.6,-196.6 l -137.1,-65.5 c -26.4,55.6 -82.9,91.2 -144.3,91.2 -12,0 -24.2,-1.4 -36.4,-4.2 -86,-20.1 -139.3,-106.1 -119.2,-192 33.8,-144.9 62.8,-289.2 87.6,-432.3"
         style="fill:#9e321d;fill-opacity:1;fill-rule:nonzero;stroke:none"
         id="path186" /><path
         d="m 13666.3,16896.6 c -3269.2,198.6 -4628.67,1897.7 -5048.45,2639.4 0.08,-0.1 0.17,-0.2 0.26,-0.3 384.7,-679.6 1557.09,-2160.7 4261.29,-2558.2 l 23.6,157.7 c 238.7,-34.9 484.4,-60.5 737.1,-76.8 9.3,-54.2 18.1,-108 26.2,-161.8"
         style="fill:#650000;fill-opacity:1;fill-rule:nonzero;stroke:none"
         id="path188" /><path
         d="m 14035.8,16535.5 c -35.2,331.1 -90.1,677.3 -172.1,1028 -2.7,11.3 -6.5,22.1 -11.3,32.2 l 137.1,65.5 c 5.3,-9.9 10.3,-20.2 14.9,-31 73.2,-170.3 63.5,-637.6 31.4,-1094.7"
         style="fill:#9e321d;fill-opacity:1;fill-rule:nonzero;stroke:none"
         id="path190" /><path
         d="m 13928,15465.1 c 76.3,770.3 -98.9,1422.9 -98.9,1422.9 -54.8,2.5 -109,5.3 -162.8,8.6 -8.1,53.8 -16.9,107.6 -26.2,161.8 -24.8,143.1 -53.8,287.4 -87.6,432.3 -20.1,85.9 33.2,171.9 119.2,192 12.2,2.8 24.4,4.2 36.4,4.2 61.4,0 117.9,-35.6 144.3,-91.2 4.8,-10.1 8.6,-20.9 11.3,-32.2 82,-350.7 136.9,-696.9 172.1,-1028 -38.1,-541.9 -107.7,-1069.3 -107.8,-1070.4"
         style="fill:#650000;fill-opacity:1;fill-rule:nonzero;stroke:none"
         id="path192" /><path
         d="m 12879.4,16977.5 c -2704.2,397.5 -3876.59,1878.6 -4261.29,2558.2 38.48,-42.3 1017.86,-1645.9 3877.29,-1715 39.7,-0.9 78.7,-1.4 117,-1.4 141,0 272.8,5.9 395,13 l -104.4,-697.1 -23.6,-157.7"
         style="fill:#9e321d;fill-opacity:1;fill-rule:nonzero;stroke:none"
         id="path194" /><path
         d="m 9170.92,23942.4 c 0.1,0.1 0.21,0.2 0.31,0.3 -0.15,-0.2 -0.16,-0.2 -0.31,-0.3 m 6.79,6.5 c 0.35,0.4 0.72,0.7 1.07,1.1 -0.37,-0.4 -0.7,-0.7 -1.07,-1.1 m 2.84,2.8 c 0.8,0.7 1.49,1.4 2.29,2.1 -0.74,-0.7 -1.55,-1.4 -2.29,-2.1 m 4.06,3.8 c 0.45,0.5 1.04,1 1.49,1.5 -0.52,-0.5 -0.97,-1 -1.49,-1.5 m 2.99,2.9 c 0.9,0.8 1.77,1.7 2.67,2.5 -0.89,-0.8 -1.78,-1.7 -2.67,-2.5 m 3.88,3.7 c 0.65,0.6 1.33,1.2 1.98,1.9 -0.67,-0.7 -1.31,-1.3 -1.98,-1.9 m 3.2,3 c 0.95,0.9 1.91,1.8 2.87,2.7 -0.97,-0.9 -1.9,-1.8 -2.87,-2.7 m 3.66,3.5 c 0.8,0.7 1.71,1.6 2.52,2.3 -0.82,-0.7 -1.7,-1.6 -2.52,-2.3 m 3.33,3.1 c 1.06,1 2.14,2 3.2,3 -1.05,-1 -2.15,-2 -3.2,-3 m 3.4,3.2 c 1.06,1 2.15,2 3.21,3 -1.05,-1 -2.17,-2.1 -3.21,-3 m 3.63,3.4 c 2.28,2.1 4.56,4.2 6.84,6.3 -2.25,-2.1 -4.59,-4.2 -6.84,-6.3 m 7.17,6.6 c 78.11,72.2 160.8,140 248.13,202.9 -87.25,-62.8 -170.08,-130.7 -248.13,-202.9 m 248.36,203 c 2.61,1.9 5.12,3.7 7.74,5.6 -2.61,-1.9 -5.13,-3.7 -7.74,-5.6 m 8.21,5.9 c 2.51,1.8 4.97,3.6 7.49,5.3 -2.45,-1.7 -5.04,-3.5 -7.49,-5.3 m 8.27,5.9 c 1.2,0.8 2.48,1.7 3.68,2.6 -1.27,-0.9 -2.41,-1.7 -3.68,-2.6 m 3.68,2.6 c 65.22,46 130.59,89.6 196.28,131.2 -0.01,0 0,0 -0.02,0 -65.63,-41.5 -131.11,-85.3 -196.26,-131.2 m 571.01,344.9 c 57.5,29.3 115,57 172.5,83.2 v 0 c -57.5,-26.2 -114.9,-53.9 -172.4,-83.1 0,-0.1 0,-0.1 -0.1,-0.1"
         style="fill:#ffdcc1;fill-opacity:1;fill-rule:nonzero;stroke:none"
         id="path196" /><path
         d="m 9680.65,24333.5 c 0.02,0 0.01,0 0.02,0 124.25,78.7 249.37,149.9 374.73,213.7 0.1,0 0.1,0 0.1,0.1 -125.42,-63.9 -250.53,-135 -374.85,-213.8"
         style="fill:#9b5959;fill-opacity:1;fill-rule:nonzero;stroke:none"
         id="path198" /><path
         d="m 10527.6,24754 v 0 c 291.6,107.8 582.9,179.9 868.8,221.7 v 0 c -285.9,-41.9 -577.2,-113.9 -868.8,-221.7"
         style="fill:#d08774;fill-opacity:1;fill-rule:nonzero;stroke:none"
         id="path200" /><path
         d="m 10227.9,24630.4 v 0 c 99.9,45.6 199.8,86.7 299.7,123.6 v 0 c -99.9,-36.9 -199.8,-78 -299.7,-123.6"
         style="fill:#9b5959;fill-opacity:1;fill-rule:nonzero;stroke:none"
         id="path202" /><path
         d="m 13774.3,24655.5 c -91.4,40.6 -186.6,78.7 -285.2,113.7 -433.9,154.7 -933.8,251.9 -1466.1,251.9 -101,0 -203.1,-3.5 -306.2,-10.8 v 0.1 c 103,7.3 205.3,10.8 306.3,10.8 653.2,0 1257.6,-146.4 1751.2,-365.7 v 0"
         style="fill:#ffdcc1;fill-opacity:1;fill-rule:nonzero;stroke:none"
         id="path204" /><path
         d="m 11396.4,24975.7 v 0 c 107.6,15.8 214.5,27.2 320.4,34.7 v -0.1 c -105.9,-7.4 -212.8,-18.9 -320.4,-34.6"
         style="fill:#9b5959;fill-opacity:1;fill-rule:nonzero;stroke:none"
         id="path206" /><path
         d="m 14256.1,24397.3 c -144.7,93 -306.3,180.3 -481.8,258.2 v 0 c 175.6,-77.9 337.2,-165.2 481.8,-258.2"
         style="fill:#9b5959;fill-opacity:1;fill-rule:nonzero;stroke:none"
         id="path208" /><path
         d="m 8183.98,21158.4 c -43.99,1012.8 269.71,2089.3 986.94,2784 0.15,0.1 0.16,0.1 0.31,0.3 2.18,2.1 4.29,4.1 6.48,6.2 0.37,0.4 0.7,0.7 1.07,1.1 0.55,0.5 1.22,1.1 1.77,1.7 0.74,0.7 1.55,1.4 2.29,2.1 0.6,0.6 1.17,1.2 1.77,1.7 0.52,0.5 0.97,1 1.49,1.5 0.5,0.4 1,0.9 1.5,1.4 0.89,0.8 1.78,1.7 2.67,2.5 0.41,0.4 0.81,0.8 1.21,1.2 0.67,0.6 1.31,1.2 1.98,1.9 0.4,0.3 0.82,0.7 1.22,1.1 0.97,0.9 1.9,1.8 2.87,2.7 0.3,0.3 0.48,0.5 0.79,0.8 0.82,0.7 1.7,1.6 2.52,2.3 0.31,0.3 0.51,0.5 0.81,0.8 1.05,1 2.15,2 3.2,3 0.05,0 0.15,0.1 0.2,0.2 1.04,0.9 2.16,2 3.21,3 0.15,0.1 0.27,0.2 0.42,0.4 2.25,2.1 4.59,4.2 6.84,6.3 0.1,0.1 0.23,0.2 0.33,0.3 78.05,72.2 160.88,140.1 248.13,202.9 0.06,0 0.17,0.1 0.23,0.1 2.61,1.9 5.13,3.7 7.74,5.6 0.11,0.1 0.36,0.2 0.47,0.3 2.45,1.8 5.04,3.6 7.49,5.3 0.29,0.2 0.49,0.4 0.78,0.6 1.27,0.9 2.41,1.7 3.68,2.6 v 0 0 c 65.15,45.9 130.63,89.7 196.26,131.2 124.32,78.8 249.43,149.9 374.85,213.8 57.5,29.2 114.9,56.9 172.4,83.1 99.9,45.6 199.8,86.7 299.7,123.6 291.6,107.8 582.9,179.8 868.8,221.7 107.6,15.7 214.5,27.2 320.4,34.6 103.1,7.3 205.2,10.8 306.2,10.8 532.3,0 1032.2,-97.2 1466.1,-251.9 98.6,-35 193.8,-73.1 285.2,-113.7 175.5,-77.9 337.1,-165.2 481.8,-258.2 v 0 c 581.5,-373.8 898.7,-997.5 898.3,-1470.1 v 0 c 0.4,472.6 -316.8,1096.3 -898.3,1470.1 -220.1,141.4 -479,269.6 -767,371.9 -127.4,-45 -316.8,-119.8 -522,-227.7 -296.9,65.2 -614.3,102.6 -944,102.6 -811.2,0 -1697.2,-225.9 -2538.71,-818.9 C 8647.41,23235.1 8229.52,22192 8183.98,21158.4"
         style="fill:#d08774;fill-opacity:1;fill-rule:nonzero;stroke:none"
         id="path210" /><path
         d="m 12026.1,19617.9 c -636.4,333.2 -658.4,660.4 -444.7,936.9 458.3,592.8 568.9,1375.1 345.6,2090.6 -304.2,974.5 436.2,1578.6 1040.1,1896.1 500.5,-109.8 943,-298.8 1289,-521.4 507,-325.6 812.6,-841.8 882.6,-1281.2 4,29.5 7.6,59.5 10.8,89.9 -60.5,-590.8 -290.9,-1002.7 -642.7,-1312.1 -272.6,-239.7 -617.9,-417.9 -1013.5,-569.9 -120,-46.1 -244.6,-89.8 -373.2,-132.1 -239.4,-78.8 -492.7,-152.7 -755.6,-228 -417.5,-119.5 -578.2,-298.8 -578.5,-496.9 -0.2,-152.3 94.4,-315.8 240.1,-471.9"
         style="fill:#9e321d;fill-opacity:1;fill-rule:nonzero;stroke:none"
         id="path212" /><path
         d="m 15138.7,22738.9 c -70,439.4 -375.6,955.6 -882.6,1281.2 -346,222.6 -788.5,411.6 -1289,521.4 205.2,107.9 394.6,182.7 522,227.7 288,-102.3 546.9,-230.5 767,-371.9 581.5,-373.8 898.7,-997.5 898.3,-1470.1 0,-33.6 -1.7,-66.5 -4.9,-98.4 v 0 c -3.2,-30.4 -6.8,-60.4 -10.8,-89.9"
         style="fill:#b05e51;fill-opacity:1;fill-rule:nonzero;stroke:none"
         id="path214" /><path
         d="m 13829.3,16728.3 c -2.4,0 -4.8,0 -7.2,0.1 -1557.1,69.6 -2874.1,474.9 -3914.77,1204.9 -912.94,640.4 -1343.06,1352.8 -1485.62,1629.3 -367.55,713.1 -491.26,1634.2 -339.4,2527.3 164.45,967.1 629.74,1763.7 1310.11,2243.2 1733.48,1221.6 3735.28,980.1 4950.28,198.7 703.3,-452.2 1018.2,-1207.1 965.8,-1719.1 -163.2,-1595.8 -1492.5,-1976.4 -2899.9,-2379.5 -210.9,-60.3 -462.3,-169 -462.7,-343.5 -0.8,-328.1 725.9,-861 1268.8,-1019.2 84.7,-24.7 133.4,-113.4 108.7,-198.2 -24.7,-84.7 -113.6,-133.2 -198.1,-108.7 -523.9,152.7 -1500.4,743 -1499.1,1326.9 0.5,205.9 121.4,485.9 694.4,650 1573.4,450.6 2538.2,817 2669.9,2104.7 41.4,404.8 -232.1,1039.3 -820.6,1417.8 -839.4,539.8 -2751.4,1106.9 -4593.35,-191.1 -1309.74,-923.1 -1539.94,-3064.6 -870.75,-4362.8 131.71,-255.6 530.32,-914.6 1385.1,-1514.2 990,-694.4 2250.1,-1080.4 3745.4,-1147.2 88.2,-3.9 156.5,-78.6 152.5,-166.8 -3.8,-85.7 -74.5,-152.6 -159.5,-152.6"
         style="fill:#650000;fill-opacity:1;fill-rule:nonzero;stroke:none"
         id="path216" /><path
         d="m 13536.5,24613 c 1602.2,73.7 2560.5,718.4 3054.8,33 967.7,-1341.7 -1727.3,-2284.6 -1727.3,-2284.6 0,0 680.7,-313.6 662.4,-537.6 -33.1,-404.8 -385.5,-531.3 -1863.1,-295.5 -1932.4,308.4 -1722.3,3011.2 -126.8,3084.7"
         style="fill:#ffca9f;fill-opacity:1;fill-rule:nonzero;stroke:none"
         id="path218" /><path
         d="m 13536.5,24613 h 0.5 z m 1831.3,-2788.3 z m -1823.9,2628.6 c -713.4,-32.8 -1072.8,-660.3 -1104.8,-1229.4 -37.1,-660.2 334.8,-1391.8 1249.4,-1537.8 582,-92.9 1381.4,-196.2 1603.2,-22.1 31.6,24.7 64.9,63.7 74.7,164.8 -31.3,80.1 -298.7,262.6 -569.3,387.5 -59.1,27.3 -95.7,87.7 -92.6,152.7 3.1,65 45.3,121.7 106.7,143.3 15.5,5.4 1548.4,551.1 1797.5,1344.3 72.5,230.7 24.4,458.3 -147,696 -243.7,337.9 -624.7,276.8 -1394.9,118.8 -414,-85 -929.1,-190.7 -1522.9,-218.1 z m 1260.6,-3202.5 c -288.8,0 -667.7,40.1 -1166.4,119.7 -1111.4,177.4 -1563.3,1067.7 -1518.1,1871.4 39.8,707.8 497.7,1488.7 1409.2,1530.7 568.7,26.2 1049.3,124.8 1473.3,211.9 750.3,154 1343,275.5 1718.5,-245 231.2,-320.6 296,-650 192.5,-979.1 -219,-696.4 -1160.7,-1194.4 -1669.6,-1418.3 235.7,-142.7 458.1,-331.7 441.8,-531.3 -14.4,-175.4 -78.7,-305.7 -196.6,-398.2 -137.9,-108.2 -351,-161.8 -684.6,-161.8"
         style="fill:#650000;fill-opacity:1;fill-rule:nonzero;stroke:none"
         id="path220" /><path
         d="m 15726.7,25108.8 c 123.8,7.1 256,-13.1 375.3,-97.2 58.7,-42.2 111.4,-106.8 137.3,-182.5 26,-75.1 26.1,-156.5 7.9,-221.6 -7.9,-33.4 -20.4,-63.2 -32.9,-92.5 -14.6,-26.3 -27.6,-55.9 -44.7,-78.6 -30.7,-49.3 -71.6,-90.8 -110.7,-132.9 -82.4,-73.7 -168.6,-135.5 -257.8,-183.4 -177.7,-99.1 -361,-171 -546.2,-232 -185.7,-60.7 -371.2,-111.4 -562.9,-152.3 -43.2,-9.3 -85.7,18.3 -94.9,61.4 -8.8,41.2 15.9,81.8 55.8,93.4 l 2.3,0.7 c 178.5,51.4 358,114 530.7,184.2 172.7,70.4 341.2,151.5 490.5,249.4 76.2,47.5 141.3,104 197.6,160.9 48.3,55.6 93.7,128.7 100.2,182.2 5.7,27.5 -0.2,45.6 -6.3,59.7 -6.9,13.8 -17.5,26.3 -37.4,38.2 -20.1,11.5 -47,20.4 -76.7,25.3 -30.1,4.8 -63.1,3.1 -95.6,-0.5 l -5.2,-0.5 c -87.8,-9.5 -166.6,54 -176.1,141.8 -9.5,87.8 54,166.7 141.8,176.1 2.5,0.3 5.5,0.6 8,0.7"
         style="fill:#650000;fill-opacity:1;fill-rule:nonzero;stroke:none"
         id="path222" /><path
         d="m 16705.1,24760.7 c 59.4,-86.9 67.1,-169.8 67.7,-239.1 -0.9,-70 -12.9,-132.6 -29.2,-191.6 -33.4,-117.5 -85.2,-220.9 -144.7,-317.3 -120.5,-191.8 -277.3,-351.4 -451.4,-483.4 -175.6,-132 -369.1,-229.8 -562.3,-311.4 -194.7,-81.7 -390.4,-150.2 -593.6,-208.1 -42.5,-12.1 -86.7,12.5 -98.8,55 -11.5,40.6 10.6,82.9 49.8,97 l 2.2,0.8 c 188.6,67.3 377.3,147.4 556.6,236.9 180,90.2 350,191.8 496.1,317.2 145.6,125.8 271.9,274 360,437.4 43.4,81.4 78.1,166.8 95.4,248.9 8.6,40.7 12.3,80.5 10.3,113.4 -1.2,32.7 -13.3,55.8 -14.4,53.3 -52.8,70.8 -38.1,170.9 32.6,223.6 70.8,52.8 170.9,38.2 223.7,-32.6"
         style="fill:#650000;fill-opacity:1;fill-rule:nonzero;stroke:none"
         id="path224" /><path
         d="m 25127.2,7535.8 c -558.5,0 -1054.1,117 -1222.3,296.4 -332.2,354.4 -488.2,575.1 -1042.9,1476.1 -966.9,1570.4 -2742.5,1638.8 -4309.1,1699.1 l -149.2,5.8 c -147.4,5.9 -307.5,12.2 -473.2,12.2 -806.1,0 -1741.5,-149.8 -1954.6,-1236.6 -32.4,-165.1 -60.6,-326.3 -87.8,-482.2 -122.3,-699.9 -227.9,-1304.3 -607.3,-1561.9 -183,-124.3 -484.8,-181.4 -966.7,-181.4 -55.9,0 -114.2,0.8 -175.1,2.3 -1049.4,26.7 -1957,828.5 -2258.3,1995.1 -62,239.9 -111.8,468.6 -143.7,701.5 315.2,-1159 1231.1,-2043.5 2398.1,-2073.1 43.3,-1.1 85.5,-1.7 126.5,-1.7 475.5,0 801.5,76.1 1031.1,263 606.2,493.6 593.4,1692.8 528.2,2026.5 -173.2,886.3 -864.3,1419.3 -476.3,1467.9 15.5,1.9 31.1,2.8 46.9,2.8 404.2,0 941.6,-611.5 2679,-717 146.7,-11.5 297.7,-17.4 452.8,-17.4 47.5,0 94.7,0.5 141.8,1.7 1305.6,4.5 2244.2,251.1 2916.9,497.8 678.9,249 1086.7,498 1326.6,498 37.4,0 70.7,-6.1 100.3,-19.1 531.1,-233.5 -522.3,-1037.7 -181.9,-2169.4 297.5,-988.8 609.9,-1141.1 961.5,-1516.3 210.8,-224.9 761.9,-346.7 1342.3,-346.8 671.1,0 1381.5,162.8 1651.2,517.4 107.9,141.7 193.7,311.1 259.6,502.9 -45.2,-486.3 -166.6,-899.9 -386.8,-1189.3 -186.2,-244.6 -691.8,-416.7 -1319.5,-448.9 -70,-3.6 -139.5,-5.4 -208.1,-5.4"
         style="fill:#9e321d;fill-opacity:1;fill-rule:nonzero;stroke:none"
         id="path226" /><path
         d="m 25130.8,7376.1 c -580.5,0 -1131.5,121.8 -1342.3,346.8 -351.6,375.1 -521.4,622.4 -1062.7,1501.7 -951.7,1545.7 -2730.3,1565.7 -4328.3,1628.8 -149.9,6 -301,10.7 -449.9,10.7 -844.9,0 -1627.8,-152.5 -1814.9,-1106.1 -185.8,-947.3 -236.2,-1788.2 -761.9,-2145.4 -234.6,-159.2 -592.5,-209.1 -1047.3,-209.1 -61.1,0 -123.9,0.9 -188.4,2.6 -1181,29.9 -2104.6,935.2 -2409.1,2114.6 -143.8,557.7 -224.9,1069.5 -168.9,1702.7 27.9,-311.6 88.6,-608.5 168.9,-919.7 3.6,-13.9 7.3,-27.6 11,-41.5 31.9,-232.9 81.7,-461.6 143.7,-701.5 301.3,-1166.6 1208.9,-1968.4 2258.3,-1995.1 60.9,-1.5 119.2,-2.3 175.1,-2.3 481.9,0 783.7,57.1 966.7,181.4 379.4,257.6 485,862 607.3,1561.9 27.2,155.9 55.4,317.1 87.8,482.2 213.1,1086.8 1148.5,1236.6 1954.6,1236.6 165.7,0 325.8,-6.3 473.2,-12.2 l 149.2,-5.8 c 1566.6,-60.3 3342.2,-128.7 4309.1,-1699.1 554.7,-901 710.7,-1121.7 1042.9,-1476.1 168.2,-179.4 663.8,-296.4 1222.3,-296.4 68.6,0 138.1,1.8 208.1,5.4 627.7,32.2 1133.3,204.3 1319.5,448.9 220.2,289.4 341.6,703 386.8,1189.3 89.3,259.8 142.1,560.6 163.9,889 53.1,-902.9 -59.1,-1696.3 -423.5,-2174.9 -269.7,-354.6 -980.1,-517.4 -1651.2,-517.4"
         style="fill:#650000;fill-opacity:1;fill-rule:nonzero;stroke:none"
         id="path228" /><path
         d="m 18523.3,11213.2 c -155.1,0 -306.1,5.9 -452.8,17.4 104.5,-6.3 213.4,-10.9 326.8,-13.3 78.3,-1.7 155.6,-2.5 231.4,-2.5 12.1,0 24.3,0 36.4,0.1 -47.1,-1.2 -94.3,-1.7 -141.8,-1.7"
         style="fill:#d08d6f;fill-opacity:1;fill-rule:nonzero;stroke:none"
         id="path230" /></g></g></svg>
