<?xml version="1.0" encoding="UTF-8" standalone="no"?>
<!-- Created with Inkscape (http://www.inkscape.org/) -->

<svg
   version="1.1"
   id="svg2"
   xml:space="preserve"
   width="3976.4038"
   height="3547.2668"
   viewBox="0 0 3976.4038 3547.2668"
   sodipodi:docname="riding_banana.svg"
   inkscape:version="1.1.1 (1:1.1+202109281944+c3084ef5ed)"
   xmlns:inkscape="http://www.inkscape.org/namespaces/inkscape"
   xmlns:sodipodi="http://sodipodi.sourceforge.net/DTD/sodipodi-0.dtd"
   xmlns="http://www.w3.org/2000/svg"
   xmlns:svg="http://www.w3.org/2000/svg"><defs
     id="defs6" /><sodipodi:namedview
     id="namedview4"
     pagecolor="#ffffff"
     bordercolor="#cccccc"
     borderopacity="1"
     inkscape:pageshadow="0"
     inkscape:pageopacity="1"
     inkscape:pagecheckerboard="0"
     showgrid="false"
     fit-margin-top="0"
     fit-margin-left="0"
     fit-margin-right="0"
     fit-margin-bottom="0"
     inkscape:zoom="0.1633125"
     inkscape:cx="2130.8841"
     inkscape:cy="869.49869"
     inkscape:window-width="476"
     inkscape:window-height="1031"
     inkscape:window-x="1248"
     inkscape:window-y="49"
     inkscape:window-maximized="1"
     inkscape:current-layer="g8" /><g
     id="g8"
     inkscape:groupmode="layer"
     inkscape:label="ink_ext_XXXXXX"
     transform="matrix(1.3333333,0,0,-1.3333333,-534.09389,4506.9542)"><g
       id="g10"
       transform="matrix(0.1,0,0,0.1,-8.5911717,4.2955859)"><path
         d="M 19122.5,13742.1 17558,11914.6 c -2429.4,713.3 -6236.4,3342.2 -4531.2,6865.2 1702.1,3516.6 5423.3,1696.1 7392.1,3944.8 l 7520,-405 c 0,0 -3299.1,-7840.4 -7719.6,-9093.5 l -1096.8,516"
         style="fill:#b74729;fill-opacity:1;fill-rule:nonzero;stroke:none"
         id="path14" /><path
         d="m 17653.5,16019.6 c -36.7,150.4 -65.2,309.4 -83.6,478 1112.6,353 2169.4,981.3 3049.9,1622.3 l -148.1,-209.4 c 0.1,-0.2 0,-0.1 0.2,-0.2 v 0 c 178.1,-178.4 367.5,-333.4 565.2,-467.9 -1005,-584.5 -2134,-1059.2 -3383.6,-1422.8 m 6253,3728.2 c -350.6,161 -659.4,327.9 -905.7,471.6 -3.6,2.6 -275.5,201 -595.2,464.5 916.7,96.4 1824.8,293.1 2702.9,587.8 -116.9,-149.2 -238,-300.2 -363.3,-452.7 55.9,16.2 112.1,32.9 168.6,50 -305.9,-364.8 -639.7,-739.4 -1007.3,-1121.2"
         style="fill:#9e321d;fill-opacity:1;fill-rule:nonzero;stroke:none"
         id="path16" /><path
         d="m 20495.8,22538.9 c -893.2,-968.9 -2114.6,-1183.5 -3296.8,-1391.2 -1587.7,-279 -3087.3,-542.5 -4009.1,-2446.9 -507.7,-1048.9 -541.1,-2086.2 -99.3,-3083 753.6,-1700.4 2787.9,-2989.5 4406.7,-3495.3 l 1577.4,1842.4 1159.8,-545.6 c 2201,659.1 4120.1,3032.6 5347.3,4917.6 1078,1655.9 1822.8,3232.5 2085.5,3815.8 l -7171.5,386.2 m -2876.4,-10831.2 -112.5,33 c -1713.3,503 -3929.8,1884.9 -4747.8,3730.2 -487,1098.7 -451.8,2238.5 104.5,3387.9 1002.6,2071.4 2665,2363.5 4272.7,2646 1199.5,210.7 2332.5,409.8 3146.2,1339.3 l 58.1,66.3 7865.4,-423.7 -100,-237.4 c -8.3,-19.8 -846.9,-1999.4 -2217.2,-4105.4 -1852.5,-2847 -3743.3,-4560.2 -5620,-5092.2 l -65.3,-18.5 -1033.1,486 -1551,-1811.5"
         style="fill:#650000;fill-opacity:1;fill-rule:nonzero;stroke:none"
         id="path18" /><path
         d="m 14298.6,18200.6 c 0,0 -1822.9,-918.3 -3252.7,613.9 -1397.99,1498.2 -184.8,4092.5 -596.8,5692.6 -557.71,2166.1 -2554.32,3685.4 -4847.9,2371.7 -2326.77,-1332.7 -1177.66,-4305.9 268.86,-4742.3 852.11,-257 1424.23,104.4 1417.79,970.6 -6.43,866.3 -1174.56,1098.2 -987.58,1832 186.99,733.8 1553.62,1083 2203.43,-161.9 649.82,-1245 138.21,-3832.7 461.96,-5321.3 302.68,-1391.8 1493.24,-2522.2 2871.94,-2847.5 1643.9,-387.8 2784.3,105.2 2784.3,105.2 l -323.3,1487"
         style="fill:#b74729;fill-opacity:1;fill-rule:nonzero;stroke:none"
         id="path20" /><path
         d="m 4462.55,24883.5 c 46.26,575.6 310.94,1312.3 1228.72,1838 539.46,309 1081.23,464.5 1603.99,464.5 344.74,0 681.23,-67.6 1003.28,-203.5 457.51,-193.1 868.4,-518.6 1204.28,-940.4 -559.62,568.4 -1279.64,918.8 -2091.01,918.8 -531.53,0 -1102.28,-150.4 -1692.71,-488.6 -721.7,-413.2 -1108.89,-984.4 -1256.55,-1588.8"
         style="fill:#d4917f;fill-opacity:1;fill-rule:nonzero;stroke:none"
         id="path22" /><path
         d="m 12435,16684 c -177.4,22.6 -363.2,55.4 -555.7,100.9 -1112,262.3 -2052.49,1043.7 -2509.82,2035.6 577.16,-704.9 1431.12,-1219.8 2372.22,-1410.4 239.2,-48.4 468.8,-80.9 687.1,-100.9 -15.7,-209.3 -13.7,-417.8 6.2,-625.2"
         style="fill:#9e321d;fill-opacity:1;fill-rule:nonzero;stroke:none"
         id="path24" /><path
         d="m 6128.39,24998.4 c -191.01,192 -319.24,395.6 -237.68,674.1 114.87,393.5 588.82,683.8 1110.24,683.8 459.73,0 956.4,-225.9 1275.95,-806 53.36,-96.8 98.82,-201.9 137.46,-314.2 -298.68,352.5 -692.1,547.4 -1117.87,547.4 -54.35,0 -109.23,-3.2 -164.5,-9.6 -491.09,-57.1 -892.25,-367.8 -1003.6,-775.5"
         style="fill:#9e321d;fill-opacity:1;fill-rule:nonzero;stroke:none"
         id="path26" /><path
         d="m 6372.39,22236 c -135.1,0 -285.99,24.6 -449.97,74.1 -322.65,97.3 -631.13,341.4 -881.27,669 107.87,-55 218.99,-98.2 331.93,-128 184.57,-48.7 357.21,-72.5 515.58,-72.5 554.95,0 932.92,293 1020.01,837.4 116.26,-147.4 196.39,-309.1 197.88,-510.2 2.59,-342.3 -94.82,-597.1 -281.64,-737 -118.21,-88.4 -271.15,-132.8 -452.52,-132.8"
         style="fill:#9e321d;fill-opacity:1;fill-rule:nonzero;stroke:none"
         id="path28" /><path
         d="m 7296.49,25783.5 c 558.64,0 1061.58,-335.4 1367.92,-922.4 399.46,-765.3 383.74,-1974.5 368.55,-3143.9 -10.78,-833.6 -21.04,-1621 109.87,-2222.8 282.95,-1301.3 1382.57,-2390.1 2736.47,-2709.5 1238.8,-292.3 2188.2,-63 2531.6,45.9 l -243.4,1119.1 c -204.2,-74.9 -540.9,-173.4 -948.3,-197.8 -617.3,-37.1 -1519.1,95.7 -2305.8,938.8 -924.82,991 -776.5,2431.6 -645.7,3702.6 79.1,768.3 153.7,1493.9 5.8,2068.4 -305.13,1185.2 -1043.46,2127.5 -1974.96,2520.6 -810.39,342 -1712.06,251.8 -2607.27,-261 -1213.63,-695.2 -1285.25,-1759.4 -1219.93,-2331.9 108.79,-953.5 746.15,-1866.9 1451.08,-2079.5 384.13,-115.9 696.24,-95.6 902.49,58.7 186.82,139.9 284.23,394.7 281.64,737 -2.59,350 -243.41,580.5 -498.34,824.5 -283.4,271.3 -604.64,578.7 -483.64,1053.6 105.71,414.8 510.54,732.2 1007.42,790 55.27,6.4 110.15,9.6 164.5,9.6 m 5803.01,-9506 c -382.9,0 -822,40.9 -1303.5,154.4 -1486.9,350.9 -2695.46,1550.6 -3007.47,2985.4 -139.7,642.3 -129.2,1449.7 -118.11,2304.6 14.6,1124.4 29.73,2287.2 -327.39,2971.4 -263.92,505.6 -701.08,774.8 -1169.15,720.5 -343.17,-39.9 -630.18,-253.5 -697.95,-519.4 -65.58,-257.3 94.49,-426 382.96,-702.1 270.22,-258.7 606.5,-580.5 610.26,-1083.8 4.35,-583.8 -229.79,-882.3 -426.96,-1029.9 -302.05,-226.1 -725.48,-266.1 -1224.46,-115.6 -846.92,255.4 -1580.61,1281 -1706.64,2385.5 -128.32,1124.9 381.93,2104.5 1400,2687.6 997.07,571.1 2009.77,668.1 2928.42,280.4 1035.06,-436.8 1851.99,-1470.1 2185.09,-2764.2 164.2,-637.4 86.2,-1394.4 3.7,-2195.9 -128.9,-1252.5 -262.2,-2547.6 550.1,-3418.2 1317.1,-1411.3 2969.2,-610.3 3038.9,-575.5 l 208.5,104.1 405,-1860.4 -136.9,-59.2 c -34.9,-15.1 -639.3,-269.7 -1594.4,-269.7"
         style="fill:#650000;fill-opacity:1;fill-rule:nonzero;stroke:none"
         id="path30" /><path
         d="M 28436.5,10327.4 C 26999.7,9054.7 22949.9,7365.9 18552,7319.9 c -3875.6,-40.4 -7206.7,1808.9 -8917.26,3708 -1571.48,1743.6 -1776.86,3529.5 215.27,3934.5 121.01,9.9 428.89,2.1 879.99,2.1 818.7,-1.3 2109.4,19.7 3614.3,209.1 1194.4,150.2 2523.5,406.2 3857.9,841.3 1083.7,353.1 2170.7,824.4 3192.7,1452.5 701,430.5 1371.5,934.7 1988.5,1525.8 203.7,195.1 398.4,388.9 584.4,580.8 452.8,466.7 854.9,922.8 1217.1,1364 2192.6,2669.2 2923.6,4793 4536.2,5483.7 0,0 0.5,0.4 2.1,0.8 49.8,21.4 100.4,41.2 152.3,59.7 59.7,21.8 120.6,41.6 182.7,59.3 -0.4,2 -1158.6,1235.2 -1387.5,1763.3 -196.3,452.3 358.5,1235.2 1193.3,1448.8 1928.7,493.9 3624.9,-871.4 3233.9,-1578.9 -472.9,-856.1 -801.8,-1737.3 -803,-1739.8 0,0 39.9,-55.2 107.4,-160.1 771.7,-1197 4025.4,-8871.2 -3965.8,-15947.4"
         style="fill:#fdd907;fill-opacity:1;fill-rule:nonzero;stroke:none"
         id="path32" /><path
         d="m 18192.8,7847.2 c -3783.4,0 -7033.7,1793 -8740.6,3651.4 -502.46,635.6 -813.82,1267 -872.06,1817.1 -33.07,312.3 18.96,581.8 152.98,805 96.7,-143.9 197.79,-292.9 345.14,-399.3 323.7,-233.6 658.28,-440.3 1000.04,-623.5 -45.5,-36.2 -82.7,-84.2 -106.22,-141.9 -73,-179 12.93,-383.2 191.92,-456.2 77.3,-31.5 143.6,-56.3 214.5,-82.3 69.8,-25.4 139.5,-50.3 209.2,-73.7 139.5,-47.7 279,-92.7 419.1,-134.9 280.2,-85.1 561.8,-162.5 845.3,-230.6 566.6,-138.1 1139,-247.2 1715.5,-326.2 737,-100.3 1480.3,-152.7 2223.4,-152.7 320.5,0 640.9,9.8 960.6,29.6 -449.9,-129.2 -949.9,-282.4 -1380.5,-437.5 -990.4,-356.9 -452.8,-1088.2 35.7,-1213.5 1239,-317.6 2399.1,-451.9 3476.7,-451.8 4703.6,0.1 7827.2,2558.9 8996.6,3594.3 4331.9,3836.1 5359.1,7847.6 5269.2,10908.2 89.1,-328.6 171.2,-684.6 239.7,-1064.1 377.7,-3155.4 -313.3,-7693.3 -5187.1,-12009.2 C 26765,9582.7 22715.3,7893.9 18317.4,7847.8 c -41.7,-0.4 -83.1,-0.6 -124.6,-0.6"
         style="fill:#cf9705;fill-opacity:1;fill-rule:nonzero;stroke:none"
         id="path34" /><path
         d="m 33097.9,28174.6 c -473,-856.1 -802,-1737.1 -802.9,-1739.6 0,0 39.9,-55.2 107.2,-160.1 -1197.3,590.6 -2616,166.9 -2679.2,147.6 107.5,46.2 219.1,85.8 335.3,118.9 -0.6,2 -1158.6,1235.4 -1387.7,1763.4 -196.3,452.5 358.7,1235 1193.2,1449 1928.7,493.9 3625,-871.6 3234.1,-1579.2"
         style="fill:#7bb224;fill-opacity:1;fill-rule:nonzero;stroke:none"
         id="path36" /><path
         d="m 29019.9,28038.5 c -94.7,136 -161.9,248.1 -198.2,331.7 -48.2,111.4 -29.3,265.4 53.2,433.7 136,277.7 487.3,651.2 1029.7,790.2 270.2,69.3 534,99.6 786.5,99.6 771.5,0 1436.5,-283.9 1846.2,-610.1 -404.9,200.2 -905.9,334.5 -1452.5,334.5 -268.6,0 -548,-32.4 -832.7,-105.3 C 29517,29124.3 28999,28495 29019.9,28038.5"
         style="fill:#b0d17c;fill-opacity:1;fill-rule:nonzero;stroke:none"
         id="path38" /><path
         d="m 9872.61,14799 c -928.07,-191.6 -1374.94,-704.4 -1292.47,-1483.3 119.67,-1130.3 1307.81,-2603.3 3026.96,-3752.6 2008.9,-1343 4426.9,-2079.2 6821.8,-2079.2 40.5,0 81,0.2 121.5,0.7 4381.9,45.6 8356.9,1763.1 9779.8,2968 3476.6,2944.1 5244.7,6378.8 5255.1,10208.7 8,2932.8 -1079.2,5163.4 -1370.8,5600.2 -65,97.5 -78.3,220.8 -35.5,330 v 0 c 105.9,270.2 393.6,973 774.8,1662.5 76.9,139.2 27.1,340.5 -136.8,552.4 -411.2,531.6 -1586.7,1127.5 -2912.4,787.7 -542.4,-139 -893.7,-512.5 -1029.7,-790.2 -82.5,-168.3 -101.4,-322.3 -53.2,-433.7 114.4,-264 537.2,-811 1160,-1500.8 78.2,-86.6 109.1,-206 82.8,-319.4 -26.8,-115.3 -108.7,-210.4 -219.4,-254.6 -998,-398.6 -1650.9,-1376.5 -2554.5,-2730 -872.5,-1306.8 -1958.3,-2933.2 -3793.5,-4690.9 -1838.6,-1760.9 -4352.1,-2970.5 -7470.6,-3595.1 -2499.2,-500.6 -4735.6,-484.7 -5690.9,-477.7 -222,1.6 -384.71,2.8 -462.99,-2.7 M 18428.6,7154.7 c -5445.3,0 -9918.54,3695.7 -10175.91,6126.3 -101.96,962.6 453.62,1617 1564.21,1842.7 l 19.09,2.8 c 89.11,7.4 253.41,6.3 502.01,4.5 5779.2,-42.4 10129.6,1298 12931.3,3981.3 1809.2,1732.8 2883.9,3342.5 3747.5,4636 936.5,1402.8 1613.2,2416.3 2706.2,2852.9 14.8,5.9 19.3,17.1 20.8,23.2 3.1,13.6 -4.1,21.7 -6.5,24.3 -463.6,513.5 -1051.2,1206.3 -1217.7,1590.6 -87.2,201.2 -66,453.2 59.6,709.5 219.7,448.4 707.9,826.9 1243.7,964.3 1384.7,354.8 2710.2,-201.6 3254.6,-905.3 248,-320.7 308,-653.5 164.4,-913.1 -371.7,-672.4 -652.7,-1359.2 -756.4,-1623.3 v 0 c -3.6,-9.2 -2.5,-19 2.9,-27.1 372.5,-558.1 1434.3,-2818.6 1426.2,-5783.9 -4.7,-1741.4 -377.4,-3436.1 -1107.7,-5037.1 C 31913.6,13665 30479,11840.8 28543,10201.4 27082.4,8964.6 23017.7,7201.8 18553.9,7155.3 c -41.7,-0.5 -83.8,-0.6 -125.3,-0.6"
         style="fill:#650000;fill-opacity:1;fill-rule:nonzero;stroke:none"
         id="path40" /><path
         d="m 10729.9,14964.3 c 380.4,-2027.4 -558.3,-3361.7 -1095.07,-3936.2 -1571.63,1743.2 -1776.88,3529.1 215.2,3934.2 121.01,9.9 428.67,2.3 879.87,2"
         style="fill:#650000;fill-opacity:1;fill-rule:nonzero;stroke:none"
         id="path42" /><path
         d="m 23523.3,13833.4 c -479.6,-318.6 -967.9,-629.1 -1486.4,-884.8 -254.5,-137.6 -520.7,-250.5 -784.2,-370 -65.5,-31 -133,-56.8 -200.4,-83 l -202.2,-79 c -134.9,-52.2 -268.6,-108.2 -406.8,-151.5 l -411.9,-138.5 c -138.3,-43.1 -278.3,-80.3 -417.5,-120.8 l -209.3,-59.3 -211.5,-50.1 c -141.3,-32.2 -281.8,-69.2 -424,-97.5 -568.1,-118.2 -1143.9,-197.5 -1722.5,-248.7 -1157.9,-94.6 -2326.3,-55 -3479,101.9 -576.5,79 -1148.9,188.1 -1715.5,326.2 -283.5,68.1 -565.1,145.5 -845.3,230.6 -140.1,42.2 -279.6,87.2 -419.1,134.9 -69.7,23.4 -139.4,48.3 -209.2,73.7 -70.9,26 -137.2,50.8 -214.5,82.3 -178.99,73 -264.92,277.2 -191.92,456.2 73.02,179 277.22,264.9 456.22,191.9 3.5,-1.4 6.9,-2.9 10.4,-4.5 l 5.7,-2.6 c 54.3,-24.4 120.9,-52.4 183.3,-77.9 63.7,-25.8 127.7,-51.3 192.8,-75.8 129.4,-49.6 260.4,-97.2 392.5,-142.3 264,-90.8 531.2,-174.9 801.2,-250.3 539.6,-152.4 1088,-277.9 1641.7,-374.4 1107.5,-192.1 2236.4,-271.8 3361.6,-221 562.1,29.2 1123.5,85.6 1679.3,180.3 139.2,22.5 276.6,53.5 415.2,79.8 l 207.5,41.1 205.4,50.4 c 136.7,34.4 274.5,65.6 410.6,102.6 l 405.9,120.3 c 136.4,37.2 268.5,87.1 402,133.2 l 200.1,69.9 c 66.8,23.2 133.7,46 198.5,73.9 261.4,107.4 526.1,208.1 779.8,333.9 517,231.7 1006.8,518.9 1490.7,815.2 l 3.3,2.1 c 47.1,28.8 108.6,14.1 137.4,-33 28.2,-45.9 14.6,-105.8 -29.9,-135.4"
         style="fill:#650000;fill-opacity:1;fill-rule:nonzero;stroke:none"
         id="path44" /><path
         d="m 31015.5,25643.7 c -66,-390.8 -156.2,-771.5 -252.9,-1152.8 -51.5,-189.5 -101,-379.7 -156.1,-568.2 l -85,-282.1 c -28.6,-94 -56.7,-188.2 -88.7,-281 -63.1,-186 -122.1,-373.7 -188.7,-558.5 l -202.1,-554.1 -218.8,-548 -55,-136.9 -60,-134.8 -120.1,-269.7 -120.1,-269.7 c -41.4,-89.2 -85.9,-177.1 -128.7,-265.8 -87,-176.5 -171.4,-354.6 -260.8,-530.1 -188.5,-345.9 -365.6,-698.5 -572.7,-1034.4 -389.3,-686.1 -852.1,-1331.4 -1369.8,-1926.6 -56.8,-65.3 -155.9,-72.2 -221.1,-15.4 -59.7,51.9 -70.6,138.8 -29,203.3 l 3.4,5.1 c 421.2,652.7 873.7,1276.8 1273.6,1940.2 210.8,324.6 392.3,666.7 585.5,1002.3 91.8,170.4 178.6,343.6 268.3,515.3 44.1,86.3 89.8,171.7 132.7,258.6 l 124.2,262.7 124.4,262.8 62.3,131.4 58.9,132.9 235,532.4 218.8,539.4 c 72.3,180.2 137,363.2 205.9,544.8 69.1,181.5 127.1,366.8 193.3,549.5 63.3,183.7 121.2,369.1 181,554 112.9,371.1 220.5,746.7 308.3,1121.8 l 0.6,2.5 c 9.8,42.1 52,68.2 94.1,58.4 40.4,-9.5 66,-48.9 59.3,-89.3"
         style="fill:#650000;fill-opacity:1;fill-rule:nonzero;stroke:none"
         id="path46" /><path
         d="m 17862.3,10710.5 c -305.5,-0.1 -748.1,401.5 -985.9,826.8 56.8,4 113.5,8.3 170.2,12.9 578.6,51.2 1154.4,130.5 1722.5,248.7 106.5,21.2 212,47.3 317.6,72.6 108,-186.6 181.7,-400.6 8.2,-481 -50.5,-23.4 -109.9,-33.3 -174.4,-33.3 -176.1,0 -390,73.8 -562.9,147.6 -172.9,73.8 -304.7,147.5 -316.5,147.5 -0.4,0 -0.6,0 -0.8,-0.1 -19.2,-15.8 356.5,-689.7 -42.4,-908.9 -40.7,-22.4 -86.4,-32.8 -135.6,-32.8"
         style="fill:#cf9705;fill-opacity:1;fill-rule:nonzero;stroke:none"
         id="path48" /><path
         d="m 16351.5,11984.1 c -144.4,0 -288.9,2.1 -433.3,6.3 -1315.5,584.5 -2742.3,1567.3 -3584.7,2845.4 235.5,11.5 483.6,26.5 742.2,46 832.5,-1314.3 2345.1,-2337.8 3716.5,-2891.1 -146.9,-4.4 -293.7,-6.6 -440.7,-6.6 m 1580.3,88.4 858.6,1002.9 c 293.8,-65.1 1023.4,-251.6 1029.7,-628.9 0.1,-8 -0.1,-15.9 -0.7,-23.5 -98.1,-24.7 -196.5,-47.7 -294.5,-72.3 l -205.4,-50.4 -207.5,-41.1 c -138.6,-26.3 -276,-57.3 -415.2,-79.8 -254,-43.2 -509.1,-78.5 -765,-106.9"
         style="fill:#cf9705;fill-opacity:1;fill-rule:nonzero;stroke:none"
         id="path50" /><path
         d="m 12333.5,14835.8 c -7.8,11.9 -15.6,23.8 -23.3,35.7 232.9,29.3 470.2,61.9 711,98.3 17.8,-29.4 36,-58.8 54.5,-88 -258.6,-19.5 -506.7,-34.5 -742.2,-46"
         style="fill:#650000;fill-opacity:1;fill-rule:nonzero;stroke:none"
         id="path52" /><path
         d="m 16876.4,11537.3 c -20,35.7 -38.5,71.6 -55.4,107.5 -288.7,92.1 -592.6,207.8 -902.8,345.6 144.4,-4.2 288.9,-6.3 433.3,-6.3 147,0 293.8,2.2 440.7,6.6 244.3,-98.6 484.1,-182.2 714.7,-250 l 112.5,-33 312.4,364.8 c 255.9,28.4 511,63.7 765,106.9 139.2,22.5 276.6,53.5 415.2,79.8 l 207.5,41.1 205.4,50.4 c 98,24.6 196.4,47.6 294.5,72.3 -16.5,-209.1 -302.2,-252.6 -556.4,-252.6 -90.6,0 -177.3,5.5 -246.3,11.1 -69,5.5 -120.3,11.1 -140.4,11.1 -5.3,0 -8.4,-0.4 -9,-1.3 -3.5,-5.2 121.9,-151.3 219.4,-319.8 -105.6,-25.3 -211.1,-51.4 -317.6,-72.6 -568.1,-118.2 -1143.9,-197.5 -1722.5,-248.7 -56.7,-4.6 -113.4,-8.9 -170.2,-12.9"
         style="fill:#650000;fill-opacity:1;fill-rule:nonzero;stroke:none"
         id="path54" /><path
         d="m 26529.4,16166.9 c -252.3,0 -588.6,115.8 -858.7,286.3 -373.7,-95.8 -1178.4,-268.9 -2116.4,-268.9 -907.1,0 -1939,161.8 -2826.7,711.8 213.5,113 421.8,230.3 625.2,352.2 847.2,-469.1 1805.5,-610.8 2654.7,-610.8 1297.4,0 2339.8,331 2339.8,331 v 0.1 c 0.1,0 0.1,0 0.1,0 l 0.7,846.2 1,1271.6 h -0.1 v 0.1 c -43.7,2 -87.3,4.7 -131,8 -59.2,4.5 -118.4,10.1 -177.6,16.7 -9.8,1.2 -19.9,2.3 -29.6,3.5 104.8,106.8 214.9,181.7 319.3,185.1 3.7,0.1 7.3,0.2 10.9,0.2 404.1,0 112.4,-782.9 116.5,-791 0,-0.2 0.3,-0.2 0.7,-0.2 9.3,0 108.8,28.5 247.8,56.9 139,28.5 317.5,57 484.9,57 194.3,0 373.7,-38.3 459.1,-159.7 -107.8,-161.6 -216.9,-322.5 -325.7,-483.8 -170.5,-83.4 -336.3,-134.7 -337.9,-143.3 -0.6,-3.9 78.9,-39.5 177.7,-94.8 -92.5,-138.2 -184.4,-277 -274.8,-417.1 l -3.4,-5.1 c -41.6,-64.5 -30.7,-151.4 29,-203.3 25.9,-22.5 57.1,-35 88.9,-37.8 -131.1,-15.2 -259.4,-17.5 -350.9,-17.5 -20,0 -38.3,0.1 -54.4,0.3 -16.1,0.1 -30.1,0.2 -41.6,0.2 -22.6,0 -35.6,-0.4 -36.4,-2.1 -9.6,-20.4 571.9,-425.6 330.8,-767.3 -61.3,-86.8 -177.9,-124.5 -321.9,-124.5"
         style="fill:#cf9705;fill-opacity:1;fill-rule:nonzero;stroke:none"
         id="path56" /><path
         d="m 20727.6,16896.1 c -52.4,32.4 -104.2,66.2 -155.6,101.4 193.9,119.1 385.6,243.3 574.9,372.8 67.7,-42.9 136.5,-83.6 205.9,-122 -203.4,-121.9 -411.7,-239.2 -625.2,-352.2"
         style="fill:#650000;fill-opacity:1;fill-rule:nonzero;stroke:none"
         id="path58" /><path
         d="m 27072,17086.8 c 24,8.8 46.1,23.6 64,44.2 111.3,128 220.1,258.3 326.2,390.8 72.4,-81.5 103,-170.2 34,-254.7 -82.9,-102 -250.8,-154 -424.2,-180.3"
         style="fill:#cf9705;fill-opacity:1;fill-rule:nonzero;stroke:none"
         id="path60" /><path
         d="m 27003.8,17077.8 c -31.8,2.8 -63,15.3 -88.9,37.8 -59.7,51.9 -70.6,138.8 -29,203.3 l 3.4,5.1 c 90.4,140.1 182.3,278.9 274.8,417.1 101.1,-56.7 222.4,-134.1 298.1,-219.3 -106.1,-132.5 -214.9,-262.8 -326.2,-390.8 -17.9,-20.6 -40,-35.4 -64,-44.2 -22.7,-3.4 -45.5,-6.4 -68.2,-9 m 320.5,901.4 c 108.8,161.3 217.9,322.2 325.7,483.8 7.3,-10.3 14,-21.3 19.8,-32.9 95.1,-187.4 -129,-345 -345.5,-450.9"
         style="fill:#650000;fill-opacity:1;fill-rule:nonzero;stroke:none"
         id="path62" /><path
         d="m 20418.9,22724.6 c -1968.8,-2248.7 -5690,-428.2 -7392.1,-3944.8 -1705.2,-3523 2101.8,-6151.9 4531.2,-6865.2 l 1564.5,1827.5 c 0,0 -1544.2,786.1 -1737.8,2784.7 l 3034.2,6197.8"
         style="fill:#b74729;fill-opacity:1;fill-rule:nonzero;stroke:none"
         id="path64" /><path
         d="m 12782.5,17047.8 c 2.6,544.9 138.4,1097.3 407.4,1653 921.8,1904.4 2421.4,2167.9 4009.1,2446.9 90.1,15.8 180.4,31.7 270.8,47.9 157.8,-57.5 329.7,-108 516.3,-151.9 27.4,-10.7 55,-20.7 82.7,-29.9 80.7,-27.2 167.7,-53.4 260.8,-78.5 -1859.2,-435.9 -3997.9,-318.9 -5173.5,-2747.9 -189.5,-391.4 -310.9,-771.7 -373.6,-1139.6"
         style="fill:#d4917f;fill-opacity:1;fill-rule:nonzero;stroke:none"
         id="path66" /><path
         d="m 17497.3,12122.5 c -1618.8,505.8 -3653.1,1794.9 -4406.7,3495.3 -92.6,208.8 -164.2,419.3 -215.1,631.4 553.9,-1085.9 1580.7,-1972.6 2649.8,-2595.9 378.2,-220.5 795.4,-327.3 1208.8,-327.3 621.3,0 1233.7,241.2 1691.8,700.3 162,-147.5 309.5,-255.9 419.7,-328.9 l -1348.3,-1574.9"
         style="fill:#9e321d;fill-opacity:1;fill-rule:nonzero;stroke:none"
         id="path68" /><path
         d="m 17619.4,11707.7 -112.5,33 c -1713.3,503 -3929.8,1884.9 -4747.8,3730.2 -487,1098.7 -451.8,2238.5 104.5,3387.9 1002.6,2071.4 2665,2363.5 4272.7,2646 1199.5,210.7 2332.5,409.8 3146.2,1339.3 66,75.3 180.5,82.9 255.8,16.9 75.3,-65.9 82.9,-180.5 17,-255.8 -897.9,-1025.6 -2147.7,-1245.2 -3356.3,-1457.5 -1587.7,-279 -3087.3,-542.5 -4009.1,-2446.9 -507.7,-1048.9 -541.1,-2086.2 -99.3,-3083 753.6,-1700.4 2787.9,-2989.5 4406.7,-3495.3 l 1348.3,1574.9 c -440.6,292.3 -1480.4,1149.6 -1641.3,2811.9 -9.7,99.6 63.3,188.3 162.9,197.9 100.1,10 188.3,-63.3 197.9,-163 181.9,-1877.8 1625.1,-2633.2 1639.6,-2640.5 l 205.3,-104.5 -1790.6,-2091.5"
         style="fill:#650000;fill-opacity:1;fill-rule:nonzero;stroke:none"
         id="path70" /><path
         d="m 24745.2,20819 c 125.3,152.5 246.4,303.5 363.3,452.7 62.2,20.8 124.2,42.2 186.1,64 -122.1,-153.7 -248.8,-309.2 -380.8,-466.7 -56.5,-17.1 -112.7,-33.8 -168.6,-50"
         style="fill:#8d2314;fill-opacity:1;fill-rule:nonzero;stroke:none"
         id="path72" /><path
         d="m 25495.5,21059.2 c 136.3,170.3 266.8,338.1 392.1,503.3 271.4,113.1 504.9,225.5 698,336.2 25.4,14.9 50.5,30.4 75.3,46.6 915.3,428.8 1393.3,954.1 1501.5,1647.3 40.9,262.3 16.3,624.5 -106.9,947.1 224.5,26.8 481.3,82 730.5,189.6 682.1,294.5 1044.9,814.9 1106.8,1589.3 71.4,41.3 126.6,105.5 156.4,181.9 16.3,3.2 33.2,6.4 50.5,9.6 55.8,-183.3 80.1,-372.3 70.9,-551.2 -40.7,-798.6 -408.8,-1259.9 -1003.4,-1516.5 -333.1,-143.6 -684.8,-186.7 -939,-195.3 70.7,-114.2 123.7,-244.7 160.4,-379.8 65.7,-242.9 79.3,-500.3 48,-700.2 -112.8,-721.1 -672.5,-1187 -1490.6,-1552.7 -279.5,-136.9 -673.5,-264.2 -1162.5,-450.1 -95.8,-36.2 -191.9,-71.3 -288,-105.1"
         style="fill:#cf9705;fill-opacity:1;fill-rule:nonzero;stroke:none"
         id="path74" /><path
         d="m 30049.2,26500.5 c 6.2,16 11.4,32.5 15.3,49.5 3.4,14.5 5.8,29.1 7.3,43.7 10,-27.7 19.3,-55.6 27.9,-83.6 -17.3,-3.2 -34.2,-6.4 -50.5,-9.6"
         style="fill:#747c19;fill-opacity:1;fill-rule:nonzero;stroke:none"
         id="path76" /><path
         d="m 24913.8,20869 c 132,157.5 258.7,313 380.8,466.7 14.3,5.1 28.6,10.2 42.9,15.3 197.7,70.6 381.2,141.2 550.1,211.5 -125.3,-165.2 -255.8,-333 -392.1,-503.3 -194.8,-68.5 -389.6,-131.9 -581.7,-190.2 m 4979,5449.6 c 2.3,27.8 4.1,55.8 5.5,84.2 8.6,166.6 -8.1,335.4 -46.9,499.4 19.4,7.3 38.9,14.5 58.6,21.6 66.3,-104 120.3,-215.4 161.8,-330.1 -1.5,-14.6 -3.9,-29.2 -7.3,-43.7 -3.9,-17 -9.1,-33.5 -15.3,-49.5 -29.8,-76.4 -85,-140.6 -156.4,-181.9"
         style="fill:#650000;fill-opacity:1;fill-rule:nonzero;stroke:none"
         id="path78" /><path
         d="m 27035.8,26889.3 c 0,0 66.2,1009.2 1132,1121 1023.9,107.5 1588.3,-838.3 1549.5,-1598.2 -40.7,-798.5 -408.7,-1259.7 -1003.2,-1516.4 -621,-268 -1305.7,-185.5 -1305.7,-185.5 l -372.6,2179.1"
         style="fill:#ffca9f;fill-opacity:1;fill-rule:nonzero;stroke:none"
         id="path80" /><path
         d="m 29523.8,26682.2 c -184.8,526.4 -632.7,986.5 -1298.1,986.5 -51.3,0 -104,-2.7 -157.9,-8.4 -78.3,-8.2 -151.3,-21.3 -219.2,-38.4 -2.5,41 -5.6,81.9 -9.2,122.8 99.2,41.3 214.2,71.4 347.4,85.3 46.3,4.9 91.9,7.3 136.9,7.3 295.8,0 562,-104.8 775.3,-307 225,-213.2 379.1,-527.8 424.8,-848.1"
         style="fill:#ffdfc5;fill-opacity:1;fill-rule:nonzero;stroke:none"
         id="path82" /><path
         d="m 27081.4,26450.7 c 0,0 41.6,548.4 656.1,612.8 590.3,61.9 912.2,-449.8 887.2,-862.7 -26.3,-433.8 -239.9,-685.6 -583.3,-827.1 -358.7,-147.7 -752.9,-105.3 -752.9,-105.3 l -207.1,1182.3"
         style="fill:#f28475;fill-opacity:1;fill-rule:nonzero;stroke:none"
         id="path84" /><path
         d="m 27425.1,25112.7 c -89,0 -146.4,5.9 -152.7,6.6 -82.4,8.9 -141.9,82.8 -133,165.2 8.8,82.4 82.4,141.9 165.1,133.1 3.4,-0.3 362.5,-35.8 679.8,94.8 318.1,131 469.4,346.1 490.7,697.5 11.6,193.1 -72.5,405.6 -214.3,541.4 -92.9,88.9 -256.1,189.4 -507.6,163 -484.4,-50.8 -520.9,-457.7 -522.2,-475 -6.2,-82.6 -77.2,-144.1 -160.9,-138.2 -82.6,6.3 -144.5,78.4 -138.2,160.9 17.7,232.9 205.6,689.4 790.1,750.7 365.3,38.4 607.4,-111.9 746.2,-244.7 206,-197.1 323.4,-494.5 306.3,-776.2 -27.9,-461.7 -255.3,-783.6 -675.8,-956.8 -250.6,-103.1 -513.2,-122.2 -673.5,-122.3"
         style="fill:#650000;fill-opacity:1;fill-rule:nonzero;stroke:none"
         id="path86" /><path
         d="m 27666.4,24516.7 c -162.6,0 -268.6,12.2 -279.7,13.5 -99.4,12 -170.3,102.3 -158.3,201.7 11.9,99.4 102.4,170.1 201.6,158.3 6.1,-0.7 646,-72.4 1212.3,171.9 575.2,248.4 859.3,680.3 893.9,1359.2 20.6,402.5 -151,837.8 -437.2,1109 -245.7,233 -561.6,336.7 -912.2,299.7 -896.1,-94 -967.6,-918.3 -970.1,-953.3 -7.5,-99.6 -94.6,-174.6 -193.5,-167.8 -99.6,6.9 -174.9,92.7 -168.3,192.3 26.4,401.8 330.7,1188.4 1294,1289.4 460,48.3 874.5,-89.1 1199.5,-397.1 365.3,-346.3 576.1,-879.2 549.9,-1390.7 -41.8,-821 -405.7,-1368.5 -1112.3,-1673.5 -412.7,-178.2 -846.2,-212.6 -1119.6,-212.6"
         style="fill:#650000;fill-opacity:1;fill-rule:nonzero;stroke:none"
         id="path88" /><path
         d="m 16553.2,25799.8 c 0,0 -272.3,974 -1338.4,864.3 -1024,-105.4 -1381.9,-1147 -1187.7,-1882.8 204.1,-773 659.1,-1148.7 1293.6,-1277.6 662.9,-134.6 1316,86.9 1316,86.9 l -83.5,2209.2"
         style="fill:#ffca9f;fill-opacity:1;fill-rule:nonzero;stroke:none"
         id="path90" /><path
         d="m 14309.3,24607.1 c -24,29.8 -47.1,60.8 -69.6,93 -13.3,41.2 -25.7,83.7 -37.2,127.5 -102.9,389.7 -24.5,851 199.8,1175.3 192.6,278.4 479.9,444.7 831.1,480.8 49.2,5.1 96.4,7.5 141.7,7.5 97.7,0 186.5,-11.1 267.1,-30.6 1.6,-12.8 3.2,-25.5 4.9,-38.2 -42.6,-0.9 -86.7,-3.6 -132.3,-8.3 -989.3,-101.8 -1356.9,-1077.6 -1205.5,-1807"
         style="fill:#ffdfc5;fill-opacity:1;fill-rule:nonzero;stroke:none"
         id="path92" /><path
         d="m 15775.1,23641.4 c -134.3,0 -276.3,11.1 -418.3,40 -461.6,93.7 -783.4,322.7 -988.5,709.9 -14.7,45.1 -28.4,91.8 -41.1,140 -6.6,25 -12.6,50.2 -17.9,75.8 259.2,-322.3 608.6,-507.7 1030.7,-593.5 168.8,-34.3 337,-47.5 495.8,-47.5 250.2,0 476.8,32.7 645.1,66.8 -109.4,-84.1 -200.1,-196.2 -268.2,-333 -3.9,-8 -7.8,-15.9 -11.5,-24 -123.6,-19.4 -269.6,-34.5 -426.1,-34.5"
         style="fill:#d08d6f;fill-opacity:1;fill-rule:nonzero;stroke:none"
         id="path94" /><path
         d="m 14368.3,24391.3 c -49.6,93.5 -92.3,196.4 -128.6,308.8 22.5,-32.2 45.6,-63.2 69.6,-93 5.3,-25.6 11.3,-50.8 17.9,-75.8 12.7,-48.2 26.4,-94.9 41.1,-140"
         style="fill:#d09c8a;fill-opacity:1;fill-rule:nonzero;stroke:none"
         id="path96" /><path
         d="m 27867.5,24886.8 c -5.8,7.7 -11.7,15.4 -17.7,23 -67.9,85.9 -144.6,156.9 -228.4,212.3 142.6,13.6 312.5,45.1 477.2,112.9 6.1,2.6 12.3,5.1 18.3,7.7 154.8,32.7 316,80.1 473.6,148.1 431.9,186.5 754.6,471.7 935.5,898 -63.5,-603.2 -346.8,-994.8 -883.7,-1226.7 -266.6,-115 -549.4,-160 -774.8,-175.3"
         style="fill:#d08d6f;fill-opacity:1;fill-rule:nonzero;stroke:none"
         id="path98" /><path
         d="m 27621.4,25122.1 c -30.3,20 -61.5,38 -93.5,53.8 164.1,4 370.1,20.7 589,66.8 -6,-2.6 -12.2,-5.1 -18.3,-7.7 -164.7,-67.8 -334.6,-99.3 -477.2,-112.9"
         style="fill:#650000;fill-opacity:1;fill-rule:nonzero;stroke:none"
         id="path100" /><path
         d="m 27976.9,24713.7 c -32.2,60.7 -68.6,118.8 -109.4,173.1 225.4,15.3 508.2,60.3 774.8,175.3 536.9,231.9 820.2,623.5 883.7,1226.7 71.9,169.6 121.4,361.5 146.5,578.5 37,-152.5 52.5,-307.5 44.8,-455.1 -40.8,-798.7 -408.7,-1260 -1003.1,-1516.6 -251.9,-108.6 -514.3,-159.6 -737.3,-181.9"
         style="fill:#650000;fill-opacity:1;fill-rule:nonzero;stroke:none"
         id="path102" /><path
         d="m 16598.8,25361.2 c 0,0 -153.5,528.1 -768.1,464.8 -590.4,-60.8 -800.2,-627.8 -690.8,-1026.7 114.9,-419.2 375.7,-621.7 740.8,-689.5 381.5,-70.8 758.6,51.8 758.6,51.8 l -40.5,1199.6"
         style="fill:#f28475;fill-opacity:1;fill-rule:nonzero;stroke:none"
         id="path104" /><path
         d="m 15139.9,24799.2 c 114.9,-419 375.6,-621.5 740.7,-689.3 41.8,-7.6 83.5,-13.1 124.6,-16.7 335.1,-28.7 634.1,68.4 634.1,68.4 l -40.4,1199.7 c 0,0 -40.3,138.9 -162.7,265.7 -116.1,120.6 -305.9,230 -605.5,199.1 -590.4,-61 -800.2,-627.8 -690.8,-1026.9"
         style="fill:#f28475;fill-opacity:1;fill-rule:nonzero;stroke:none"
         id="path106" /><path
         d="m 16392.7,24107.6 c 33.4,4.9 64.3,10.4 92.1,15.9 1.8,-2.5 3.6,-5 5.4,-7.5 -31.2,-3.3 -63.8,-6.2 -97.5,-8.4"
         style="fill:#d08d6f;fill-opacity:1;fill-rule:nonzero;stroke:none"
         id="path108" /><path
         d="m 16391.7,24107.5 c 33.8,5 65,10.5 93.1,16.1 v -0.1 c -27.8,-5.5 -58.7,-11 -92.1,-15.9 -0.4,0 -0.7,-0.1 -1,-0.1"
         style="fill:#c75c52;fill-opacity:1;fill-rule:nonzero;stroke:none"
         id="path110" /><path
         d="m 16251.6,24102.8 c -24.4,0 -49,0.5 -73.8,1.4 -138,81.5 -238.6,201.9 -294.7,371.6 -54,162.5 -11.8,365.1 133.5,525.7 131.8,-328.9 289.8,-626.2 468.2,-877.9 -28.1,-5.6 -59.3,-11.1 -93.1,-16.1 -45,-2.9 -92,-4.7 -140.1,-4.7"
         style="fill:#c75c52;fill-opacity:1;fill-rule:nonzero;stroke:none"
         id="path112" /><path
         d="m 27557.8,25417.9 c 100.3,264.3 176.9,558.6 228,872.7 237.9,-121.8 353.3,-345.8 330.8,-543.3 -8.2,-72 -25.1,-137.6 -50.3,-197.3 -26,-13.3 -53.3,-25.8 -82,-37.6 -146.3,-60.2 -301.4,-85.1 -426.5,-94.5"
         style="fill:#c75c52;fill-opacity:1;fill-rule:nonzero;stroke:none"
         id="path114" /><path
         d="m 27494.4,25262.1 c 22,50.7 43.2,102.6 63.4,155.8 125.1,9.4 280.2,34.3 426.5,94.5 28.7,11.8 56,24.3 82,37.6 -36.9,-87.6 -91.4,-162.7 -161.7,-226.9 -149.2,-37.5 -295.7,-54 -410.2,-61"
         style="fill:#650000;fill-opacity:1;fill-rule:nonzero;stroke:none"
         id="path116" /><path
         d="m 16132.4,23937.8 c -89.4,0 -183.9,6.9 -279.1,24.5 -447.1,83.1 -735.9,351.3 -858.1,797.3 -74.6,272.2 -21,587.4 140.1,822.6 108.5,158.5 314.5,355.3 680,393 584.8,60 862.3,-347.9 927.5,-572.1 23.1,-79.6 -22.6,-162.8 -102.1,-186 -79.8,-23 -162.2,22.4 -185.7,101.3 -13.1,42.6 -140.6,406.6 -608.9,358.4 -251.3,-25.9 -390.6,-157.9 -463.3,-264 -110.9,-162 -149.4,-387.3 -98.3,-573.9 93,-339.4 285.4,-518.8 623.6,-581.6 340.1,-63.1 681.4,45.9 684.8,47 78.8,25.5 163.4,-17.5 189,-96.3 25.6,-78.8 -17.5,-163.4 -96.2,-189 -13,-4.3 -254.1,-81.2 -553.3,-81.2"
         style="fill:#650000;fill-opacity:1;fill-rule:nonzero;stroke:none"
         id="path118" /><path
         d="m 15775.5,23278.9 c -156.6,0 -323.1,13 -490.9,47.1 -754.2,153.2 -1222.9,614.1 -1432.7,1409.1 -130.8,495.2 -34.1,1060 252.2,1474.1 254.7,368.2 632.3,587.9 1092.2,635.2 964.9,99.1 1423.1,-608 1531.5,-995.8 27,-96.4 -29.4,-196.4 -125.7,-223.4 -96.5,-26.8 -196,29.2 -223.3,125.2 -10.3,35.6 -249.6,825.2 -1145.4,733.3 -351.2,-36.1 -638.5,-202.4 -831.1,-480.8 -224.3,-324.3 -302.7,-785.6 -199.8,-1175.3 173.4,-657.3 540.2,-1021.5 1154.3,-1146.2 608,-123.6 1215.7,78.8 1221.7,80.9 95,32.2 197.7,-18.6 229.9,-113.4 32.2,-94.8 -18.6,-197.8 -113.4,-229.9 -21.8,-7.4 -420.4,-140.1 -919.5,-140.1"
         style="fill:#650000;fill-opacity:1;fill-rule:nonzero;stroke:none"
         id="path120" /><path
         d="m 15844.8,26322.6 c 135.9,-858.2 466.4,-1750.6 966.9,-2322.2 -392.2,-114.9 -547.9,-521.4 -563.1,-928.3 -9.1,-240 30.4,-480.3 99,-661 242.9,-641.3 825.7,-981.1 1621.8,-1177.2 51.2,-12.3 103,-24.3 156,-35.9 -140.3,46.7 -275.5,113.8 -401.4,195.1 -443.3,285.8 -774.6,747.7 -839.8,1129.6 -2.2,14.3 -4.3,28.6 -6,42.7 -2,16.2 -3.7,32.4 -4.4,48.1 -1.4,13.1 -2.1,26.3 -2.5,38.9 -13.8,317.8 112.7,556.1 266.2,726.4 219.6,243.9 494.7,349.2 494.7,349.2 0,0 -1367.9,2033.9 -410.4,4012.7 7.8,16 15.3,32.2 23.4,47.9 540.9,1075.1 1351.1,1552.4 2128.6,1645.2 1.5,0.5 3.4,0.7 5,0.6 1006,118.1 1956.1,-407.7 2194.8,-1115.7 26,-76.9 43.6,-155.6 52,-236.2 l 25.9,2.7 c -83.7,805.3 766.2,1648 1851.2,1777.8 797.1,95.5 1721.6,-193.7 2496,-1164.6 11.2,-13.7 22.2,-28 32.8,-42.1 1344,-1739.6 423.9,-4011.3 423.9,-4011.3 0,0 1.6,-0.1 4.5,-0.8 35,-6.1 268.1,-52.3 498.1,-202.4 199.5,-130.2 396.8,-339.2 458.5,-669.1 7.2,-35.2 12.2,-71.9 15.6,-110.4 12.7,-143.3 -10.6,-307.7 -64.4,-477.2 v -0.3 c -79.4,-250.4 -225.5,-512.5 -420.8,-735.5 -130.9,-150 -284.2,-282.1 -454.2,-381.6 818.3,365.8 1378,831.5 1490.6,1552.7 31.3,200 17.9,457.2 -47.8,700.1 -103.5,382.3 -337.5,729 -733.2,759.9 372.3,662.3 511.9,1603.5 468.7,2471.4 -136.7,2728 -2529.8,4764.6 -5299.5,4946.6 l -0.6,0.2 c -251.7,51.8 -658.7,139.6 -1203.1,268.1 -647.6,152.4 -1124.3,570.8 -1327.2,776.4 -55.8,56.7 -150.9,41.8 -186.7,-29.5 -86.7,-171.3 -209.6,-590.1 -274.7,-918 -14.5,-72.8 -92.7,-113.5 -160.8,-83.9 -124.7,54.6 -329,261 -513.5,375 -63.8,39.5 -147.8,9 -171.4,-62 -70.1,-211.9 -174.6,-655.3 -91.7,-1259.2 -1806.1,-1114.4 -2934.6,-3112.6 -2597,-5242.9"
         style="fill:#b74729;fill-opacity:1;fill-rule:nonzero;stroke:none"
         id="path122" /><path
         d="m 18411.2,31996.4 c -1.1,384.8 70.1,670.7 122.3,828.4 16.5,49.6 62.5,79.4 110.4,79.4 20.7,0 41.8,-5.5 61,-17.4 184.5,-114.1 388.8,-320.5 513.5,-375.1 15.3,-6.6 31,-9.7 46.5,-9.7 53.5,0 103.1,37.1 114.3,93.7 65.1,327.8 188,746.6 274.7,917.9 21,41.8 62.3,64.2 104.1,64.2 29.6,0 59.5,-11.2 82.6,-34.7 202.9,-205.5 679.6,-623.9 1327.2,-776.4 449.9,-106.1 806,-184.5 1058.1,-237.8 0,0 0,0 0,0 -252.1,53.2 -608.2,131.6 -1058.1,237.8 -647.6,152.4 -1124.3,570.8 -1327.2,776.4 -23.1,23.5 -53,34.7 -82.5,34.7 -41.9,0 -83.2,-22.4 -104.2,-64.2 -86.7,-171.3 -209.6,-590.1 -274.7,-918 -11.2,-56.5 -60.8,-93.7 -114.3,-93.7 -15.5,0 -31.2,3.1 -46.5,9.8 -124.7,54.6 -329,261 -513.5,375 -19.2,11.9 -40.3,17.4 -60.9,17.4 -48,0 -94,-29.8 -110.5,-79.4 -52.2,-157.7 -123.4,-443.5 -122.3,-828.3"
         style="fill:#fff9c5;fill-opacity:1;fill-rule:nonzero;stroke:none"
         id="path124" /><path
         d="m 16069.4,28018.9 c 285.4,1347.6 1161.6,2586.5 2467.6,3392.4 85.2,52.5 111.6,164.2 59.1,249.4 -34.3,55.6 -93.7,86.2 -154.5,86.2 -6.5,0 -13.1,-0.4 -19.6,-1.1 -7.2,87.6 -10.5,171.1 -10.8,250.6 -1.1,384.8 70.1,670.6 122.3,828.3 16.5,49.6 62.5,79.4 110.5,79.4 20.6,0 41.7,-5.5 60.9,-17.4 184.5,-114 388.8,-320.4 513.5,-375 15.3,-6.7 31,-9.8 46.5,-9.8 53.5,0 103.1,37.2 114.3,93.7 65.1,327.9 188,746.7 274.7,918 21,41.8 62.3,64.2 104.2,64.2 29.5,0 59.4,-11.2 82.5,-34.7 202.9,-205.6 679.6,-624 1327.2,-776.4 449.9,-106.2 806,-184.6 1058.1,-237.8 -0.5,-2.7 -1,-5.5 -1.3,-8.3 -13.2,-98 54.6,-188.2 151.8,-203.3 l 17.8,-2 c 89,-6.5 170.1,-14.1 247.9,-23.4 l 15.4,-2.8 5.9,0.6 c 2067.7,-241.8 3748.7,-1486.9 4462.5,-3166.4 -900.4,1624.5 -2702.2,2720.7 -4700,2851.9 l -0.7,0.2 c -251.6,51.9 -658.6,139.7 -1203,268.1 -647.7,152.4 -1124.3,570.8 -1327.3,776.4 -23.1,23.5 -52.9,34.7 -82.5,34.7 -41.8,0 -83.2,-22.4 -104.2,-64.2 -86.7,-171.3 -209.5,-590.1 -274.6,-918 -11.3,-56.5 -60.9,-93.6 -114.3,-93.6 -15.5,0 -31.3,3.1 -46.5,9.7 -124.7,54.6 -329,261 -513.6,375.1 -20.7,12.8 -37.2,19 -50.6,19 -28,0 -43.2,-26.5 -57.6,-74.8 -42.1,-140.7 -26.2,-476.2 56.7,-1080.1 -1301.8,-768.2 -2231.3,-1922 -2638.3,-3208.8"
         style="fill:#d4917f;fill-opacity:1;fill-rule:nonzero;stroke:none"
         id="path126" /><path
         d="m 18125.5,21016.8 c -12.7,0 -25.6,1.3 -38.5,4.1 -1045.4,226.3 -1652,647.7 -1908.9,1326 -133,350.8 -178.9,923.8 34.6,1353 77.4,155.4 183.9,279 314.1,365.8 -412.8,556.2 -722.4,1353 -861.1,2228.6 -167.8,1059.1 9.4,2135.8 512.5,3113.7 480.3,933.4 1230.1,1732.8 2168.4,2311.8 85.2,52.6 196.9,26.2 249.5,-59.1 52.5,-85.2 26.1,-196.9 -59.1,-249.4 -1834.5,-1132 -2820.9,-3118.2 -2513.2,-5060.2 142.4,-898.7 487.9,-1732.8 924.3,-2231.2 l 187.1,-213.6 -272.5,-79.8 c -141.4,-41.4 -250.8,-138.3 -325.3,-288.1 -156.1,-313.6 -126.9,-781.7 -20.3,-1063 212.2,-560.2 720.1,-899.5 1646.6,-1100.1 97.9,-21.2 160,-117.7 138.8,-215.6 -18.4,-84.9 -93.5,-142.9 -177,-142.9"
         style="fill:#650000;fill-opacity:1;fill-rule:nonzero;stroke:none"
         id="path128" /><path
         d="m 26492.8,21886.4 c -69.3,0 -135.5,40 -165.6,107.4 -40.8,91.4 0.1,198.6 91.6,239.5 865.7,386.9 1293,823.4 1385.4,1415.2 46.3,297.4 -21.6,761.7 -238.8,1036.4 -103.7,131.1 -230.6,203.3 -377.2,214.8 l -283,22.1 139.1,247.4 c 324.3,577 490.9,1464.3 445.6,2373.6 -122.1,2440.4 -2150.6,4434 -4826.5,4746.9 l -5.9,-0.6 -15.4,2.8 c -77.8,9.3 -158.9,16.9 -247.9,23.4 l -17.8,2 c -97.2,15.1 -165,105.3 -151.8,203.3 13,96.6 100,164.8 195.8,156.4 0.9,-0.1 1.9,-0.1 2.8,-0.2 86.9,-6.4 167.1,-13.9 244.2,-22.8 l 1.2,0.1 16.7,-1.9 c 1344.6,-153.1 2605.2,-733.8 3549.6,-1635.3 978,-933.6 1552.4,-2161 1617.2,-3456 44,-885.9 -95.1,-1729.4 -384.3,-2358.1 145,-58.2 274.4,-157 382,-293 297.3,-376 370.5,-946.3 312.6,-1317.2 -111.9,-716.6 -618.9,-1253.8 -1595.7,-1690.3 -24,-10.8 -49.2,-15.9 -73.9,-15.9"
         style="fill:#650000;fill-opacity:1;fill-rule:nonzero;stroke:none"
         id="path130" /><path
         d="m 16866.1,22562.7 c 0.2,-1.9 6.4,-15.8 18,-39.8 79.5,-162.9 413.7,-783.6 839.9,-1129.6 78.9,-64.1 161,-118.7 245.4,-159.2 33.6,-16.4 67.6,-30.2 101.6,-41.5 74.6,-16.3 151,-31.1 228.5,-44.8 24.8,-4.7 49.5,-8.8 74.3,-12.8 408.6,-67.7 635.8,-138.5 909.7,-192.5 219.2,-43.2 468.3,-75.7 864.1,-86.7 897.7,-25.1 1685.5,-49.9 2142.5,-2.4 708.2,73.6 1895.2,330.2 3040.4,764.4 488.8,185.6 969.8,403.2 1402.9,652.8 l 0.6,0.7 c 75,56.1 146.5,115.4 212.9,178.1 222.6,209.5 386.2,455.1 420.8,735.6 v 0.3 c 17.2,135.6 3.8,279.8 -47.4,431.7 -3.3,10.7 83.8,102.2 79.9,112.2 -2.7,7.6 -5.4,15.2 -8.3,22.5 -127.6,346.4 -283.6,559.7 -433.9,690.3 -207.6,180.5 -403.6,203.7 -498.2,202.4 -37.5,-0.5 -58.8,-4.9 -58.8,-4.9 0,0 894.2,2269.1 -449.8,4008.7 -11,14.3 -21.9,28.3 -33.1,42 -748.6,938.5 -1636.8,1240 -2415.5,1172.9 -1013.6,-87.3 -1840.7,-799.7 -1929,-1544.3 -9.6,-80.5 -10.7,-161.2 -2.4,-241.8 -84,809.1 -1098.1,1461.1 -2192.4,1357.5 -1.6,0.2 -3.5,0 -5,-0.5 -793.7,-76.5 -1629.5,-550.8 -2182.9,-1650.9 -8.2,-15.7 -15.7,-31.6 -23.5,-47.9 -957.5,-1978.8 410.5,-4012.7 410.5,-4012.7 0,0 -234.2,-28.5 -440.5,-343.5 -104.3,-159.3 -202.1,-391.7 -258.4,-731 -1.6,-11.2 -3.6,-22.8 -5.2,-34.3 -2.7,-16.7 -5.4,-33.7 -7.7,-51"
         style="fill:#ffca9f;fill-opacity:1;fill-rule:nonzero;stroke:none"
         id="path132" /><path
         d="m 23516.7,23255.5 c 20.9,-200.7 330.5,-333 691.7,-295.4 361.2,37.5 637,230.6 616.2,431.3 -20.9,200.7 -330.6,333 -691.7,295.5 -361.2,-37.6 -637.1,-230.7 -616.2,-431.4"
         style="fill:#f28475;fill-opacity:1;fill-rule:nonzero;stroke:none"
         id="path134" /><path
         d="m 19443.6,22832.2 c 20.9,-200.7 330.5,-333 691.7,-295.5 361.1,37.6 637,230.7 616.2,431.4 -20.9,200.7 -330.6,333 -691.7,295.4 -361.2,-37.5 -637.1,-230.6 -616.2,-431.3"
         style="fill:#f28475;fill-opacity:1;fill-rule:nonzero;stroke:none"
         id="path136" /><path
         d="m 18441.6,31384.3 c -89.2,0 -166.9,65.8 -179.3,156.6 -87.9,640.6 24.3,1114.9 99,1340.7 28.7,86.8 94.6,154.5 180.6,185.8 86.1,31.4 180.3,21.7 258.3,-26.4 95.9,-59.3 193.7,-138.6 279.9,-208.6 47,-38 97.7,-79.2 140.3,-110.2 66.6,304.7 178.7,689.2 271.5,873.2 43,85.4 125.1,145.3 219.6,160.2 94.4,14.9 191,-17 258.2,-85.1 86.3,-87.4 551.5,-533.2 1247.2,-729.4 975.1,-274.9 1446.5,-287.6 1451.2,-287.7 99.9,-2 179.6,-84.6 177.7,-184.5 -1.7,-99.9 -85.4,-178.1 -183.8,-178 -20.6,0.3 -514.8,11.2 -1543.5,301.3 -671.1,189.2 -1153.2,586.1 -1339,758.2 -74,-185.6 -168.3,-516.4 -222.6,-790 -17.6,-88.9 -73.8,-163.9 -154.1,-205.8 -80.3,-42 -174.1,-45.2 -256.9,-9 -89.2,38.9 -184.2,116 -294.3,205.3 -57,46.3 -115.3,93.6 -171.3,134 -61,-218.1 -127.1,-597.1 -58.9,-1094.6 13.7,-99.2 -55.7,-190.7 -154.9,-204.3 -8.3,-1.1 -16.7,-1.7 -24.9,-1.7"
         style="fill:#650000;fill-opacity:1;fill-rule:nonzero;stroke:none"
         id="path138" /><path
         d="m 22267.1,23542 c -27.2,-11 -56.3,9.7 -55.3,39 3.3,87.8 27.1,240.9 151,273.8 164,43.6 197.1,-99.3 186.6,-144 -12.2,-52.2 -51.2,-88.1 -132.5,-114.2 -50,-16 -107.9,-37.7 -149.8,-54.6"
         style="fill:#650000;fill-opacity:1;fill-rule:nonzero;stroke:none"
         id="path140" /><path
         d="m 21810.3,23494.5 c 28.8,-5.2 53.1,21.1 46,49.5 -21.3,85.3 -76.1,230.2 -204,236.9 -169.5,9 -172.5,-137.7 -153.1,-179.3 22.7,-48.5 68.2,-75.6 153.2,-84.4 52.2,-5.4 113.3,-14.8 157.9,-22.7"
         style="fill:#650000;fill-opacity:1;fill-rule:nonzero;stroke:none"
         id="path142" /><path
         d="m 21678.4,22728.9 c 103.5,-54 204.1,-91.3 302.8,-102.3 98.5,-11.2 193.2,4 276.9,42 84.1,37.8 154.9,101.5 207.8,182.2 53,81.3 86.3,180.4 106.6,292.9 l 1.2,6.7 c 10.4,58 65.9,96.5 123.9,86.1 43.9,-8 76.6,-41.8 85.4,-82.9 30.1,-141.9 15.7,-302.1 -52.7,-445.6 -67.3,-143.1 -188.1,-268.4 -338.3,-333.2 -148.9,-67.3 -320.2,-76.5 -470.5,-34.5 -151.3,41.1 -280.4,130.4 -371.2,241 -34.7,42.2 -28.6,104.6 13.7,139.4 31.6,25.9 74.5,29 108.6,11.3 l 5.8,-3.1"
         style="fill:#650000;fill-opacity:1;fill-rule:nonzero;stroke:none"
         id="path144" /><path
         d="m 19675,29255 c -599.8,0 -1595.5,-227.2 -2266.5,-1560.4 -5.6,-10.8 -9.9,-19.8 -14.2,-28.7 l -8.3,-17.4 c -901.4,-1862.7 385,-3812.3 398,-3831.8 l 127.2,-189.1 -212.9,-81.4 c -28.9,-11.3 -720.5,-289.4 -638.8,-971.8 49.7,-414.7 523.8,-1016.5 1124.6,-1216.9 308.1,-103.9 718.7,-192.3 1221,-262.8 1940.3,-273.8 3949.5,-67.1 5810.4,597.7 495.3,176.9 895.1,351.9 1188.4,520.1 545.8,319.1 885.9,1005.3 849,1421.3 -60.4,684.6 -794.2,814.6 -825.4,819.8 l -223.1,37.2 84.3,209.8 c 8.7,21.6 863.3,2198.2 -399.3,3832.4 -10.3,13.6 -19.7,26 -29.4,37.9 -1196,1499.3 -2539.5,1103.8 -2923,947 -695.9,-284.8 -1160.1,-884.7 -1103.8,-1426.4 10.4,-99.6 -62,-188.7 -161.6,-199.1 -4.3,-0.4 -8.6,-0.7 -12.9,-0.8 -4.3,-0.8 -8.6,-1.4 -13,-1.9 -99.5,-10.3 -188.7,62 -199.1,161.6 -56.3,541.7 -633.9,1033.3 -1373.4,1168.9 -89.9,16.5 -228.2,34.8 -398.2,34.8 m 1411.1,-8640.4 c -579.5,0 -1158.4,40.2 -1731.5,121 -524.4,73.7 -957.1,167.3 -1285.8,278.2 -681.7,227.4 -1296.2,908.2 -1369.3,1517.5 -76.8,641 337.7,1060.5 675.9,1259.2 -315.8,550.6 -1152.6,2286.6 -315.4,4016.7 l 7.4,15.4 c 6,12.5 12,24.9 18.3,37.1 773.2,1536.5 2084.3,1894.7 3052.9,1717.2 626.9,-115 1147.8,-441.8 1434.9,-866.4 193.6,474.6 636.3,901.6 1226.2,1143 911.6,373 2268.2,291.8 3342.1,-1054.5 11.1,-13.5 23.5,-29.8 35.6,-45.7 1174.2,-1519.8 712.3,-3390.6 516.6,-3994.3 371.7,-124.9 863.4,-450.2 920,-1093.3 54.3,-611 -407.1,-1403.7 -1028.4,-1767 -313.2,-179.6 -732.8,-363.7 -1248.1,-547.7 -1366.4,-488.1 -2810.6,-736.4 -4251.4,-736.4"
         style="fill:#650000;fill-opacity:1;fill-rule:nonzero;stroke:none"
         id="path146" /><path
         d="m 21086.4,20977.1 c -562.6,0 -1124.9,39.1 -1681.3,117.6 -502.3,70.5 -912.9,158.9 -1221,262.8 -530.8,177.1 -962.7,667.4 -1090.4,1065.3 787.4,-383 2079.4,-767.2 4095.4,-767.2 163.9,0 332.7,2.6 506.2,7.9 393.4,11.9 785.8,52.8 1173.3,122 2312.9,413.2 3644.3,1134.2 4384.5,1720.2 -31.3,-417.5 -356.4,-1005.1 -849.2,-1293.2 -293.3,-168.2 -693.1,-343.2 -1188.4,-520.1 -1327.3,-474.1 -2729.7,-715.3 -4129.1,-715.3"
         style="fill:#d08d6f;fill-opacity:1;fill-rule:nonzero;stroke:none"
         id="path148" /><path
         d="m 16971,21863.7 c -213.8,166.7 -361.7,368.4 -453.9,611.7 -35.9,94.9 -63.1,211 -77.3,335.3 72.6,-52.9 156,-109.4 251.1,-167.7 1.2,-36.5 4.1,-73.7 8.6,-111.7 26.6,-221.5 124.7,-452.4 271.5,-667.6"
         style="fill:#9e321d;fill-opacity:1;fill-rule:nonzero;stroke:none"
         id="path150" /><path
         d="m 17671.5,21200.5 c -636.9,205.6 -1101.2,534.8 -1311.3,1089.5 -68.6,180.7 -108.1,421 -99,660.9 50.4,-42.7 109.6,-89.9 178.6,-140.2 14.2,-124.3 41.4,-240.4 77.3,-335.3 92.2,-243.3 240.1,-445 453.9,-611.7 176.4,-258.3 423,-493.9 700.5,-663.2"
         style="fill:#650000;fill-opacity:1;fill-rule:nonzero;stroke:none"
         id="path152" /><path
         d="m 27485.9,22956.7 c 99.4,240.8 147.8,486.9 128.1,709 -4.2,47.5 -10.7,93.4 -19.4,137.5 82.5,79.7 152.9,154.5 212.7,222.8 15.5,-136.6 13.9,-268.3 -3.1,-377.5 -40.1,-257 -143.4,-484.8 -318.3,-691.8"
         style="fill:#9e321d;fill-opacity:1;fill-rule:nonzero;stroke:none"
         id="path154" /><path
         d="m 26936.7,22163.7 c 236.9,222.8 429.8,504 549.2,793 174.9,207 278.2,434.8 318.3,691.8 17,109.2 18.6,240.9 3.1,377.5 55.9,63.9 102.4,122.1 140.8,173.4 65.7,-242.9 79.1,-500.1 47.8,-700.1 -91.5,-586.1 -478.3,-1003.5 -1059.2,-1335.6"
         style="fill:#650000;fill-opacity:1;fill-rule:nonzero;stroke:none"
         id="path156" /><path
         d="m 21581.7,20705.2 c -406.3,0 -895.1,14.7 -1421.5,29.4 -891.4,25.1 -1038.8,157.5 -1773.8,279.1 -24.8,4.1 -49.5,8.1 -74.3,12.8 -77.5,13.8 -153.9,28.5 -228.5,44.8 -34,11.3 -68,25.1 -101.6,41.5 -107.5,26.5 -211.1,55.6 -310.5,87.7 -277.5,169.3 -524.1,404.9 -700.5,663.2 -146.8,215.2 -244.9,446.1 -271.5,667.6 -4.5,38 -7.4,75.2 -8.6,111.7 59.7,-36.6 123.9,-74 193,-111.7 2.4,-1.6 5,-2.9 7.7,-4.6 63.3,-34.4 130.7,-69.2 202.1,-103.9 127.7,-397.9 559.6,-888.2 1090.4,-1065.3 308.1,-103.9 718.7,-192.3 1221,-262.8 556.4,-78.5 1118.7,-117.6 1681.3,-117.6 1399.4,0 2801.8,241.2 4129.1,715.3 495.3,176.9 895.1,351.9 1188.4,520.1 492.8,288.1 817.9,875.7 849.2,1293.2 53.5,42.3 103.9,84 151.4,124.7 8.4,6.9 16.5,14.1 24.6,21.2 59.9,52.1 114.9,102.8 165.5,151.6 8.7,-44.1 15.2,-90 19.4,-137.5 19.7,-222.1 -28.7,-468.2 -128.1,-709 -119.4,-289 -312.3,-570.2 -549.2,-793 -133.9,-76.6 -278.1,-148.6 -431.4,-217.1 170,99.4 323.3,231.6 454.2,381.6 -66.4,-62.8 -137.9,-122 -212.9,-178.1 l -0.6,-0.7 c -1448.6,-835.1 -3433.1,-1312.3 -4443.3,-1417.3 -189,-19.6 -434.4,-26.9 -721,-26.9"
         style="fill:#650000;fill-opacity:1;fill-rule:nonzero;stroke:none"
         id="path158" /><path
         d="m 19689.4,26296 c -217.2,-8.2 -401.4,-119.2 -531.4,-298.1 -166.9,-228.3 -245,-567.1 -190.7,-941.2 70.2,-483.1 341.9,-892.3 675.1,-1073.1 126.1,-69 261.2,-104.9 397.2,-99.9 495.6,18.3 818.9,573.2 722.1,1239.3 -96.6,666.2 -576.7,1191.3 -1072.3,1173"
         style="fill:#ffffff;fill-opacity:1;fill-rule:nonzero;stroke:none"
         id="path160" /><path
         d="m 19690.8,26258.6 c -197,-7.5 -375.5,-107.9 -502.5,-282.7 -167.8,-229.7 -234.8,-562.7 -183.8,-913.8 65.9,-454.7 323.4,-865.1 655.8,-1045.5 124.2,-68 250.4,-100.1 377.9,-95.4 182.1,6.7 344.7,89.9 470.3,240.6 189.3,227.1 270.1,584.5 216.1,955.8 -93.7,646.7 -557.8,1158.7 -1033.8,1141 z m 323.3,-2412.8 c -131.3,0 -262.2,35.2 -389.6,104.9 -352.4,191.3 -625,623.3 -694.3,1100.6 -53.7,370.4 18.2,723.5 197.5,968.7 140.8,193.7 339.8,305.1 560.3,313.5 v 0 c 512.2,19.5 1011.7,-521.7 1110.8,-1205.1 57.8,-397.9 -27,-767.7 -232.8,-1014.6 -139.6,-167.5 -321.1,-260 -525,-267.5 -9,-0.4 -18,-0.5 -26.9,-0.5"
         style="fill:#11116d;fill-opacity:1;fill-rule:nonzero;stroke:none"
         id="path162" /><path
         d="m 19689.4,26296 c -217.2,-8.2 -401.4,-119.2 -531.4,-298.1 -15.4,-43.6 -27.8,-89.3 -37.6,-136.3 -22.2,-105.9 -17,-252.8 66.7,-314 71.9,-52.6 150.3,-3.8 227.2,-0.9 126.6,5.1 263.4,-141.3 283.8,-304.1 20.2,-162.5 -80,-310.1 -207.7,-305.8 -88.9,3 -195.2,64.8 -258.3,-1.8 -46.5,-49.1 -42.5,-145.2 -26,-227.6 56.4,-281.2 220.5,-536.2 417.3,-707.8 6.2,-5.4 12.7,-10.9 19,-16 126.1,-69 261.2,-104.9 397.2,-99.9 495.6,18.3 818.9,573.2 722.1,1239.3 -96.6,666.2 -576.7,1191.3 -1072.3,1173"
         style="fill:#1595ff;fill-opacity:1;fill-rule:nonzero;stroke:none"
         id="path164" /><path
         d="m 20248.3,23964.8 c 405.1,14.7 665.2,497.5 581.1,1078.3 -84.2,580.7 -480.7,1039.5 -885.7,1024.8 -405,-14.8 -665.1,-497.6 -581,-1078.4 84.1,-580.7 480.6,-1039.5 885.6,-1024.7"
         style="fill:#640005;fill-opacity:1;fill-rule:nonzero;stroke:none"
         id="path166" /><path
         d="m 19417.9,25583 c -76.9,-3 -155.3,-51.8 -227.2,0.9 -83.7,61.2 -88.8,208.1 -66.7,313.9 9.8,47.1 22.2,92.8 37.6,136.4 -166.9,-228.3 -245,-567.2 -190.7,-941.2 70.2,-483.1 341.9,-892.3 675.2,-1073.1 -6.4,5.1 -12.9,10.5 -19.1,16 -196.8,171.6 -360.9,426.6 -417.3,707.8 -16.5,82.4 -20.4,178.5 26,227.6 63.1,66.6 169.4,4.8 258.3,1.7 127.7,-4.2 227.9,143.3 207.7,305.8 -20.4,162.9 -157.2,309.2 -283.8,304.2"
         style="fill:#ffffff;fill-opacity:1;fill-rule:nonzero;stroke:none"
         id="path168" /><path
         d="m 19714.6,26537.1 c -11.4,0 -22.7,-0.2 -34.1,-0.6 -284.3,-10.9 -538.9,-151.9 -717.2,-397.1 -210,-287.3 -295.4,-694.7 -234.1,-1117.2 79.4,-546.9 385.4,-1025.9 798.5,-1250.1 156.8,-85.8 320.8,-129.5 486.8,-129.5 11.3,0 22.6,0.3 33.9,0.7 259.4,9.5 498.7,130.5 673.7,340.4 242.6,291.1 343.8,719 277.8,1173.9 -112.2,773.5 -676.7,1379.5 -1285.3,1379.5 z m 0,-240.6 c 486.5,0 952.2,-518.6 1047.1,-1173.5 96.8,-666.1 -226.5,-1221 -722.1,-1239.3 -8.4,-0.3 -16.7,-0.4 -25.1,-0.4 -127.5,0 -253.7,35.6 -372.1,100.3 -333.2,180.8 -604.9,590 -675.1,1073.1 -54.3,374 23.8,712.9 190.7,941.2 130,178.9 314.2,289.9 531.4,298.1 8.4,0.3 16.8,0.5 25.2,0.5"
         style="fill:#640005;fill-opacity:1;fill-rule:nonzero;stroke:none"
         id="path170" /><path
         d="m 23698.9,26801.1 c 212.5,45.9 418.5,-16 588.7,-157 218.3,-179.8 378,-488.7 418.2,-864.5 51.9,-485.4 -109.9,-949.2 -387.9,-1207 -105.1,-98.1 -227,-166.4 -360,-195.3 -484.6,-105.2 -935.5,352.2 -1006.9,1021.5 -71.6,669.3 263.2,1297.1 747.9,1402.3"
         style="fill:#ffffff;fill-opacity:1;fill-rule:nonzero;stroke:none"
         id="path172" /><path
         d="m 23706.8,26764.5 c -465.7,-101.2 -788.1,-712 -718.5,-1361.7 39.8,-373.1 206.7,-699.3 446.4,-872.4 159.1,-114.8 337.1,-155.2 515.3,-116.5 123.7,26.9 238.9,89.5 342.3,186.1 277.4,257.3 425,718.7 376.2,1175.6 -37.7,352.8 -185.2,658.8 -404.7,839.6 -168.9,139.9 -361.5,191.5 -557,149.3 z m 111.2,-2439.9 c -148.8,0 -294.2,49.1 -427.2,145.1 -260.5,188.1 -434.4,525.3 -477,925.1 -73.6,686.7 275.1,1333.9 777.1,1442.9 l 0.1,0.1 c 215.7,46.5 436,-12 620.6,-164.8 234.4,-193.1 391.7,-517.3 431.4,-889.4 51.3,-479.6 -105.5,-965.7 -399.6,-1238.5 -113.3,-105.8 -240.4,-174.6 -377.5,-204.4 -49.5,-10.7 -98.9,-16.1 -147.9,-16.1"
         style="fill:#11116d;fill-opacity:1;fill-rule:nonzero;stroke:none"
         id="path174" /><path
         d="m 23698.9,26801.1 c 212.5,45.9 418.5,-16 588.7,-157 25.8,-38.4 49.1,-79.6 70.3,-122.8 47.7,-97 79.1,-240.6 13.2,-320.7 -56.5,-68.8 -144.6,-40.9 -219.9,-57.2 -123.9,-26.5 -220.1,-202.2 -199.4,-365 20.7,-162.4 154.4,-280.5 277,-244.7 85.4,25 173,111.2 250.7,62.3 57.1,-36 77.1,-130.1 81.6,-214 15.1,-286.4 -80.6,-574.1 -228.7,-789.2 -4.7,-6.8 -9.6,-13.7 -14.5,-20.2 -105.1,-98.1 -227,-166.4 -360,-195.3 -484.6,-105.2 -935.5,352.2 -1006.9,1021.5 -71.6,669.3 263.2,1297.1 747.9,1402.3"
         style="fill:#1595ff;fill-opacity:1;fill-rule:nonzero;stroke:none"
         id="path176" /><path
         d="m 23735.6,24404.1 c -396,-86.2 -767.8,317 -830.3,900.5 -62.5,583.5 207.8,1126.3 603.8,1212.4 396.1,86.1 767.8,-317.1 830.3,-900.5 62.6,-583.5 -207.8,-1126.3 -603.8,-1212.4"
         style="fill:#640005;fill-opacity:1;fill-rule:nonzero;stroke:none"
         id="path178" /><path
         d="m 24138.7,26177.7 c 75.3,16.2 163.4,-11.6 219.9,57.2 65.9,80.1 34.5,223.7 -13.2,320.7 -21.2,43.2 -44.5,84.3 -70.2,122.8 218.2,-179.8 377.9,-488.7 418.1,-864.5 51.9,-485.5 -109.9,-949.2 -387.9,-1207.1 4.9,6.6 9.8,13.4 14.5,20.3 148.1,215 243.8,502.7 228.7,789.1 -4.4,83.9 -24.4,178 -81.6,214.1 -77.7,48.9 -165.3,-37.4 -250.7,-62.4 -122.6,-35.7 -256.3,82.3 -277,244.8 -20.7,162.7 75.5,338.5 199.4,365"
         style="fill:#ffffff;fill-opacity:1;fill-rule:nonzero;stroke:none"
         id="path180" /><path
         d="m 23837.5,27056.7 v 0 c -63.1,0 -126.8,-6.9 -189.3,-20.4 -610.9,-132.6 -1022.1,-863.1 -936.4,-1663.1 77.3,-725.2 543,-1251.5 1107.2,-1251.5 63.3,0 127.2,6.8 189.9,20.5 173.5,37.6 332.7,123.3 473.2,254.6 344.1,319 521.7,858.9 462.9,1408.4 -45.3,424.5 -229.2,798 -504.4,1024.6 -179,148.3 -387.8,226.9 -603.1,226.9 z m -0.1,-240.7 c 162.6,0 317.3,-61.8 450.3,-171.9 218.2,-179.8 377.9,-488.7 418.1,-864.5 51.9,-485.4 -109.9,-949.2 -387.9,-1207 -105.1,-98.1 -227,-166.4 -360,-195.3 -46.7,-10.1 -93.1,-15 -138.9,-15 -429.1,0 -803.5,431.7 -868,1036.5 -71.6,669.3 263.3,1297.1 747.9,1402.3 46.6,10.1 92.9,14.9 138.5,14.9"
         style="fill:#640005;fill-opacity:1;fill-rule:nonzero;stroke:none"
         id="path182" /><path
         d="m 18150.5,13557.3 c 0,0 833.4,666 1181.8,510.3 383.7,-171.5 -232.3,-757.4 -232.3,-766.7 0.1,-9.4 1048.9,-168.6 1055.7,-602 6,-375.2 -863,-218.4 -874.5,-234.7 -6.9,-9.7 512.2,-594.2 209.2,-734.7 -303.1,-140.4 -957.2,249 -968.5,239.8 -17.5,-14.1 327.7,-632.9 -38.7,-834.3 -366.4,-201.4 -1171.8,655.2 -1182.6,1204 -10.3,526.7 849.9,1218.3 849.9,1218.3"
         style="fill:#ffca9f;fill-opacity:1;fill-rule:nonzero;stroke:none"
         id="path184" /><path
         d="m 18263.9,13415.9 c -305.7,-246.4 -788.3,-755.5 -782.1,-1073.3 5.9,-296.5 354.3,-796.6 690.5,-991 118.2,-68.3 194.4,-73.7 223.5,-57.7 106.8,58.6 99.7,237 -21.7,545.3 -27.3,69.2 -72.9,184.9 33.9,271.2 92.6,74.6 181.3,30.6 259.6,-8.2 478.9,-237.2 665.7,-237.9 736.8,-212.2 -2.3,37.7 -31.4,149.8 -237.1,421.3 -36.3,48 -112,147.9 -33.9,257.9 62.1,87.6 149,79.8 240.6,71.9 520.7,-45.8 593.3,37.5 600.2,47.8 -0.1,0.1 0.4,2.3 0.3,7.1 -0.4,23.8 -27.9,238.6 -864.9,416.3 -52.2,11.1 -190.8,40.6 -190.8,188.6 -0.4,72.1 38.5,113.9 69.8,147.4 291.3,312 289.7,429.8 288.1,444.4 -1.3,0.1 -6.9,4.3 -18.4,9.4 -145.2,64.9 -640.7,-203.9 -994.4,-486.2 z m 94.7,-2492.4 c -98.9,0 -221.1,29.4 -367.8,114.3 -404.7,233.9 -862.1,824.5 -871.5,1297.7 -11.7,598.4 822.4,1286.6 917.6,1363.1 l 0.4,0.4 c 215.7,172.4 952.1,720.3 1368.9,534.2 121.6,-54.4 201.8,-149.3 225.6,-267.1 37.3,-184.1 -68.7,-384.2 -199.9,-556.7 365.3,-96.3 898.6,-297.1 905.1,-707.7 1.8,-110 -39.1,-207.1 -118.2,-280.8 -131.1,-122 -345.1,-156.4 -573.4,-156.4 -2.5,0 -5.1,0 -7.6,0 95.1,-162.6 154.6,-328.3 118,-475.4 -24.8,-99.4 -92,-179 -189.1,-224.1 -206.9,-95.8 -485.2,-32.5 -751.9,73.1 44.9,-233.2 29.5,-511.4 -244.3,-662 -52.4,-28.8 -122.7,-52.6 -211.9,-52.6"
         style="fill:#650000;fill-opacity:1;fill-rule:nonzero;stroke:none"
         id="path186" /><path
         d="m 22383.5,20612.1 c 0,0 1982.2,-1433.8 3965.5,-1525.6 l -1.6,-2117.9 c 0,0 -3746.3,-1189.7 -5875.7,941.9 l 1911.8,2701.6"
         style="fill:#b74729;fill-opacity:1;fill-rule:nonzero;stroke:none"
         id="path188" /><path
         d="m 21037.1,17442.4 c -197.7,134.5 -387.1,289.5 -565.2,467.9 v 0 c 178,-178.2 367.7,-333.5 565.3,-467.9 -0.2,-0.1 0.1,0.1 -0.1,0"
         style="fill:#8d2314;fill-opacity:1;fill-rule:nonzero;stroke:none"
         id="path190" /><path
         d="m 21146.9,17370.3 c -36.9,23.3 -73.5,47.3 -109.8,72.1 0.2,0.1 -0.1,-0.1 0.1,0 36.3,-24.7 72.9,-48.7 109.7,-72 0,-0.1 0,-0.1 0,-0.1"
         style="fill:#650000;fill-opacity:1;fill-rule:nonzero;stroke:none"
         id="path192" /><path
         d="m 24007.5,16637.5 c -849.2,0 -1807.5,141.7 -2654.7,610.8 h 0.1 c 847.1,-468.9 1805.6,-610.7 2654.6,-610.7 1290.2,0 2328.1,327.3 2339.8,331 v -0.1 c 0,0 -1042.4,-331 -2339.8,-331"
         style="fill:#af6903;fill-opacity:1;fill-rule:nonzero;stroke:none"
         id="path194" /><path
         d="m 21352.8,17248.3 c -69.4,38.4 -138.2,79.1 -205.9,122 0,0 0,0 0,0.1 67.9,-43 136.5,-83.6 206,-122.1 h -0.1"
         style="fill:#650000;fill-opacity:1;fill-rule:nonzero;stroke:none"
         id="path196" /><path
         d="m 26348.1,17814.8 0.9,1271.6 h 0.1 l -1,-1271.6 m -130.1,1279.7 c -59.3,4.5 -118.4,10.1 -177.6,16.7 59.2,-6.6 118.4,-12.2 177.6,-16.7"
         style="fill:#af6903;fill-opacity:1;fill-rule:nonzero;stroke:none"
         id="path198" /><path
         d="m 24007.5,16637.6 c -849,0 -1807.5,141.8 -2654.6,610.7 -69.5,38.5 -138.1,79.1 -206,122.1 -36.8,23.3 -73.4,47.3 -109.7,72 -197.6,134.4 -387.3,289.7 -565.3,467.9 l 107.8,152.7 c 995.4,-582.4 1974.5,-767 2785.3,-767 886.1,0 1571.1,220.4 1857.4,383.2 548,311.6 782.3,1436.2 782.3,1436.2 11.9,-1.4 23.8,-2.8 35.7,-4.2 59.2,-6.6 118.3,-12.2 177.6,-16.7 43.6,-3.3 87.3,-6.1 131,-8.1 l -0.9,-1271.6 -0.8,-846.2 c -11.7,-3.7 -1049.6,-331 -2339.8,-331"
         style="fill:#9e321d;fill-opacity:1;fill-rule:nonzero;stroke:none"
         id="path200" /><path
         d="m 24009.6,16456.3 c -1533.2,0 -2797.5,456.5 -3666.2,1326 -70.8,70.9 -70.7,185.6 0.1,256.4 70.9,70.8 185.6,70.7 256.4,-0.1 1813.1,-1815 4905.4,-1111 5566.3,-933.2 l 1.4,1811.2 c -1952.3,161.6 -3810,1490.4 -3890.3,1548.5 -81.2,58.7 -99.3,172 -40.7,253.1 58.6,81.1 172,99.5 253.1,40.8 19.4,-14 1963.1,-1403.3 3867.7,-1491.4 l 173,-8 -1.8,-2423.7 -126.3,-40.1 c -39.3,-12.4 -975,-305.6 -2189.5,-336.9 -68.2,-1.7 -136.1,-2.6 -203.2,-2.6"
         style="fill:#650000;fill-opacity:1;fill-rule:nonzero;stroke:none"
         id="path202" /><path
         d="m 25944.5,18776.7 c 0,0 457.6,963.7 839,976.3 420.1,13.9 122.9,-782.6 127,-791 4.1,-8.4 1016.7,307.7 1212.7,-78.9 169.7,-334.6 -680.2,-574.3 -683.5,-593.9 -1.9,-11.8 720.8,-310 509.9,-569 -211,-258.9 -969.5,-195.3 -975.7,-208.5 -9.6,-20.3 571.7,-425.5 330.5,-767 -241.2,-341.5 -1340.4,75.9 -1590.4,564.5 -239.9,469 230.5,1467.5 230.5,1467.5"
         style="fill:#ffca9f;fill-opacity:1;fill-rule:nonzero;stroke:none"
         id="path204" /><path
         d="m 26108.4,18699.3 c -166.9,-355.4 -377.8,-1024.5 -233,-1307.5 135.1,-264 667.3,-560.9 1054.6,-588.5 136.5,-9.6 207.1,18.7 226.4,46 70.3,99.5 -14.3,256.8 -258.5,480.7 -54.7,50.2 -146.3,134.3 -88.2,258.5 50.6,107.7 150.4,107.4 237,106.5 534.6,-5 702.7,77.7 755.3,131.9 -18.6,32.9 -93.9,120.9 -397.7,275 -53.7,27.2 -165.4,83.9 -143.4,216.8 17.3,106 98.7,137.2 184.9,170.1 488.2,187.1 516.9,293.5 518.6,305.9 -0.2,0 -0.7,2.2 -2.9,6.4 -10.7,21.3 -129.5,202.3 -959.9,-4.5 -51.7,-12.8 -188.8,-46.9 -253.8,85.4 -32.2,65.2 -15.4,119.9 -2,163.8 125.2,408 72.2,513.1 64.3,525.5 -1.2,-0.3 -6.3,0.6 -15.6,0.6 -1.5,0 -3.2,0 -5,-0.1 -159.2,-5.3 -486.6,-464 -681.1,-872.5 z m 874.2,-2260.5 c -24.9,0 -51,0.9 -78.3,2.9 -466.3,33.1 -1136.1,363.7 -1351.7,785 -272.6,532.7 175.9,1516.8 227.9,1627.2 l 0.2,0.6 c 118.5,249.4 540.5,1064.6 996.7,1079.7 133.2,4.6 246.7,-45.8 319.8,-141.3 114.2,-149.1 106.5,-375.4 64.1,-588 370.7,73.4 937.9,126.4 1123.7,-239.8 49.7,-98.2 55.4,-203.4 16.6,-304.3 -65.1,-168.8 -245.6,-294.4 -453.8,-395 156.7,-104.6 282.8,-227.4 314.3,-375.8 21.2,-100.2 -4.3,-201.2 -72,-284.2 -143.9,-176.7 -421.8,-241.8 -707.9,-263.6 142.6,-189.9 250.6,-446.8 70.3,-702.1 -66.7,-94.3 -201.5,-201.3 -469.9,-201.3"
         style="fill:#650000;fill-opacity:1;fill-rule:nonzero;stroke:none"
         id="path206" /><path
         d="m 28438.2,15709.4 c -824.6,0 31.8,1655.2 430.7,2130.5 1044,1244.4 1210.3,2142 1754.3,2560.4 102.7,78.9 217.8,127.5 327.4,127.5 173.2,0 332.6,-121 407.5,-434.4 99.3,-415.2 -802.7,-3819.7 -2652.9,-4341.2 -103.8,-29.2 -192.3,-42.8 -267,-42.8"
         style="fill:#feec83;fill-opacity:1;fill-rule:nonzero;stroke:none"
         id="path208" /></g></g></svg>
